<svg xmlns="http://www.w3.org/2000/svg" viewBox="0 0 743.5 400"><defs><style>.cls-1{isolation:isolate;}.cls-2{fill:#f1f4f8;}.cls-3{fill:#212121;}.cls-4{mix-blend-mode:difference;}.cls-5{fill:none;stroke:#f1f4f8;stroke-miterlimit:10;stroke-width:2px;stroke-dasharray:5;}</style></defs><title>full-mag-fields</title><g class="cls-1"><g id="Layer_1" data-name="Layer 1"><rect class="cls-2" width="744.1" height="400.02"/><path class="cls-3" d="M376.9,119.1a4,4,0,0,1-3.5.2.5.5,0,0,0-.6.2c-.2.2-.5.2-1.2-.1s-.9-.3-1,0a.8.8,0,0,1-.7.4,1.5,1.5,0,0,0-.9.4c-.4.3-.6.3-1.1,0s-1.7-.5-6.1.2-5.8,1.4-5.8,2.1-.2.2-.5.1-.5-.1-.6.1a1.1,1.1,0,0,1-.7.3,2.7,2.7,0,0,0-1.3.8,5.1,5.1,0,0,1-1.2.9,6.7,6.7,0,0,1-2.3-.3c-.1-.2-1-.2-2.1,0s-3.2-.2-3.5-1.4-.6-.8-1.2-.4a16.6,16.6,0,0,0-1.2,2c-1.1,2.7-1.8,3.5-3.8,4.5s-3.9,2.6-3.9,3.4a3.3,3.3,0,0,1-.7,1.5c-.6.8-.7,1.5-.7,3.1a5.1,5.1,0,0,1-.4,2.4,1.5,1.5,0,0,0-.4.8,3.1,3.1,0,0,1-1.2,1.3l-1.8,1.5a7.2,7.2,0,0,1-3.3,1.6c-.7,0-1.2.5-2,2.3a5,5,0,0,1-1,1.5c-.9,0-2.7,2.7-2.7,4s-.8,2.1-2.1,3.3a9.3,9.3,0,0,0-1.5,2.6,5.9,5.9,0,0,1-1.2,2.3,2.7,2.7,0,0,0-.8,1.6c-.1.7-.3,1.6-.4,2s-.1.7.3.6a1.8,1.8,0,0,1,1.1.7c.8.8,1,1.6.5,1.6s-.7,1.7-.2,2.4.6,3.7-.2,5.7a10.9,10.9,0,0,0-.6,2.5c0,1-1.6,3.6-2.2,3.6a.4.4,0,0,0-.4.4c0,.1.2.3.5.3s.6.4.8.9a9.1,9.1,0,0,0,.7,1.4.8.8,0,0,1-.1.8c-.2,0-.3.8-.3,1.7a2.7,2.7,0,0,0,1,2.4c1,1,1.2,1.6.4,1.3s-.5-.1-.3.6.6,1.2,1.3.7.5-.6.3-.7-.6-1-.2-1,.5.4.7.9.5,1,.6,1a.5.5,0,0,1,.4.5.5.5,0,0,0,.5.5c.2,0,.5.1.5.2a13.5,13.5,0,0,0,1.6,2,5.1,5.1,0,0,1,1.6,2.6c.1,1.3.2,2,.7,2.3s.2.4.1.6-.1.3.1.3.3.2.2.4.4.7,1.2,1,2.5,1.5,6.4,4.9,4.8,3.9,7.8,2.4,7.9-1.6,10.7-.3a1.8,1.8,0,0,0,1.4-.1c3-1.5,5.2-2.5,5.9-2.5a1.3,1.3,0,0,0,.9-.4c.2-.6,2.8-1.2,5.8-1.2s2.4,0,3,.5a7.6,7.6,0,0,1,1.9,3.5c0,.3.4.8.8,1.2a1.8,1.8,0,0,0,1.8.5l2.4-.4,2.4-.2c.8-.1,1,0,1.2.6a1.1,1.1,0,0,0,.8.9c.3.1.6.4.6.6a1.2,1.2,0,0,0,.5.9c.6.5.3,3.6-.5,5.2s-.5,1.2-.2,1.3.3.4.1.8a6.9,6.9,0,0,0-.4,2c-.2,1.4-.6,2.1-1.1,1.8s-.3.6.2,1.7l1,2.2a9.6,9.6,0,0,0,1.7,2.4c2.3,2.2,5.2,6.5,5.2,7.7a1.6,1.6,0,0,0,.3.9c.2.1.3.3.2.4a3.6,3.6,0,0,0,.6,2l1.4,3.5c.6,1.6.6,1.7-.1,2.1s-.5.6.5,3.2a11.9,11.9,0,0,1,1,4.1c-.1,1.7-.6,3.2-1.1,3.2s-2.1,2.7-2.4,4.2a15.5,15.5,0,0,1-1.3,4.9c-.4,0-.2,5.9.2,7a2.3,2.3,0,0,0,.7,1c.3,0,1.7,2.9,3.1,6.3.2.7.9,1.9,1.3,2.8a5.8,5.8,0,0,1,.9,3.7,37.1,37.1,0,0,0,.4,3.8l.9,4.5c.6,3.3,1.1,4.4,2.7,6.2a10.3,10.3,0,0,1,2,3.6c.8,2.4,1.8,4.7,2.3,5a4.1,4.1,0,0,1,.5,1.6c.2,1.3.1,1.6-.3,1.6a.8.8,0,0,0-.7.4,2.8,2.8,0,0,0,.9,1.9c.2.1.2.5.1,1s.3,1.9.7,1.2.4-.4.4-.1a.4.4,0,0,0,.4.4,1.8,1.8,0,0,1,1,.7c.7.8,1.4.8,2.2,0a3.3,3.3,0,0,1,1.9-.5,3.5,3.5,0,0,0,2.1-.4c.9-.6,3.3-.8,5-.4s1.4.2,1.7,0a1.7,1.7,0,0,1,1.2-.3c.4.1.7-.1.7-.3s.5-.4,1.3-.5,5-2.3,6.8-4.4l1.9-1.9c1.2-1.2,3.4-4.3,3.4-4.9a8.1,8.1,0,0,1,2.6-2.6c.4,0,1-1.2,1.8-3.7s.7-4.2.2-3.9-.4-.4.4-1.3a11.6,11.6,0,0,1,2.9-1.7,5.9,5.9,0,0,0,3.1-2c.4-.6.6-1.2.4-1.4s-.2-.6,0-1.1.4-3.6-.1-4.1a.7.7,0,0,1-.3-.6c0-.2.2-.1.3.1s.4.4.4-.2-.2-.7-.4-.7-.4-.3-.4-1-.3-1.2-.5-1.2a1.1,1.1,0,0,1-.4-.9c0-.8,3-4,3.7-4s.5-.2.5-.3l.6-1a9.7,9.7,0,0,1,4.2-3.3l2-.9a2.1,2.1,0,0,1,.7-.5,14.3,14.3,0,0,0,3.4-4.7,3.4,3.4,0,0,0,.1-2.6,35.1,35.1,0,0,1-.3-5.6c.1-5.4.1-5.2-.8-5.6s-.9-.8-1.2-2.5-.7-3.3.1-3.5.6-.3.6-.5-.2-.3-.5-.2-1-.7-.6-1.4.2-.8-.5-1.7a3.3,3.3,0,0,1-1-1.6,15,15,0,0,1,1.4-3.9,23.8,23.8,0,0,0,2.1-4.7,2.3,2.3,0,0,1,.8-1.1,10.1,10.1,0,0,0,3.3-3.5c1.4-2.8,5.8-7.4,8.4-9.1s6.9-6.7,6.9-7.6a11.5,11.5,0,0,1,1.2-2,8.5,8.5,0,0,0,1.1-2.3,21.8,21.8,0,0,1,2.3-5.1c.2,0,.3-.2.3-.4a6.8,6.8,0,0,1,.8-1.9,8.6,8.6,0,0,0,.8-2.8c0-.8.1-1.1.6-1.3s.9-.6.4-.8-.5-1.8-.3-3-1.2-1.2-1.9-.5-3.5,1.7-4.2,1.4a1.9,1.9,0,0,0-1.2.2,2.1,2.1,0,0,1-1.5.3c-.4-.2-1,0-1.6.5a2.8,2.8,0,0,1-2,.5,2.8,2.8,0,0,0-2,.4c-1.7,1-2.9.6-4.2-1.4a2.5,2.5,0,0,0-1.4-1.1l-.8-.2.8-.4c1.2-.6,1.1-1.5-.5-3.1a19.6,19.6,0,0,1-1.8-2.2,2.1,2.1,0,0,0-.8-.7c-.2,0-.6-.4-.9-.9a2.6,2.6,0,0,0-1.1-1.2l-1-.7a1.1,1.1,0,0,0-.9-.2c-.3.1-.5-.1-.6-.7s0-.8.3-.8.4-.1,0-.5-.7-.6-1,.2-.2.8-.7.1a9,9,0,0,1-.8-1.9c-.9-3.7-1.3-4.6-2.9-5.9s-2.3-2.4-2.4-5.5a7.4,7.4,0,0,0-.4-2.8,1.9,1.9,0,0,1-.5-1.3c0-.4-.1-.8-.2-.8l-1.6-1.2c-1.5-1.4-2.4-3.6-1.4-3.6s.3-.3-.3-.8a9,9,0,0,1-1.8-2.7l-1.7-3.1a8.7,8.7,0,0,1-.6-1.6,3.3,3.3,0,0,0-.6-1.2,3.3,3.3,0,0,1-.6-1.4,6.3,6.3,0,0,0-1.3-1.9,5.1,5.1,0,0,1-1.1-2c0-.5-.1-.9-.3-1a5.6,5.6,0,0,1-.5-2.4,9.1,9.1,0,0,0-.6-2.8c-.9-1.1-4.7-.7-6.1.6a1.6,1.6,0,0,1-1.4.5,10.7,10.7,0,0,0-2.1-.5l-2.1-.7a9.1,9.1,0,0,0-4.1-.7c-.6.1-.9,0-1-.6s-.5-.6-1.2-.6-3.4-.7-3.6-1.3a.8.8,0,0,0-.8-.7c-.4,0-.8-.1-.9-.3s-3.5-.1-5,1.2a2.5,2.5,0,0,0-.6,3.3c.5.8-.8,2.6-2,2.6a5.7,5.7,0,0,1-1.8-.9,8.7,8.7,0,0,0-4.6-1.7,2.4,2.4,0,0,1-2.4-2,2,2,0,0,0-1.1-1.3l-1.8-.8a6.7,6.7,0,0,0-2.6-.5,7,7,0,0,1-3-.5c-1.3-.7-2.2-1.7-1.8-2.1s0-.2-.3-.2-.6.1-.6.3-.9.4-1.3-.3-.1-.7.7-1.4,1.2-.8,1.4-.7.5.1.5-.2-.1-.2-.3-.1-.3-.2-.1-1.1.1-1.3-.5-1.6a1.1,1.1,0,0,1-.2-1.9,1.1,1.1,0,0,0,.4-1c-.1-.2-.1-.3.1-.2s.3,0,.3-.1-.4-.7-1-.2-.6.5-.8-.1a1.8,1.8,0,0,0-1.7-1.1Zm61.6,104.2c.2.4.3.7,0,1s-.2.5-.1.6-.5,2-.8,2-.3.2-.3.4a1.2,1.2,0,0,1-.5.8c-.6.4-.6.5,0,.9s.3.8-1.4.5a3.5,3.5,0,0,0-1.9.1c-.6.5-.7-.2-.5-2.6s.3-3.5,1.6-3.9,1.4-.5,1.5-.7S438,222.6,438.5,223.3Zm-11.2,12.4a1.4,1.4,0,0,0,.4,1.1c.2.1.2.4.1.7a1.9,1.9,0,0,0,.2,1.2c.3.5.3.7,0,.8s-.4,1.3.4,1.6a1.9,1.9,0,0,1,1.2,2,5.4,5.4,0,0,0,.8,2.2c1,2,1,2,0,1.6s-.8-.6-.7-.9a1.3,1.3,0,0,0-.3-1.1,2.5,2.5,0,0,1-.5-1.1,3.8,3.8,0,0,0-.9-1.6,5,5,0,0,1-1.1-1.6,10.4,10.4,0,0,0-.1-1.6,26.1,26.1,0,0,1-.2-3.5c-.1-2.3-.1-2.5.3-1.6A5.8,5.8,0,0,1,427.3,235.7Zm11.6,14.8a8.1,8.1,0,0,1,.5,2.1,3.4,3.4,0,0,0,.4,1.8,1.8,1.8,0,0,1,.1,2.1c-.5.3-.2,4.7.3,4.9a.5.5,0,0,1,.3.4c0,.2-.1.2-.3.2s-.3-.1-.3.1-.2.3-.4.3-.2-.3-.1-.6a1.4,1.4,0,0,0-.1-1.1,10.5,10.5,0,0,1-.7-3.9c.2-3.9.1-4.9-.2-5.7a2.2,2.2,0,0,1-.4-1C438,249.6,438.6,249.9,438.9,250.5Z"/><path class="cls-3" d="M474.7,257a7.4,7.4,0,0,0-.5,1.9c-.1,1.3-.3,1.5-1.1,1s-.6-.3-.6.1a.8.8,0,0,0,.4.6h-.3c-.8-.1-.9.1-.8,1.3s-.1.6-.3.7a1.5,1.5,0,0,0-.3.8c0,.4-.2.6-.5.5s-.5,0-.5.2-2.3,2.3-4,2.9a4.9,4.9,0,0,0-1.6.7l-1.1.2c-.5,0-.7.2-.7.9a4.3,4.3,0,0,1-.6,1.8c-.7,1-.7,1.8,0,5.5.4,2.1.4,2.2-.6,4a9.7,9.7,0,0,1-1.2,2.1c-1.1.8-1.5,3.7-.7,5.2a4,4,0,0,1,.3,2.3c-.1.8,0,1.5.2,1.6s.3.5.3.8a2,2,0,0,0,1.8,1.6c.2,0,.5.2.5.4s1.7.3,2.4-.2a2.5,2.5,0,0,1,1.5-.5,2.7,2.7,0,0,0,2.2-2.2,2.4,2.4,0,0,1,.5-1.2,9.3,9.3,0,0,0,.8-2.4,23.9,23.9,0,0,1,1-2.9,18.3,18.3,0,0,0,1-2.8c.2-.8.9-2.9,1.6-4.7a28.5,28.5,0,0,0,1.4-4.3c.4-2.4.5-2.7.9-2.6s.4-.2.1-2.7l-.3-1.5.7.8.6.8.6-1a1.8,1.8,0,0,0,.2-1.7,4.6,4.6,0,0,1-.4-2,9.5,9.5,0,0,0-.3-2.5,19.4,19.4,0,0,0-1.9-4.2Z"/><path class="cls-3" d="M505.9,9.2c-2.2.5-2.4.6-1.6.9s.6.3-.1.3-1.2.6-.4,1.5,1.5,1,1.7.4.2-.4.2,0a.5.5,0,0,0,1,0q0-.5.3,0a.6.6,0,0,0,.8.3c.3-.2,1.1,0,1.9.2a38.4,38.4,0,0,0,8.2,1.2c1.4,0,2.2-.6,1.1-.9a.8.8,0,0,1-.7-.7c0-.8-.8-1-3.3-1.2s-3.3-.4-2.9-.9-.1-.5-1.6-.8C507.3,8.8,507.2,8.8,505.9,9.2Z"/><path class="cls-3" d="M526.8,16.2c-.8.4-1.2,1.2-.7,1.8s.1.5-1.1.5-1.5.1-1.6.3a2.3,2.3,0,0,1-1.3.5c-.9.1-1.2.1-1-.2s-6-.1-6.5.5a6.9,6.9,0,0,1-2.6.6,8.8,8.8,0,0,0-3,.7,2.1,2.1,0,0,1-1.5.4c-.5-.2-.8-.1-.8.1s-.2.3-.5.3a.6.6,0,0,0-.5.6c0,.3-.1.4-.2.1s-1.3-.5-1.5.1a.7.7,0,0,0,0,.8c.1.1.3,0,.3-.2s.4-.3.9.1a2.7,2.7,0,0,0,1.4.4c.3-.1.6.1.6.3s-2.3.6-2.6.1a1,1,0,0,0-.8-.4q-.6,0,0,.3c.6.5-.4.7-3.5.8h-2.7l.9.8a11.4,11.4,0,0,1,1.6,1.4,4.1,4.1,0,0,0,2.2.8c.8.1,1.5.3,1.5.5s.2.3.6.4,0,.1-.6.2a5.8,5.8,0,0,1-1.9-.4c-.8-.5-2.8-.9-6.1-1.4-.6-.1-1.1,0-1.3.3s-.4.5.3.6.6.1-.8.4-.9.2-.3.7a5.4,5.4,0,0,0,1.7.7c1.1.4,1.1.4-.4.3s-2.5-.8-2.5-1.9a3,3,0,0,0-1.9-1.9l-1-.4c-.5-.3-.7-.3-1,0s-.1.5.7.7,1.2.3,1.4.1.2,0,0,.2a.7.7,0,0,0,.2.6c.6.3.3.7-.7.9s-.9.4-.9.7-.2.5-.4.5.4.6,1.5,1.1,1.8,1,1.6,2-.1,1.1.5,1.4.6.6.6.9.5.4,2.4.3,2.2-.2,1.1.1-1.9,1.1-.7,2.1.9.8.6,1.1a1.7,1.7,0,0,0-.5,1.2c0,.5-.2.7-.9.9s-1,.4-1,.7-.2.4-1,.3a3.1,3.1,0,0,1-1.4-.6c-.2-.2-.2-.2.2-.1s.7-.2,1.1-1.1a3.5,3.5,0,0,1,.8-1.3c.1,0,.2-.5.2-1.1s-.3-1.1-1.4-1.6-1.4-.8-1.4-1a4.5,4.5,0,0,0-.7-1.5,4.9,4.9,0,0,1-.8-1.7c-.1-.8-.9-1.4-1.9-1.7s-.7-.3-.5-.5a2,2,0,0,0-.1-2.3c-.3-.4-1.1-.7-2.7-.8s-1.7-.3-1-.4,1.1,0,.5-.5-3.3-.7-3.1-.1a.9.9,0,0,1-.3.9,3.1,3.1,0,0,0-.4,1.6c0,1.1-.1,1.4-.9,1.8s-1.3,1.4-.2,1.8.8.5.8,1.2.7,1.9,1.4,1.6a2.2,2.2,0,0,1,1.4.4,7.5,7.5,0,0,0,1.7,1c.7.3.9.8.4,1a7.6,7.6,0,0,1-2.5-.7c-3.2-1.3-3.8-1.3-2.3.3a5.3,5.3,0,0,1,1.2,1.5c-.1,1.1-3.6,3.6-6.8,4.8a6.2,6.2,0,0,0-1.9,1c-.2.2.2,1.6,1.5,4.4a29.1,29.1,0,0,1,2.7,11.3,5,5,0,0,0,1.6,4.2c1.7,1.5.9,4.1-1.2,4.1a2.4,2.4,0,0,0-1.6.7c-.5.6-.5.6.2,1.6a11.6,11.6,0,0,1,1.6,2.1c1.1,1.5,2.2,1.5,3.5,0s2.3-1.5,3.1-.1.5,1.2.2,2.4-.3,1.6.3,2c2.1,1.6,2.1,1.6,1.7,1.9s.1,1,1.8,1.5,1.6,2.6-.7,2.4c-.8-.2-1.3-.1-1.4.2s-1,.6-1.6,0a2.2,2.2,0,0,0-1.1-.5c-.3,0-.6-.1-.6-.3s-.5-.3-1.6-.2a6.1,6.1,0,0,1-3.4-.5c-2.1-.7-6.1-.9-6.7-.3a4,4,0,0,1-2,.4,12.9,12.9,0,0,0-2.9.3c-1.2.3-1.2.3-1,1.7a6.4,6.4,0,0,0,2,3.9,2.4,2.4,0,0,1,1,2.3,1.6,1.6,0,0,0,.8,1.8,2.5,2.5,0,0,1,.9,1.1c0,.6,1.1.9,2.2.6s1.1,0,1.5.7.9,3.8.5,3.5l-1.9-.3c-1.4-.1-1.6,0-2,.7s-.3,1-.2,1.1-.2.3-.8.3-.9.1-.6.7.5.6.8.6.7.4,1,1a2.4,2.4,0,0,0,.8.9c.2,0,.3.3.3.7s.1.6.4.4a.6.6,0,0,1,.7.3,1.6,1.6,0,0,0,1.2.6c1,.2,1.2.5,1,1.9s0,1.3.1,1.3,1.5,2,1.3,2.7.5,2.3,1.1,2.2.5.2.4,1-.1.9.3.8,1.5.8,1.8,3,.4,2.3.5,2.6-.2.6-2,1-3.8.4-5.7-1a3.9,3.9,0,0,0-1.9-1c-1,0-1.8-1-2-2.4s-.1-1.3.2-1.5a2.4,2.4,0,0,0,.5-1.8c0-1.5,0-1.6.9-1.6s.9-.1.9-.3-.5-.3-1.1-.2-8.1-3.2-10.9-5.6l-2.1-1.8-1.7.2a3.7,3.7,0,0,1-3.2-.8,9.1,9.1,0,0,0-2.6-1.1,7.3,7.3,0,0,1-2.2-.9c-.9-.4-1.3-.5-1.9-.2l-.9.3.8.8a9.8,9.8,0,0,0,2.5,1.6A4.3,4.3,0,0,1,450,105c1.1,2.2-.3,3.2-4.8,3.4a11.7,11.7,0,0,1-3-.2c0-.2-.5-.3-1-.3a1.4,1.4,0,0,1-1.1-.4,1.3,1.3,0,0,0-.9-.1.7.7,0,0,1-.9-.5.9.9,0,0,0-1.1-.5.9.9,0,0,1-1.1-.4c-.5-.6-.8-.6-3.2-.4s-4.5,1-5.5,2.1-.9.4-2.6.2-3.4.1-2.6.9-.4,1.2-3.4,1.3a10,10,0,0,0-3,.3c-.1.2-.4.2-.6.1s-.5,0-.5.2a.5.5,0,0,0,.5.4c.3,0,.5.3.5.8s.2.9,1.2.8.3.2.2.6a1.3,1.3,0,0,0,.2.9,2,2,0,0,1,.2.9c.1.4,0,.5-.1.3s-1-.5-.9.3.4.8,1.2,1.1.9.4.6.4-.3.2,0,.7l.7,1c.2.1,0,.4-.3.6s-.5.4,1,.4.6,0,.1.1-.6.3-.6.5.3.3.5.1.5,0,.5.2.2.3.5.3a.5.5,0,0,0,.5-.4c0-.5,1.5,0,2.2.7a2.1,2.1,0,0,0,2,.6c1.2-.1,1.4-.3,1.3-1.5s2.5-.1,4,1.3,3.6.6,4.4-.6a1.5,1.5,0,0,1,2.2-.4c.5.4.8.3,1.3-.2s1.3-.4.5.4-.4.6-.2.8.2.6,0,1.1a1.7,1.7,0,0,0,0,1,4.3,4.3,0,0,1,.4,2.9,28.1,28.1,0,0,0-2,5.9c-.4,2-1.1,3-2.3,3h-1.8c-.9.1-1.1.3-1.1,1.1a8,8,0,0,0,1.4,4.5,2.4,2.4,0,0,1,.6,1.1,9.1,9.1,0,0,0,2.7,3.1l.7-.5a2.5,2.5,0,0,1,1.1-.4c.4,0,.6.2.6.4a.5.5,0,0,0,.4.5.3.3,0,0,1,.3.3,2.2,2.2,0,0,0,.6,1,12.8,12.8,0,0,1,1.2,1.9,9.3,9.3,0,0,0,1.2,1.8c.8.9,1.6,2.4,1.4,2.7s.9,2,1.3,2a.6.6,0,0,1,.6.5c.1.2.4.4.6.2s.2,0,.1.2.1.7.4,1.1a3.3,3.3,0,0,1,.7,1.3,1.1,1.1,0,0,0,.3.8c.2.1.3.6.2,1.4s-.1,1.3.3,1.6a1.4,1.4,0,0,1,.4,1c-.2.4.1.8.5,1.1a2.5,2.5,0,0,1,1,1.1,3.8,3.8,0,0,0,1.1,1.2c.5.3.9.7.8.8s.3.4.7.5a1.3,1.3,0,0,1,.8,1.4,1.9,1.9,0,0,0,.6,1.5,1,1,0,0,1,.5.7,7.2,7.2,0,0,0,1.2,1.5,4,4,0,0,1,1.2,1.7.4.4,0,0,0,.3.4c.2,0,.5.5.7,1s.3,1-.3.5-.6-.7-.5-.9,0-.2-.3-.1-.5.1-.4-.2a.5.5,0,0,0-.5-.5c-.4-.1-.5,0-.4.4s.2.6-.3,0-.6-.4-.6-.3,1.5,3.1,1.8,2.8,1.6,1.2,1.7,1.8a1.5,1.5,0,0,0,.2.8,25.4,25.4,0,0,1,1.4,4.7c.1,1.6.5,2.2,1.7,2.4s1.3.1,1.4-.1a1.1,1.1,0,0,1,.8-.2c.2.1.9-.2,1.4-.8a3.7,3.7,0,0,1,2.1-1c1.1,0,3.2-.7,3.6-1.3a2.2,2.2,0,0,1,1.2-.3,2.1,2.1,0,0,0,1.8-.8c.4-.6,1.6-1.2,3.3-1.8s4.7-2,4.5-2.5.4-1.6,1.7-2.1,2.8-1.2,3.9-1.2,1.7-.4,1.9-1.6.3-.8,1-.9,1.8-.6,1.8-1.4,1.2-1.6,2.1-1.6.7-.1.7-1.9.3-2.7,1.1-1.8.6.4,1-.1.4-1.4-.1-1.1-.3-.5.5-1.4a8.3,8.3,0,0,0,1.8-3.5c0-.3-.3-.5-.7-.5a.8.8,0,0,1-.8-.6c-.1-.4-.3-.7-.5-.7a.3.3,0,0,1-.3-.3c0-.7-1-1.4-2.5-1.6s-4.3-2.4-4.3-5.5-.4-2.4-1.1-1.1-4.5,5.2-4.9,5-.4,0-.4.2-.5.2-1.1.2-1.2-.3-1.2-.5-.1-.2-.3-.2a.4.4,0,0,0-.3.4c0,.8-.6.9-1.3.4a1.6,1.6,0,0,0-.9-.5c-.3,0-.4-.2-.2-.8s.2-3.8-.3-4.1-1.1-.3-1.5,1l-.4,1.3-.6-.9c-.7-1-.8-1.4-.3-1.4s.3.3.3.6.2.3.4.2.3-1.1-.4-1.3-.6-.3-.6-.5-.1-.4-.1-.6l-.7-.7a1.5,1.5,0,0,1-.7-1c0-.2-.2-.3-.4-.3s-.4,0-.4-.2-.3-.4-.6-.5a.8.8,0,0,1-.7-.7c0-.3-.1-.4-.2-.4s-1.7-3.1-1.5-3.8.1-.5-.1-.2a.5.5,0,0,1-.7.1c-.5-.3-.5-.3,0-.3a2.2,2.2,0,0,0,1-.6c1.1-1.1,1.4-1.3,2-1a1.4,1.4,0,0,0,1.1.1c.4-.1.8.2,1.3.9a4.3,4.3,0,0,1,.7,1.4.5.5,0,0,0,.3.5,6.6,6.6,0,0,1,1.2,1.7,3.6,3.6,0,0,0,2,1.9,7.4,7.4,0,0,1,2.1,1.3,3.1,3.1,0,0,0,1.5.9c.4,0,.4,0,.1.2s-.1.4.7.5,1.1.4,1,.6-.1.3.1.3.3-.2.3-.4.3-.2.7,0a1.3,1.3,0,0,0,1,.2,3.8,3.8,0,0,1,1.5-.3c1.3-.2,2.1-.7,1.8-1.2s1.1-.3,1.4.1a14.4,14.4,0,0,1,.6,1.7c.4,1.6,1.6,2.3,4.6,2.6a32.6,32.6,0,0,1,4.6.7c1.4.3,4.2.4,4.2.1s.6-.2,1.3-.1,1.3.1,1.3-.1.4-.3,1.1-.1a9.4,9.4,0,0,0,3.3-.1c2.4-.3,3-.2,3,.7s.2.7.6.7.7.3.8.9,1.1,2,1.7,2a2.6,2.6,0,0,1,1.4,1c1.4,1.3,2.7,1.9,3.9,1.7s1.1-.2.5.3a2.8,2.8,0,0,1-2.2.6c-.3-.1-.6.1-.6.3s4.5,4.8,5.1,4.8,4.1-2.3,3.3-3-.1-1.5.3-1.5.2.3.1.8,0,.8.2.8.3.2.2.3a2.2,2.2,0,0,0,.3,1.4,3.1,3.1,0,0,1,.3,2.1,9.1,9.1,0,0,0,.1,2.3c.9,2.9,1.5,5.2,1.9,6.9a28.9,28.9,0,0,0,1.6,4.2c.7,1.3,1.5,2.8,1.8,3.5a13.1,13.1,0,0,1,1,3,12.6,12.6,0,0,0,1.7,3.5c1.1,1.8,2.8,5.6,2.8,6.6a9,9,0,0,0,2.5,4,1.9,1.9,0,0,0,2.4-1.6,1.9,1.9,0,0,1,2.5-1.2c.5.2.7.1.6-.2a.8.8,0,0,0-.6-.4c-.6,0-.6-.3-.2-1.6s.5-.9,1.1-.9.7,0,.5-.9-.3-4.2.1-4.6.6-3.3.1-5.7-.5-4.4.8-4.1.8.1,1-.6.4-.8.6-.8a2,2,0,0,0,2.1-1.7c0-.5.1-.9.3-.9s3.7-3.3,4.8-4.9a7.3,7.3,0,0,1,2.2-2.1,7.7,7.7,0,0,0,2-1.3c.8-.7.8-1.1.7-2.7a1.1,1.1,0,0,1,.3-1l1.3-.6c.5-.3.7-.3.9.1s1.4.4,3.1-.1a6.2,6.2,0,0,1,1.8-.3c1.1-.1,2.5-1.1,2.2-1.7s-.1-.6.1-.7.3.1.4.5.3.6.5.5.7.5.7,1.4.7,2,2.2,3.6a4.5,4.5,0,0,1,1,1.6c0,.2.3.3.6.2s1.5.5,1.3,1.1a1.7,1.7,0,0,0,.1,1c.2.4.2.5-.1.5s-.3.1,0,.4.5.4.7.1.9-.1,1.6,1.5.6,1.9.5,3.9l-.2,2.4.9.3c1.8.5,2.4.4,2.8-.2a7.6,7.6,0,0,1,1.6-1.4c.8-.6,1.2-1.1,1.2-1.6s2.2,3.5,2.5,5.1a11.6,11.6,0,0,0,.6,2.2,3.7,3.7,0,0,1,.5,1.7c0,.5.2.8.4.8s.6.5.8,1,.5,1.6-.1,1.4-.4-.1-.3.3.3.5.5.5.1.5-.1,1-.4.9-.6.6-.3-.3-.3-.1a1,1,0,0,0,1.1,1,.9.9,0,0,1,.5,1.5c-.2.2-.5.2-.8-.1s-.5-.2-.5-.1.3.5.6.7.7,2.5.3,4.4.1,4.2.5,3.8,1.5-.5,1.5.3.1.7.3.3.4-.4.4-.1a4.6,4.6,0,0,0,.9,1.7c.9,1.1,1,1.3.5,1.5s-.5.4,0,.7.5.4.5-.2,0-.5.5.1a5.4,5.4,0,0,1,.4,2,2,2,0,0,0,.3,1.6,6,6,0,0,1,.5,1.6,4.5,4.5,0,0,0,1,2.2,2.7,2.7,0,0,1,.8,1.6c0,.5.7,1.1,2.4,2.3s3.1,2.3,3,2.8,0,.3,0,.1,1.2-.2,1,.3-.1.5.3.4.4,0,.4.4.2.7.4.7.3-.3.2-.7-.1-.6.2-.3.5.2.7,0-.1-1-1.1-1-.7-.1-.3-.2.6-.4.6-.6-.1-.4-.2-.4-.3-.2-.3-.6a5.8,5.8,0,0,0-1-1.9c-.7-1-.8-1.4-.8-3.5a12.2,12.2,0,0,0-.4-3.3c-.3-.9-2.9-3.7-3.4-3.7a2.3,2.3,0,0,1-.8-1c-.4-.7-.8-.9-1.2-.8s-1.8-.7-2.3-2.4a9.6,9.6,0,0,0-.7-2.1c-.5-.4-1-2.4-.6-2.4s.3-.8,0-1.2-.3.1-.3.5-.9,1.3-1.3.7-.1-3.3.5-5.5a14.3,14.3,0,0,0,.6-3.7c.1-1.9.1-1.9,1-2s.9-.1.9,1.1,0,1.3,1.1,1.3,2.4.6,2.4,1.3.2.4.6.3.7.3,1.1,1.1.5,1.3.6,1.5,1.1,1.7,1.6,1.7.2-.2.1-.4-.1-.3.1-.1.3.4.4,1.3.7.6.7-.2,0-.7.6-.2l1.1.7c.5.2.6.3.3.5s-.5,3.9.1,3.9.6-.3.8-.7a10.3,10.3,0,0,1,1.8-1.4,3.4,3.4,0,0,0,1.9-2.9c0-.2.2-.3.4-.2s2.2-.8,3.3-1.8a3,3,0,0,1,1.2-.8c.4,0,.8-1.6.6-2.9s0-.8.2-.7.3-.2.3-.5a1.2,1.2,0,0,0-.3-.8,3.4,3.4,0,0,1-.5-1.7,8.9,8.9,0,0,0-.7-2.6,3.4,3.4,0,0,1-.5-1.4,3.6,3.6,0,0,0-.9-1.5,2.9,2.9,0,0,1-1-1.3c0-.2-.3-.5-.6-.6s-4.6-3.9-4.6-4.3a4.4,4.4,0,0,0-1.1-1.5,3,3,0,0,1-1.1-2.6c0-1,.2-1.5.4-1.6s.7-.7,1-1.3.7-1.1.8-1,.4,0,.5-.3a.7.7,0,0,1,.6-.4c.2.1.3-.1.3-.4s2.2-1.5,3-1.1l1.4.2c.6-.1.7,0,.5.4s.9,3.1,1.6,3.1,1-.7.5-1.6-.2-.7,0-.5.3-.1.3-.5.2-.7.5-.7h1.4c.2,0,.3-.2.2-.4s-.1-.3.1-.2a.5.5,0,0,0,.6-.1c.1-.2.5-.2,1,0s1.5.4,1.3-.2-.1-.4.1-.3.3,0,.3-.1.2-.3.4-.2.9-.5.7-1.5-.1-.7.3.1,1.5,1.3,1.5.6a3.2,3.2,0,0,1,1.3-.9c.8-.4,1.3-.6,1.1-.4s0,.3.2.3a.3.3,0,0,0,.3-.3.3.3,0,0,1,.3-.3c1.1.2,1.8-.1,2.1-1a1.8,1.8,0,0,1,1-1.1,2.5,2.5,0,0,0,1.3-1.2c.4-.5.8-.9,1-.9s1.2-1.2.9-1.7-.1-.3.1-.2,1.1-.5.8-.8.1-.2.5-.2.7-.2.7-.5-.1-.5-.2-.4-.8-1.1-.4-1.5.2-.5.1-.6,0-.3.2-.3.3-.2.3-.6a1,1,0,0,1,.4-.8c.2-.1.3-.6.3-1s.3-1.7.8-1.7a.5.5,0,0,0,.5-.5,3.7,3.7,0,0,0-.1-2.2c-.2-.4-.1-.5.1-.5s.4-.6.5-1.9-.1-2-.3-2a.3.3,0,0,0-.3.3,1.5,1.5,0,0,1-.1.6c0,.6-.5.7-1,.2a1.5,1.5,0,0,0-1.3-.4c-1.1.3-.7-.6.6-1.1s1.1-.8.6-1.1-.3-.3-.2-.4-.2-.4-.7-.5-1.6-1-.9-1.3.5,0,.4.2a.5.5,0,0,0,.4.5c.1.1.3-.1.3-.3s-1.1-1.4-2.7-2.5a2.6,2.6,0,0,1-.8-1.1,10.5,10.5,0,0,0-4.2-4.4c-1.5-.7-1.6-.8-1.4-1.6a4.8,4.8,0,0,1,1.1-1.7c1-1,1.2-1.5.6-1.1s0-.2.6-.8a3.4,3.4,0,0,1,2-1c.8,0,1-.1,1-.7s-.2-1.1-2-1.3a9,9,0,0,1-2.2-.5c-.6-.4-2.4-.2-2.2.2s0,.5-.3.8-.6.6-1.2.3a1.2,1.2,0,0,1-.8-.9,1.9,1.9,0,0,0-1.9-1.7c-1.5,0-2.7-.8-2.7-1.9s.2-.8.6-.6a1.6,1.6,0,0,0,2.2-1.1,2.9,2.9,0,0,1,1.1-1.4c.6-.4,1-.9,1-1.1a1.3,1.3,0,0,1,1.7-1.1c1.3.2,1.7.9,1.2,1.9s-.6,1.5.1,2,.5.5.1,1-.4,1,.1,1a5,5,0,0,0,1.6-1.4,3.6,3.6,0,0,1,2.7-1.4,7.2,7.2,0,0,1,2.1,0,1.5,1.5,0,0,0,.8.2l.9.3c.5.3.6.7.6,2.5s.1,2.1.3,1.7.4-.4.4-.2,1.5,1.2,1.8.8h.8c.3.2.6.3.6.2s.3.1.8.4,1.1,1.4.5,1.4-.4.5.6,1.5,1.6,1.9,1.4,2.2a2.8,2.8,0,0,0,0,2.2,1.1,1.1,0,0,1,.4.9c0,.7.1.8,1.5.7a3.4,3.4,0,0,0,1.5-.4.8.8,0,0,1,.7-.3c.4,0,.7-.2.7-.4s.2-.2.4-.1,1.8-1,1.8-1.9-1.9-4.6-3.4-6.1l-2.2-2.1a10.5,10.5,0,0,0-1.9-1.5,6.1,6.1,0,0,1-1.7-1.4c-.5-.7-.4-.8.4-1.3a4.6,4.6,0,0,0,1.7-1.7c.8-1.1.9-1.3.4-2.1s-.4-2.6.2-2.5.4-.2.4-.6.1-.6.3-.5.4-.2.6-.7.3-.7.3-.4.2.3.6-.2.4-.5.4-.1,2.3,1.4,3.3,1,2.9-2.5,2.9-3.3a20.6,20.6,0,0,1,1.2-4.6,10.2,10.2,0,0,0,.3-3.3,23.2,23.2,0,0,1,.3-3.7c.3-.6.2-1.2-.4-2.6a16.6,16.6,0,0,0-1.2-2c-.2-.1-.3-.3-.1-.4s-.1-.5-.5-.7-2.4-4.3-1.6-4.3,3.2,2.1,3.4,2.8a6.9,6.9,0,0,0,1.3,1.7,17.8,17.8,0,0,1,1.7,2.7,10.6,10.6,0,0,0,1.7,2.3,5,5,0,0,1,1.3,1.9,2.4,2.4,0,0,0,.6,1.2c.2,0,.5.5.7,1.1a6.3,6.3,0,0,0,1.3,2l1,.9-.2-1.1c-.2-1.2-.2-1.2.7-1a3.2,3.2,0,0,1,1.4.8c.5.6.6.6.6.2s-1-1.9-1.5-1.9a2.1,2.1,0,0,1-1.1-.8l-1.7-1.2a5.3,5.3,0,0,1-1.3-2,9.7,9.7,0,0,0-.7-1.9c-.3-.9,1.2-.7,2.8.2s1.6,1,1.6.6l-1-.9a12.4,12.4,0,0,1-2.4-1.9l-4.2-3.9a28.6,28.6,0,0,1-3.3-3.5c-.5-1.1-1.8-2.5-2.2-2.5a2.5,2.5,0,0,1-1.1-.9c-1.2-1.3-1.8-1.7-2.4-1.5s-.3.4.5.9,1,.6.4,1.2-.5.7-.1,1.1,1.7,2.1,1.5,2.3-1.8-1.6-1.8-2.1-.9-.8-2-1.3a27.3,27.3,0,0,1-3-1.5c-1-.6-3.9-.8-3.5-.3s-.1,1.8-.6,1.8-.3-.3-.3-.6-.2-.7-.5-.7a.6.6,0,0,1-.5-.6c0-.4-.1-.7-.3-.7s-.3-.2-.2-.4-.9-1.6-1.6-1.3a1.9,1.9,0,0,1-1,.1.7.7,0,0,0-.6.3c-.2.3.7.5,2.3.4s.4.1.2.2-.3.3.1.8.4.6.2.6-.2.3-.1.7-.1.3-.5-.4-.8-1.2-2.3-1.3-2.8-.4-1.6-2,1.9-2.8,1.5-2.9,1-3.2,1.4-3.2.1-.3,0-.8-.2-.8.1-1a.9.9,0,0,0,.5-.9,1.1,1.1,0,0,1,.7-1.1c1-.4,5.7-.5,5.9-.1a1,1,0,0,0,.8.4c.4,0,.6-.1.5-.3a6.8,6.8,0,0,1,2.5-.1c2.4.1,2.6,0,2.4-.6s0-.6.4-.5a15.4,15.4,0,0,0,3.1.6,2.3,2.3,0,0,1,1.1.1c.6.1.6.3.3.6s0,.8,1.1.8,3.1,0,3.1-.3.4-.3.9-.2a4,4,0,0,0,1.9-.1c1.1-.4.8-.8-1.3-1.3s-1.7-.8-1.1-2.3a12.9,12.9,0,0,0,.4-1.9c0-1,.1-1.1,1.3-1.2h3.5c.6,0,.9.2.9.5s1.2,1.8,1.6,1.6.6.1,1,.6.6.5.6.2.1-.3.2-.2.4-.2.6-.8.5-1.1,1.3-1.2,1.2-.7.5-.7a3.2,3.2,0,0,1-1.2-.9c-.8-.8-.8-.8-.1-1.1s1.7,0,1.4.4,1.5,2.6,2,2.6.4,1-.4,1.8a1.4,1.4,0,0,0-.6,1.4,1.6,1.6,0,0,1-.2,1.2,1.6,1.6,0,0,0-.1,1.4c.2,1.2-.3,2.6-1,2.6s-.4.1-.4.3-.4.3-.8.3-.7,0,.1.8a1.8,1.8,0,0,1,.8,1.6c-.3,1.3,1.4,3.5,5.1,6.7a38.4,38.4,0,0,1,2.9,2.7l2.8,2.4a15,15,0,0,1,2.2,2,12.9,12.9,0,0,0,1.7,1.6l.9.6.6-1c.5-1.1.4-2.6-.4-3.2s-.6-1.5,0-1.7h1.2c.6.1.5-.1-.7-1.1s-1.3-1.4-1.1-2,.3-.7,1.3-.5,1.2.1,1-.4-.6-.9-1.3-1.4-2.8-3.3-1-2.5.9.3,1,.2-1.2-1.9-1.8-1.9-2.3-1.4-2.3-2-1.2-1.3-2.1-1.1a2,2,0,0,1-2.2-2.3c.2-.7,0-1.1-.7-1.8s-.8-1,0-.9l.9-.3c.3-.2.6-.2.4,0s.1.3.3.5a.6.6,0,0,0,.7-.8c-.4-.6.8-.5,1.4.2s1.3.8,1.3-.2,3-1.3,5.5-.2,2.2.9,1.7,0-.1-.7.4-1.3a3.1,3.1,0,0,0,1-1.6,1.7,1.7,0,0,1,1.1-1.1c.5-.1,1-.4,1-.6a.4.4,0,0,1,.4-.4,1.4,1.4,0,0,0,.9-.5c.4-.5,1.7-.5,4.2.1.8.2.9.1.9-.5a1.1,1.1,0,0,0-.7-.9l-1.2-.6-1.3-.7c-1.3-.4-4.8-2.5-4.8-2.8a2.1,2.1,0,0,1,.6-.9c.8-.9.3-1.7-1.4-2.2s-1.1-.5-1-.6,1,.1,2,.6a8,8,0,0,0,4.1.9,6.7,6.7,0,0,1,3.9.8,7,7,0,0,0,2.3.9l2.7.6c1.8.6,2,.6,2.3.1s.3-.5.1,0,.6.8,1.5.3.3-.4-.3-.6-.6-.3-.5-.4,0-.3-.2-.3a2,2,0,0,1-.9-.6c-.7-.7-.7-.7.1-.8s1-.3,1-.5,0-.4-.3-.3-.5.1-.4-.2-.2-.6-.7-.9a30.1,30.1,0,0,0-9.4-2.2,7.9,7.9,0,0,1-3.8-.8c-1.7-.9-16.2-4.5-20.9-5.3-1.6-.2-4.2-.5-5.7-.5a79.2,79.2,0,0,1-8.5-.7c-.6-.2-.5-.1.2.6a3.2,3.2,0,0,0,1.2.9l1.5.7,1.2.7h-.9a1.7,1.7,0,0,1-1.3-.2,4.7,4.7,0,0,0-1.9-.6,5,5,0,0,1-1.7-.4c-.1-.2.2-.2.5-.1s.7,0,.7-.2a.3.3,0,0,0-.3-.3h-2.5l1.2-.3,1.1-.2h-1c-2-.2-2.2-.2-2.2.3s-.4.5-1.5.5c-2.6-.1-8.5-.2-9-.1s-3.9-.4-3.9-.9-1.5-1.3-4.1-1.9-3.2-.5-7.2-.3-5.3.1-6.2-.3a9.7,9.7,0,0,0-2.7-.7c-2.2-.2-3.1-.5-2.8-.8s-5.9-1.7-6.9-.9-.5.3-.3,0-.4-.6-6.4-1.2-6.4-.6-5.3,0l.8.5h-1.2c-1,0-1.2.1-1.1.5a1.6,1.6,0,0,0,1.1.5c.4,0,.7.1.5.2s.2.4.7.6l.9.5-.9-.2a5.6,5.6,0,0,0-1.7-.2h-2.6a14.7,14.7,0,0,0-2.8.3,4,4,0,0,1-2.2,0l-2.1-.4c-.4,0-.6-.1-.5-.3s-.1-.2-.3-.2-.3.2-.2.5c.7,2.2.7,2.1-.4,1.9a13.1,13.1,0,0,1-5.4-2.7,3.3,3.3,0,0,0-1.6-1,.4.4,0,0,1-.4-.4c0-.9-5.9-2.6-6.3-1.8a.5.5,0,0,1-.6,0,3,3,0,0,0-1.2-.3l-2.2-.4c-1.1-.3-1.5-.3-1.6,0s-.2.2-.4.1-.3,0-.3.2.3.5.6.7.7.5.7.6-2.7.1-5.8-.1l-2.4-.2c-.5,0-.6-.1-.2-.3s.3-.4.1-.5-8.3-.3-8.7-.1-2.7-1-2.7-1.6-.4-.4-1.5-.4-1.5.1-1.6.6-.4.5-.8.4a2.1,2.1,0,0,0-1.1.1c-.4.1-.5.3-.2.6s.2.6-.8.8-3.1.5-2.9.1a1.3,1.3,0,0,1,1-.4,1.3,1.3,0,0,0,1-.4,9.1,9.1,0,0,1,3.1-1.9,4.3,4.3,0,0,0,1.7-1.2c.3-.7-1.1-2-2.1-1.9s-.6.1-.4,0,.3-.2-.1-.6-1.2-.5-.9-.1-.3.4-.9-.2-1.3-.6-4.6-.6a23,23,0,0,0-4.7.3c-.5.2-.7.1-.6-.2s-.3-1.6-.9-1.6-.4.2-.3.4-1,.4-1.9-.2S527.8,15.8,526.8,16.2ZM551.9,24c.3.2.2.3-.6.3s-1-.2-1-.3S551.2,23.5,551.9,24ZM501.1,36.3c.7.8.4,1-.5.3a3.1,3.1,0,0,0-1.2-.7.7.7,0,0,1-.6-.3C498.5,35.1,500.5,35.7,501.1,36.3Zm201.3,4.4c.1.2,0,.3-.3.2s-.7-.5-.2-.5A.9.9,0,0,1,702.4,40.7Zm-6.1,5.5c.2.5-.5.5-1.2,0s-.3-.3.3-.3S696.2,46,696.3,46.2ZM584,69.7c1.3,3,1.5,3.6,1.1,4.2s-.4.5-.2,0,0-.6-.1-.6-.3.3-.3.7.2.6.5.6.5.1.2.3a1.5,1.5,0,0,0-.5.9c-.1.4-.8.8-1.6,1.1s-1.4.6-1.3,1.4-.1.8-1.2,1.2-1.5.3-2,0-.7-.3.2-.3,2.1-.8,2.1-1.4a2.1,2.1,0,0,1,.7-.9c.3-.4.6-.9.5-1.2a.7.7,0,0,1,.2-.7c1.1-.6,1.4-3.2.7-5.6S583.6,68.7,584,69.7ZM522,93c.1.2,0,.3-.3.5a.8.8,0,0,0-.5.7.5.5,0,0,1-.5.4c-.3,0-.5.4-.5,1s0,1-.4.7-.7-2-.1-2,.3-.1.2-.2.8-1.3,1.4-1.4A.8.8,0,0,1,522,93Zm1.9-.1h-.8c-.2-.1-.1-.1.4-.1S524.1,92.8,523.9,92.9Zm4.4.4c.4.3.2.3-.5.2s-1.4-.5-.6-.5Zm1.9,0q0,.3-.6.3t-.6-.3c0-.1.2-.3.6-.3S530.2,93.2,530.2,93.3Zm-38.8.6h-.6c-.2-.1-.1-.2.2-.2S491.6,93.8,491.4,93.9Zm-2.5,1.4a.3.3,0,0,1-.3.3c-.2,0-.2.2-.1.3s.4.3.8.2.6,0,.8.6a2.7,2.7,0,0,0,.6,1.2c.4.3.4.5,0,1.3s-.7.9-1,.8l-1-.2c-.3,0-.4-.5-.4-1.7s-.1-1.9-.3-2-.2-.4.1-.7S488.9,94.8,488.9,95.3Zm-1.1,1.6c.3,1.1-.2,1.4-.7.5s-.5-1.1,0-1.1A.7.7,0,0,1,487.8,96.9Zm-1,2.5c-.2.2-.8-1.4-.7-2.1s.2,0,.5.7A2.8,2.8,0,0,1,486.8,99.4Zm-8.8,7.2a5.3,5.3,0,0,0,1.4,1.7c.5.5.8.8.6.7a.7.7,0,0,0-.9.4c-.4.4-.6.4-.7.1a1.5,1.5,0,0,0-.8-.3c-.9,0-1.5-.9-1.6-2S477.4,105.5,478,106.6Zm-40,36.9a.5.5,0,0,1-.4.5c-.1,0-.2-.2-.1-.5l.3-.5C437.9,143,438,143.3,438,143.5Zm124.2,24.4v.3l-.4-.3c-.1-.2,0-.3.1-.3S562.2,167.7,562.2,167.9Zm-104.8,9c.1.1,0,.2-.2.2s-.4-.1-.3-.2l.3-.3Zm151.4,15.5a.3.3,0,0,1-.1.5c-.2.1-.4,0-.4-.3S608.5,191.9,608.8,192.4Zm6.8,2.9c.3.4.4.7.2.7s-.5-.3-.7-.7-.3-.6-.2-.6Z"/><path class="cls-3" d="M597.7,23.3c0,.5.9,1.1,1.5.9s.7-.1.9.3-.1.4-.5.4-.6.2-.4.4.5.2.9.2a13.6,13.6,0,0,1,3.4.1c2.6.3,3.5.2,2.6-.3a13.2,13.2,0,0,0-4.9-1.3,3.8,3.8,0,0,1-1.7-.5C598.8,23,597.7,22.8,597.7,23.3Z"/><path class="cls-3" d="M669.3,96.4q0,.4-.3.3c-.2-.1-.3,0-.3.2s.2.3.4.2,3,2.8,2.6,3.8a.6.6,0,0,0,.2.7c.7.4.3.7-.6.5s-1.5-.1-.8.6.5.6.1.8-.5.6-.5,1.2,0,.9.1.7,1.6.4,1.8,1.4,1.1,1,1.4.3a.7.7,0,0,1,.6-.5c.9,0,.5-.6-.8-1.2a3.5,3.5,0,0,1-1.3-.8c0-.4.5-.3.9.1s.5.2,1-.1.9-.3,2.4.3,2,.7,2.2.5.3-.1.2.1-.1.4.1.4.3-.3.2-.7.1-1.9,1.2-1.9,2.1-.6,2.1-1.2-.2-.3-.5-.1-.5-.1-.4-1.3.2-1.4.5-1.3.4,0,.4-.2-.3-.4-.6-.5-.7.1-.9,1.1-.7,1.5-.7.1-.5-1-.8-.1-.3.6-2.6-.2-3.6-1.5-4-2.1a17.1,17.1,0,0,0-2.9-1.6C669.5,95.9,669.3,96.2,669.3,96.4Z"/><path class="cls-3" d="M674.2,107.4c0,.3-.2.4-.4.3s-.3,0-.2.6.1.9-.1,1-.2.4.2.8a1.5,1.5,0,0,1,.3,1.1c-.2.4-.1.5.3.5s.6.3.8.7.6,4,.2,4.5-.5.6-.5,1.5-.4.6-.9.9a2.6,2.6,0,0,0-1.1.7c-.3.4-.9-.5-.7-1.2s-.2-1-.9-.5-.5.5-.1,1.2.5.6.5.3,0-.3.1-.3-.5,1.9-.8,1.9-.3,1.2,0,1.4.2.3,0,.5-.3.4-.7.1-.9-.4-2.1,0l-2.4.3c-1.3-.2-1.9,0-1.9.4a6.2,6.2,0,0,1-2.3,2.6,1,1,0,0,0-.6.8,1.5,1.5,0,0,1-.4,1l-1.1,1-.8.6.9,1c.5.5,1,.9,1.2.7s.2,0,.1.2.2.9.7,1.6a4,4,0,0,1,.9,1.7c0,.3.3.5.7.6a.7.7,0,0,1,.7.5c0,.2.4,0,.8-.5s.7-1.1.6-2.9a12.3,12.3,0,0,0-.1-2.4c-.1-.8.1-.8,1,.1s2.1,1.4,1.8.5a1.4,1.4,0,0,1,.9-1.7c.3,0,.5.1.5.3s.5.3.9-.5a2.2,2.2,0,0,0,.2-1.3.5.5,0,0,1,.2-.6c.2-.1.3,0,.3.2s1.3,1.8,2.1,2,.7-.2.9-1,.5-1,.7-1,.6-1-.1-1.2-.7-.3-.7-.5.3-.2.7-.1.6.3.6.4a3.2,3.2,0,0,0,1.5.2c1.3,0,1.4,0,1.4-.8v-.8l.5.9c.5,1,1.2.9,1-.3s.4-1,1.1-.2.6.4,1.1,0,.4-.7.3-.9-.1-.5.1-.8.2-.6-.3-1.1a3.1,3.1,0,0,1-.7-1.4c0-.4-.1-.9-.1-1.2s-.1-.7-.1-1a2.8,2.8,0,0,0-.7-1.3,2,2,0,0,1-.6-1.1c0-.4.1-.4.6-.3s.6.1.6-.1-.1-.4-.3-.4a2.9,2.9,0,0,1-.3-1.6c0-1.5-.1-1.7-2.1-3.7a9,9,0,0,1-2.1-2.7.5.5,0,0,0-.5-.4l-.9-.2C674.3,106.9,674.2,107,674.2,107.4Zm1.6.9c0,.1-.2.2-.5.3s-.5.1-.5-.1.2-.3.5-.3Zm-5.9,18.1c.2.7,0,.9-1,.6s-.8-.3-.5-.6S669.6,125.8,669.9,126.4Zm-2.4,1c-.2.5-1,.6-1.2.2s.2-.5,1.2-.7S667.6,127.1,667.5,127.4Zm-2.8.5c-.1.3-.2.2-.2-.2s.1-.5.2-.4A.6.6,0,0,1,664.7,127.9Zm.9.2c-.2.9-1,1.7-1.5,1.7s-.2-.2-.2-.4-.3-.4-.9-.5-1.1-.3-1.1-.4.6-.3,1.6-.2,1.6.2,1.8-.4S665.9,127.1,665.6,128.1Z"/><path class="cls-3" d="M435.2,123.5a3.2,3.2,0,0,1-1.8.5c-.7,0-1.3.1-1.3.3s-.2.3-.6.3-.7,1.1.5,1.6,1,.4,1.8-.2a4.1,4.1,0,0,1,1.2-.7c.2,0,.3-.2.2-.5s.1-.6.5-.9.9-.9.4-.9A2.8,2.8,0,0,0,435.2,123.5Z"/><path class="cls-3" d="M647.8,171.2c-.3.4-.2,5.1.1,6.2s.1.6-.3.1-1.2-.3-.3,2.4,1.4,2.8,2,2.8.3-.2.3-.5.1-.4.3-.3,0,.5-.3,1-.2,1.9.4,1.6a.2.2,0,0,1,.3.1c0,.6-1,.5-1.2-.1a.8.8,0,0,0-.7-.5c-.3,0-.1.4.5,1.2a22.2,22.2,0,0,1,1.5,2.3c.7,1.3,1.2,1.6,1.7.9a2.3,2.3,0,0,0-.5-2.8c-.6-.5-.6-.5.1-.9s1.9-.2,1.1.3-.3.4.1.8.5.5.8,0,.4-.5.7.1.5.4.6.3.1-.6-.2-.9-.1-1,1.4.6,1.5,2,.8,2-.2-.1-.2-.3-.8-1.6-1.1-1.6-.3,1,.2,1.1.5.7.5,1.6.1,1.1.3.8.4-.3,1,.1,1.4.7.8-.4-.4-1.1-.2-1.3a3.4,3.4,0,0,0,.4-1c.2-.7,0-1-.7-1.3s-1.3-.9-.5-.9.5.1.5.3.4.4,1,0,.3-.4,0-.9-1-.9-1-.2-.1.4-.9,0-1.1-.5-1.3-.4-.4,0-.5-.3-.5-.5-1.6-.3-1.4.1-1.6-.3.2-.6,1.3-.6.4-.1.4-.2-1.1-1-1.6-1-.8-.5-.7-1.7.3-.9.7-.9,1.2-2.7.5-3.8a3.9,3.9,0,0,1-.5-2c0-1.3-.1-1.3-1.1-1.1a1.6,1.6,0,0,1-1.3-.2A1.7,1.7,0,0,0,647.8,171.2Z"/><path class="cls-3" d="M659,188.2a1.9,1.9,0,0,0,.9,1.3c.6.4.9.9.8,1.2s-.2.3-.6-.1-.8-.4-.6,1,.4,1.1.7,1.1.4.4.4,1a1.2,1.2,0,0,0,.9,1.3c.5.2,1,.5,1,.7a2.3,2.3,0,0,0,.2,1.1c.1.6.1.7-.6.7s-.8-.1-.8-.3a.4.4,0,0,0-.4-.3c-.1,0-.2.4-.1,1.1s.1.9-.2.7-.4,0-.5.5-.4.8-1.1-.1-.7-.7-1.4-.3-.9.6-.9.9-.3.5-.8.5-.8.1-.9.3-.2.9-.4,1.4a2.7,2.7,0,0,0-.2,1.4.5.5,0,0,0,1-.2,2.7,2.7,0,0,1,.5-1.1c.5-.7.5-.7.5,0s.5,1,.8.4a.8.8,0,0,1,.7-.1c.3.1.5,0,.5-.5s0-.6.6-.4.6.7.6,2,0,1.8.9,2.4a3.8,3.8,0,0,0,1.6.9c.4,0,.6.4.7.8s.8.8.9,0a2.2,2.2,0,0,1,.3-1,1.9,1.9,0,0,0-.2-1.4c-.6-1.2-.5-1.5.1-1.6s.6.1.6.5a2.4,2.4,0,0,0,.5,1.2c.4.6.4.5.5-.6s.1-1.3.3-1.4.3-.5.3-.8-1.4-5.8-1.7-5.6-.2-.3,0-1,.1-1.2-.4-1-.6,0-.7-.5-.8-.8-.8-.1a.5.5,0,0,1-.5.5c-.4,0-.4-.2-.2-.4a1.4,1.4,0,0,0,.1-1.1c-.4-1-.4-1.2.6-1h1l-.6-1a4.1,4.1,0,0,1-.7-1.8c0-1.3-.5-1.7-1.9-1.8S659,187.7,659,188.2Z"/><path class="cls-3" d="M653.2,189.8a.9.9,0,0,0,.3.5c.2.1.3,1,.2,2s0,2,.7,1.3.5-.3.6,0a.5.5,0,0,0,.6.2c.7-.3.6.6-.2,1.3s-.5.6-.2,1.2a1.4,1.4,0,0,0,.8.6c.2,0,.4.3.5.5s.8.6,1.2-.6.5-1.2.7-1.2.2.2.1.4.8.4,1.6.1.6-1.3-.3-1.8-.8-.6-.8-1.6-.1-1.3-.6-1.3-.7.2-.7.4-.3.3-.6.3-.6-.2-.4-.8,0-.8-.6-.8l-1.6-.5C653.5,189.4,653.2,189.4,653.2,189.8Zm5.1,3c-.1.3-.2.2-.2-.2s0-.5.1-.4A.6.6,0,0,1,658.3,192.8Zm-.3,2.4c0,.1-.1.1-.3-.2a2,2,0,0,1-.3-.8c0-.2.1-.1.3.1A1.9,1.9,0,0,1,658,195.2Zm.6-.1c-.1.2-.2.1-.2-.2s0-.6.1-.5A.8.8,0,0,1,658.6,195.1Zm-1.3.6c-.1.3-.2.2-.2-.2s.1-.5.2-.4A.6.6,0,0,1,657.3,195.7Z"/><path class="cls-3" d="M647.2,192.1a5.2,5.2,0,0,1-.9,2c-.3.5-.5,1.1-.4,1.2s.1.3,0,.3-2.9,2.4-3.2,3.2-.1.9.1,1.1.4.3.4,0a10.4,10.4,0,0,1,1.6-1.9,7.4,7.4,0,0,0,1.6-2,3.8,3.8,0,0,1,2.1-2c.8-.2,1-.8.2-1s-.7-.5-.7-1.1.2-.7.3-.6.4,0,.4-.1-.3-.3-.7-.3S647.3,191.2,647.2,192.1Z"/><path class="cls-3" d="M550.7,195.7c-.1.2-.1.5.1.5s.4.4.4.8-.1.5-.5.4-.4-.1-.4.1.1.4.3.4.4,1.4,0,1.8.3,4.7.8,5.9,1.5,1,2.6.5,2.1-1.4,2.1-2.8-1.3-4.4-2.2-5.1a1.5,1.5,0,0,1-.4-.8,5,5,0,0,0-2.2-2.1A.8.8,0,0,0,550.7,195.7Z"/><path class="cls-3" d="M642.3,202.4a6.4,6.4,0,0,0-.8,1.4c-.2.6-.5,1.2-.7,1.2s-.4.4-.6.9a3.3,3.3,0,0,1-1.1,1.5c-.6.4-.7.6-.4,1s.2.5-.5.5a1.7,1.7,0,0,0-1.3.5,2.5,2.5,0,0,1-1.2.4c-.4,0-.6.3-.6.7a5.3,5.3,0,0,1-1.3,2.2,3.6,3.6,0,0,1-2.7,1.8,2.9,2.9,0,0,0-1.6.5c-.2.2-.4.3-.5.2s-.5,1-.4,1.8-.1.6-.3.9-.4.6-1,.3a1.7,1.7,0,0,0-1.3-.3,1,1,0,0,1-.8-.4c-.2-.8-1.1-.2-1.8,1.1s-.5,2.2,0,5,.9,3,1.7,2.8.7,0,.6.9.1,1.8.2,2.6.2,1.6,2.7,1.6,1.4.1,1.4.6.5,1.1.8.6a.8.8,0,0,1,.7-.1,1.5,1.5,0,0,0,1.3-.5c.4-.4.7-.5.7-.3s.2.3.5.3.5.2.5.4.3.2.7.2,1.5,0,1.5,1,.2,1.2,2,.2l1.4-.8.4.7c.4.7.4.7.8-.2a4,4,0,0,0,.1-1.5,3.3,3.3,0,0,1,.4-1.8c.4-.8.4-1.3.2-1.3s-.1-1.5,1.1-2.6a4.4,4.4,0,0,1,1.4-1.1c.2,0,.2-.7.1-1.7s.3-3,1.9-2.9,1.8-.5.3-1.9-1.4-1.3-1.2-1.8a2,2,0,0,0-.4-1.6c-.6-.9-.7-1.1-.3-1.9s.2-.9,0-1.1.1-1.1,1.3-1.5,1.4-.7.4-.9-1.1-.8-.2-.8,1.9-.6,1.9-1-.3-.5-.7-.6a9.3,9.3,0,0,1-2.2-1.4l-.6-.2c-.3.1-.5-.1-.4-.5a1.9,1.9,0,0,0-.7-1.4c-.4-.4-.7-.9-.6-1.2S642.8,202,642.3,202.4Z"/><path class="cls-3" d="M589.1,207.3c-.6,1,.4,2.4,4.2,6a5.4,5.4,0,0,1,1.8,2.4c0,.3.7.9,1.5,1.5s1.4,1.1,1.3,1.3,1.1,3.9,1.7,4.1,3.3,4.6,3.4,6.2,1.1,2.2,2.5,3.6a3.2,3.2,0,0,1,.9,1.2,35.6,35.6,0,0,0,2.9,3.1c2.8,2.8,2.9,2.8,3.9,2.4s1.1-.2,1.5.2.4.6.1,1.3-1,1.2-1,.5-.4-.1-.5.5.3.5,1.2.5,2.2.7,2,1.3.4.3,1.1.4l1.9.5c1.1.5,1.7.7,1.9.5s2.9,0,4.1.5,6,1.4,6.9,1.1.5,0,.5.2.2.3.4.2a3.8,3.8,0,0,1,1.4.4c1.4.6,1.8.5,1.5-.2s0-.6.5-.5a1,1,0,0,1,.7.9c0,.7,0,.7.5.1s.4-.5.4-.3.6.5,1.3.6l1.8.4a3.7,3.7,0,0,0,2.3-.1c.9-.3,1.4-.5,1.1-.5s-.3-.1-.2-.2a.5.5,0,0,1,.6.1,1.8,1.8,0,0,0,2.2-.1c.3-.4.5-.4.8-.1s5.3.6,7.2.1l2.2-.5.9-.2a.8.8,0,0,1,.8-.1,4.5,4.5,0,0,0,2.8-.4c.5-.5-.3-.6-3.3-.4-.8,0-1.7-.1-1.8-.3s-.5,0-.9.6a1.6,1.6,0,0,1-1,.7,11.8,11.8,0,0,0-4.3-.6c-1,0-1.6.1-1.8.4s-.3.4-.3.1-.3-.4-.6-.2-.8,0-.9-.2,0-.3.2-.3.2-.2.1-.4-.2-.2-.4,0-1.5.3-1.8,0-1.8-.3-2,.2-.4.5-.6.4a.4.4,0,0,0-.6.2c0,.3-.3.2-.7-.2s-1.2-.6-1.6.4-.5.7-.7.7-.6-.5-.1-.8-.9-1.3-1.5-1-1.4-.1-1.4-.7-.1-.5-2.3-.6-1.4-.1-1.5-.5,0-.6.5-.5,2.7-.4,2.5-.9-1-.3-2.3-.2a8.5,8.5,0,0,1-3.3-.4,1.6,1.6,0,0,0-1.2-.3c-.1.1-.4-.1-.6-.4s-.5-.6-1,.2a1.3,1.3,0,0,1-1.4.7h-2.2c-1,0-1.3-.2-1.6-.7a1.3,1.3,0,0,0-1-.8l-1.8-.6c-.6-.4-1-.5-1.1-.2s-.5.2-1.1,0a3.2,3.2,0,0,0-1.3-.1c-.2.1-.3-.3-.1-.9s.2-2.2.3-3.5c.2-3.3.4-3.9,1.2-3.5s1.9-.1,1.9-.8-.1-.2-.3.1-.4.3-.5,0a.6.6,0,0,1-.1-.6c.1-.2-.1-.4-.4-.5s-.8-.3-1.1-1.9-.9-1.1-2-.1-.8,1.2.2,1.2.6.1.6.3-.3.3-.7.2l-1-.2c-.1,0-.2-.2-.2-.4a1.5,1.5,0,0,0-.5-.8,2.2,2.2,0,0,1-.5-1.4c0-.8-.1-1-.7-1a2.1,2.1,0,0,1-1.4-.4c-.5-.4-.6-.5-.2-1a1.7,1.7,0,0,0,.2-2.4,1,1,0,0,1-.2-.9c.1-.4,0-.5-.4-.3s-.5,0-.5-.3-.4-.5-.8-.7-.8-.3-.8-.6-.2-.5-1.3-.6-.5-.3-.5-.7a.8.8,0,0,0-.7-.7l-1-.4a1.5,1.5,0,0,0-1-.1.7.7,0,0,1-.9-.5c-.1-.4-.3-.7-.5-.7a.3.3,0,0,1-.3-.3c0-.5-.4-.9-1.9-1.9l-1.5-1.2a1.2,1.2,0,0,0-.8-.4c-.2,0-.3-.3-.3-.5a1.4,1.4,0,0,0-.3-.9l-1-1.2c-.5-.6-.9-.7-2.2-.7a3,3,0,0,1-2.3-.7C590.1,206.9,589.4,206.8,589.1,207.3Zm55.7,39.5h-.5c-.2,0-.5-.1-.5-.3s.3-.2.5-.1Z"/><path class="cls-3" d="M533.5,212.1c0,.5.1,1,.3,1.1s.2.4.1.6a.6.6,0,0,0,.2.7.7.7,0,0,1,.3.6c0,.2-.1.2-.3-.1s-.3-.4-.2.1a5,5,0,0,1,.2,1.2c0,.8.8.8,1.3.1s.3-.5-.3-.7-.6-.3-.5-.4-.2-2.6-.5-2.4-.3-.1-.2-.8,0-1-.2-1S533.5,211.5,533.5,212.1Zm1.6,4.2a.3.3,0,0,1-.3.3c-.2,0-.4-.1-.4-.3s.2-.3.4-.3A.3.3,0,0,1,535.1,216.3Z"/><path class="cls-3" d="M669.3,217.5a8.3,8.3,0,0,0-.5,2c0,.7-.1,1.3-.3,1.3s-.1.2.2.4.3.4.1.4-.3.5-.2.9.2.7.4.1.3-.5.3.3-.1.8-.6.7-1.1.2-.8,1,2.1,1.2,2.1.4,0-.4.3.1.9.2.3-1-.6-2.4.7-1.9,1.4.2.5-.8-.8-.8-.2-1.2.9-2,.4-2a4.5,4.5,0,0,0-1,.5c-.7.5-.7.5-.7-.8S669.9,216.3,669.3,217.5Z"/><path class="cls-3" d="M661.5,219.2c-.8.8-1.5,1.3-1.8,1.2l-3-.4a6.7,6.7,0,0,1-2.5-.5c0-.3-1.2-.6-1.6-.3l-.5.7c-.1.4-.4.5-.5.4s-1.6,1.1-1.6,1.9-.2.5-.3.5-.2.5-.1,1a3.5,3.5,0,0,1-.4,1.7,3.4,3.4,0,0,0-.5,1.7c0,1.1-.9,3.1-1.4,3.1s-.2.4-.1.8a9.2,9.2,0,0,1,.1,1.5c.1.3.3.4.8.3s.8,0,.8,1.1a7.1,7.1,0,0,1-.3,2.8c-.4,1.9-.2,2.2,1.4,2s1.1-.3,1.2-1.4c0-5,.2-6.5.8-6.7s1.1.1.6,1.2-.3,1.1.6,1.9.8,1,.6,1.5.2,1.4.8,1.4a2,2,0,0,0,.9-.6,2.1,2.1,0,0,1,.9-.7q.5,0,0,.6c-.9.9-1,1.9-.3,2.5s.7.5,1.3,0a1.3,1.3,0,0,0,.5-1.2.8.8,0,0,1,0-.7c.2-.1.3-.7.3-1.4s-.1-1.2-.6-1.1a1.4,1.4,0,0,1-1.3-1.6,5.5,5.5,0,0,0-.8-2.3c-.8-1.3-1-1.7-.7-2.1a1.5,1.5,0,0,1,.8-.4c.3,0,.8-.5,1.2-1s.9-1,1.5-.8.7,0,.7-.5-.8-1.1-1.8-.6a5.3,5.3,0,0,1-1.9.4,2.4,2.4,0,0,0-1.8.8c-.6.7-1.6.8-1.6.1a2.2,2.2,0,0,0-.7-1,1.7,1.7,0,0,1-.5-1.7c.4-1.7.7-1.7,4.7-1.5,5.5.4,6.5.4,6.5-.4a5.5,5.5,0,0,1,.8-1.4c.5-.6.8-1.3.6-1.6S662.9,217.7,661.5,219.2Z"/><path class="cls-3" d="M671.4,230.7a2.7,2.7,0,0,0-1.2.5c-.2.3-.2.3-.2,0s-.3-.2-.7.2-.8,1.2-.1.9.4,0,.4.6.1.8,1.2.4,1.1-.6,1.1-.8.1-.3.7-.1a1.7,1.7,0,0,0,1.2.2,2.5,2.5,0,0,1,1.7.5c1.4.8,1.6.8,1.6-.1S674.6,230.4,671.4,230.7Z"/><path class="cls-3" d="M666.4,246.1l-2.1.4c-1.3.1-2.1.3-2.4.8a9.9,9.9,0,0,1-2,1.3c-.9.4-1.6.9-1.7,1.3a5.4,5.4,0,0,1-.7,1.3c-.4.4-.4.6-.1.7s2.8-.5,4-1.7a5.6,5.6,0,0,1,2.5-1.6c1.8-.6,3.9-1.9,3.6-2.3S666.6,245.9,666.4,246.1Z"/><path class="cls-3" d="M679.7,224.4l-1.6.9c-.2.2-.4.2-.5,0s-1.5-.4-1.5-.1,1.4,2.1,1.9,2.1,1.7.3,1.7.8,1,1.4,3,1.2,1.8,0,1.6.2-.5.3-.9.2a1.2,1.2,0,0,0-1.2.3.8.8,0,0,1-.9.3c-.7-.2-1.6.1-1.6.5s.3.5.8.7.8.5.8.8.1.4.3.4.2.2.1.4.2,1.6.6,1.4a.9.9,0,0,1,.8.2c.2.2.6.3.6.2s.1-.3-.1-.5a.5.5,0,0,1-.1-.7c.2-.3.5-.3,1.5.1l1.7,1.1a3.1,3.1,0,0,0,1.6.6c1.3.2,6,2.5,6,2.9a3.4,3.4,0,0,0,.4,1,2.5,2.5,0,0,1,.4,1.2c0,.3.1.5.3.5s.2.6.3,1.2-.1,1.1-.6,1.1-2.2,2.1-2.2,2.8,2.9.5,3.2,0l1.3-.4c1.1-.1,1.3,0,2.4,1.4s1.2,1.6,2.9,1.6l2,.2c.1.1.5,0,.8-.1s.5-.2.4.3a2.4,2.4,0,0,1-.3,1c-.1.2,0,.3.1.3s.7-.8.7-1.7.2-.6.4-.6.3-.2.3-.5.1-.4.3-.3.3-.2.3-.6,2.3-3,3.1-2.2.7.4,1.4.6a2.5,2.5,0,0,1,1.5,1c.2.4.4.7.5.7s.3.3.3.7a1.6,1.6,0,0,0,.5,1c.2.2.4.5.3.6s0,.3.3.3.6.4.7.8.6.9,1.7,1.2l2.5.4a2.7,2.7,0,0,1,1.6.4c.9.5,3.2.6,3.5.1s.1-.3,0-.3h-.8c-.4,0-.4-.1,0-.2s0-.5-.9-.8-1.8-.9-1-.9.2-.6-.6-.7-.8-.3-.8-.9.1-.8-.8-.6-1,.1-1.4-1.2a8.8,8.8,0,0,0-1.6-2.5,4.1,4.1,0,0,1-1.3-1.8c0-.6.2-.7,1.2-.7s1.1-.1,1.1-.6a2.7,2.7,0,0,0-1.8-1.9,1.9,1.9,0,0,1-1-.5,4.6,4.6,0,0,0-1.4-.7c-.7-.2-.8-.3-.7-1s.2-.8.4-.8.3-.2.3-.5-.1-.5-.5-.1-.6.2-1.1-.3a2.2,2.2,0,0,1-.7-1c0-.2-.1-.3-.2-.2s-.6-.1-.8-.3a1.8,1.8,0,0,0-1.2-.5,1.4,1.4,0,0,1-1-.5,7.7,7.7,0,0,0-2.2-1,12.5,12.5,0,0,1-3.1-1.2,3.4,3.4,0,0,0-1.7-.6c-.2.1-.4,0-.4-.2s-.6-.4-1.3-.5a13.4,13.4,0,0,1-3.5-1.4c-2.1-1.1-2.3-1.1-3.2-.7s-1.1.7-1.1,1a1.1,1.1,0,0,1-1,.6c-.5,0-.9.1-.9.2a2.3,2.3,0,0,1-.5,1l-1.1,1.3a1.5,1.5,0,0,1-1.2.7c-.5,0-.7-.3-1.1-1.5s-.4-1.4-.5-1.1-.7.1-.7-.7,0-.7.3-.2.3.3.1-.2-.2-1.2-.3-1.9-.4-1.9-.9-1.7a2.4,2.4,0,0,1-1.6-.5A2.9,2.9,0,0,0,679.7,224.4Z"/><path class="cls-3" d="M703.6,253.1a8.1,8.1,0,0,0-.6,1.3,6,6,0,0,1-.9,1.8,10.9,10.9,0,0,0-.7,2.4,4.3,4.3,0,0,1-.5,1.7,16,16,0,0,0-.4,2.5c-.2,2.4-1.3,6-2.2,6.9a2.8,2.8,0,0,0-.6,1c0,.7-1,1.4-1.8,1.4s-1.2-.5-2.1-1.3a4.7,4.7,0,0,0-1.8-1.3,1.6,1.6,0,0,1-1.1-.8c-.2-.4-.6-.8-.8-.8s-.5-.3-.6-.8-.8-1.1-.8-.3-.6-.1-1.6-1l-1.6-1.5.7-.7.9-1.4c.2-.4.5-.7.6-.6a.6.6,0,0,1,.2.7c-.2.4,1,.9,1.5.6s.1-1.7-.2-2-.4,0-.7.2-.5.3-.5-.4.2-.8.4-.8.7-.5,1.2-1.3.6-1.5.3-1.8a.7.7,0,0,1-.3-.8c.1-.1,0-.3-.2-.3l-.4.2c0,.2-.3.4-.7.5s-.6.1-.5-.3,0-.6-1.1.3-1,.6-1.3.3a1.8,1.8,0,0,0-1.1-.4,2.5,2.5,0,0,1-1.2-.4.7.7,0,0,0-.8-.3c-.2.1-.4-.2-.4-.5s-.1-.5-.3-.1-.4.4-.7-.1-.4-.5-.6-.4-.3-.1-.3-.4-.1-.6-.8-.4-.8.2-.8.1-.2,0-.4.2.2,1.4.8,1.1.9.8.5,1.4-.9.5-2.1.4-1.7-.1-1.7.1a.4.4,0,0,1-.4.3c-.6,0-2.2,1.9-2,2.4s-.2.6-.5.8-.7.5-.7.7a2.4,2.4,0,0,1-.7,1.1c-.6.7-.6.9-.3,1.1s.1.9-1.1.8a2.4,2.4,0,0,0-1.6.2c-.4.3-.5.3-.3-.2s0-.5-.3-.7a.7.7,0,0,1-.5-.6,2.4,2.4,0,0,0-1-1.1c-1-.7-1.1-.7-1.5-.2s-.4.4-.5.4-2.2-.5-2.2-.2a.3.3,0,0,0,.3.3c.2,0,.3.3.3.7s0,.8-.4.2-.5-.6-.5-.1-.2.5-.7.3-.6,0-.6.7-.1.8-.2.7-1.9,1.4-1.9,2.3a5.9,5.9,0,0,0-.1,1.1c-.1.2-.6.2-1.2.1s-1.1-.1-1,.1.1.4-.1.5-.3.4,0,.9.2.6,0,.6a.5.5,0,0,0-.4.5c-.1.4-.3,0-.4-.8a3.6,3.6,0,0,0-.5-1.3,4.9,4.9,0,0,0-1.4,1.2,3.1,3.1,0,0,0-1.2,2.3,3.2,3.2,0,0,1-1,2.3l-1.7,2a5.1,5.1,0,0,1-4.1,2,4.1,4.1,0,0,0-2.2.6,2.2,2.2,0,0,1-1.4.5,2.2,2.2,0,0,0-1.2.5c-.3.4-.8.5-1.7.4a2.5,2.5,0,0,0-1.4.1.8.8,0,0,1-.7.3,3.7,3.7,0,0,0-1.5,1,6.4,6.4,0,0,1-2.2,1.4,5.8,5.8,0,0,0-1.6,1.5l-.4.8-.2-1c-.1-.7-.2-.8-.5-.4A5.3,5.3,0,0,0,629,287a5.9,5.9,0,0,1-.8,2.2c-1,1.4-1,1.7-.2,4.1s.5,3.7-.3,1.9l-.6-1.3-.3.8-.3.8-.4-.8c-.3-.7-.3-.6-.2.6a7.6,7.6,0,0,0,.7,2.4,8.3,8.3,0,0,1,.6,2.6c.1.9.2,2.1.3,2.6a4.4,4.4,0,0,1,.2,2c0,.5,0,2.7-.1,4.8s-.2,3.9-.5,3.9a1.1,1.1,0,0,0-.4.9c0,1-.8,2.1-1.6,2.1s-.8.4-1,.9-.4,1.4.3,1.4a.9.9,0,0,1,.8.6c.3.8,1.3,1.2,3.2,1.5s3.2-.3,3.2-.8,1-.7,1.9-.8.8-.4,1.2-.7,3.1-1.1,6.9-1l2.8.2,1.4-1.4a5.8,5.8,0,0,1,2-1.5.8.8,0,0,0,.7-.3l1-.5a3,3,0,0,0,1.5-.7,2,2,0,0,1,1.6-.3c1.1.2,5.5-.8,6.2-1.4a11.2,11.2,0,0,1,3.4-.5c2.8-.2,3-.2,3.7.5s1,.7,1.2.6a2.6,2.6,0,0,1,1.6.6,5,5,0,0,0,1.7.7c.2,0,.2.1,0,.4s-.5,1.6,0,1.6,1.1,2.9.4,3.3-.3.5.6,1.3,1,.9,1.1.2,2.2-2.9,2.9-2.9a5.9,5.9,0,0,0,1.9-1.4c.8-.8,1.5-1.4,1.7-1.3s0,.3-.2.4a.8.8,0,0,0-.4.7,1.8,1.8,0,0,1-.9,1.1,5.9,5.9,0,0,0-1.3,1.7,2.8,2.8,0,0,1-1.2,1.4,3.2,3.2,0,0,0-1.2.8c-.4.6-.4.6.4.4l1.4-.2c.3,0,.8-.6,1.2-1.2a4,4,0,0,1,.9-1.1c.7,0,.3,1.6-.6,2.5s-1,1.4.3,1.2.9,0,1.3.9.4,1.1-.2,2.1a2.2,2.2,0,0,0-.3,2.3,2.7,2.7,0,0,0,1.1,1.4,1,1,0,0,1,.7.5c0,.2.6.3,1.3.3a3.4,3.4,0,0,1,1.5.3,3.5,3.5,0,0,0,.9.7c.7.4,1,.3,2.3-.4a4.1,4.1,0,0,1,1.7-.6,3.6,3.6,0,0,0,1.4.9c.7.3,1.2.8,1.2,1.1s.1.4.7-.2,5.3-3.3,6.9-3.3,4-1,4-2.2a3,3,0,0,1,.8-1.2,2.8,2.8,0,0,0,.8-1.3,5.9,5.9,0,0,1,1.5-1.7c.8-.7,2.1-2.2,3-3.2a16.6,16.6,0,0,1,5-4.8c.6-.3,1.2-.8,1.2-1a4.2,4.2,0,0,1,.9-1.3c1.4-1.6,2-2.4,2-2.7a4.7,4.7,0,0,1,.7-1.6c1.9-2.8,2.9-4.7,3-5.6a11.9,11.9,0,0,1,.7-2.3c.5-1.3.3-2.1-.2-.8s-.3.6-.3.5a18.1,18.1,0,0,1,.8-3.4l.2-.7c-.1-.2.2-.8.6-1.4a5.4,5.4,0,0,0,.6-1.6c0-.5-.1-.5-.2-.2s-1.7,1.6-1.7.3-.2-.6-.3-.6-.4-.5-.5-1-.4-.9-.6-.9-.6-.4-.6-.8-.3-.7-.5-.6-.4-.3-.2-1.7.2-1.9-.5-1.7-.7,0-.8-.3-.3-.4-.7-.1-.5.3-.5-.9a3.5,3.5,0,0,0-.4-2.1c-.7-1-.7-1.2-.1-1.2s.5-.3.4-.7-.3-.7-.5-.6a4.6,4.6,0,0,1-2.8-2,.5.5,0,0,0-.7-.3c-.2.1-.4,0-.4-.3s-.1-.3-.3-.2-1.1-.7-.9-1.5,0-.9-.2-1a.6.6,0,0,1,0-.6,5.6,5.6,0,0,0-.4-3.8c-.5-.5-.5-3.9,0-4.7s-.2-.6-.7-.9-.8-.6-.3-1,.4-.4.2-.7l-.9-.4c-.4,0-.3.1.1.3s.7.3,0,.3h-.9c-.1,0-.2.1-.2.3s-.2.3-.5.3-.5-.3-.4-1.6.2-1.6.5-1.5.4-.1.4-1a3,3,0,0,1,0-1.4c.2-.7.2-1.3-.1-1.3s-.4.6-.3,2.2,0,1-.2.9-.3-.4-.2-.8a1.4,1.4,0,0,0-.3-.9,1.1,1.1,0,0,1,.3-1.5c.2-.2.1-.2-.3-.1s-1.3-.8-1-1.2a1.9,1.9,0,0,0,0-1.1C704.8,252.7,704.2,252.5,703.6,253.1Zm-76.2,43.4c0,.2-.1.5-.2.5a1.5,1.5,0,0,0-.3-.5c-.1-.3,0-.5.2-.5S627.4,296.2,627.4,296.5Zm61.3,32.9c-.2.3-.5.4-.6.3s.3-.8.7-.8S688.9,329.1,688.7,329.4Z"/><path class="cls-3" d="M684,336.6a6.2,6.2,0,0,0-.9,2.6,12.4,12.4,0,0,1-.5,1.9,4,4,0,0,0-.3,2c.1,1.1.2,1.3,1,1.4s3.1-.6,3.1-1.1.2-.3.4,0,.7.1,1.3-.6a2.9,2.9,0,0,0,.9-1.4.6.6,0,0,1,.6-.6.9.9,0,0,0,.9-.7,7,7,0,0,1,1-1.9c1-1.5.5-1.9-1.6-1.3s-3,.8-3.6.2l-1-.8a.4.4,0,0,1-.2-.5C685.2,335.1,684.9,335.3,684,336.6Z"/><path class="cls-3" d="M450.4,8.1a2.9,2.9,0,0,1-1.6.5c-1.3.3-4.1,1.4-4.4,1.9a.5.5,0,0,1-.6.1c-.2-.1-.4-.1-.4.1a.5.5,0,0,0,.5.4H445a1.6,1.6,0,0,0,1.4-.6c.4-.3.6-.5.5-.3s.1.4.5.6,1.3.2,1-.2.1-.2.3-.1.5.4.3.6.7.2,2.5.1,2.5-.1,2.1.1-.3.3.7.3,1.4-.2,1.5-.5a1.1,1.1,0,0,1,.8-.5c.9,0,1.7-.3,1.7-.6s-.3-.3-.6-.3a.9.9,0,0,1-.8-.4,14.6,14.6,0,0,0-4.2-.6c-.5,0-.5-.1-.2-.5s.2-.5-.8-.5A2.7,2.7,0,0,0,450.4,8.1Zm3.9,1.7a2.8,2.8,0,0,1-1.5.6H452l.8-.3c.5-.1.6-.3.3-.3s-.1-.2.3-.4S454.9,9.1,454.3,9.8Zm-8.3.4a.5.5,0,0,1-.3.4c-.2.1-.3,0-.3-.2a.3.3,0,0,1,.3-.3Z"/><path class="cls-3" d="M439.3,9.6c-.6.2-1,.5-.8.6s0,.2-.2.2a.3.3,0,0,1-.3-.3c0-.4-2.4-.4-4.7,0s-1.2.4,1,.4c.6,0,1,.1.9.3a.5.5,0,0,0-.1.3c1.7.3,3.9.3,3.7,0s.1-.4.5-.4.6.1.3.3,1,.7,2.7.7.9-.1.5-.3a2.4,2.4,0,0,0-1.5-.1c-.8.1-.9.1-.5-.4a1.6,1.6,0,0,1,1.1-.5c.3,0,.5-.1.4-.3s-.5-.3-.8-.3-.6-.2-.6-.4S440.7,9.1,439.3,9.6Z"/><path class="cls-3" d="M391.2,11c-.3.3-.8.4-1.7.3s-1.3-.1-1.5.3a.7.7,0,0,0,.3.8c.3.1.3.3.1.3a1.8,1.8,0,0,1-.8-.5,1.2,1.2,0,0,0-1.2-.4,1.2,1.2,0,0,1-.9-.1,4.4,4.4,0,0,0-2-.1h-2.7c-.7,0-.9.1-.7.6a5,5,0,0,0,1,1.3l.9.8-.9-.5c-.5-.4-.9-.5-1.1-.3s.5.6,1.2,1,1.8.8,1.3.2,1.6.6,2.5,1.5a2.4,2.4,0,0,0,1.3.9,7.4,7.4,0,0,1,1.8.6c1.9,1,2.6.9,2.9-.3s.4-1,.6-1,2.4-1.6,2-1.6-.1-.1.2-.3,1.7-.2,2.8.7.7.6.1.9-.4.4,1.1.3a2.1,2.1,0,0,1,1.3.3c.2.4,1.7.2,2.2-.3a2.4,2.4,0,0,1,.9-.3c.4,0,.5-.1.4-.3s-.6-.3-1.1-.3-1-.2-1.1-.5-.5-.5-1-.4-.8,0-.8-.1-2.9-1.7-3.5-1.4-.4.1-.2-.2,1-.3,2.5-.2c3.4.4,6.4.2,6.6-.4a.8.8,0,0,1,.7-.4c.9,0,1.1-.5.4-.9s-4.8-.7-5.1-.2-.2.2-.3-.1-1.8-.5-1.8.1-.1.5-.4.2S391.7,10.4,391.2,11Zm2.8,1.6c.1.3-.1.4-.4.3a1.1,1.1,0,0,1-.8-.5c-.1-.3.1-.4.5-.3A.9.9,0,0,1,394,12.6Zm-6.4,2.2H387c-.3,0-.6-.2-.6-.4s.2-.4.6-.2S387.6,14.7,387.6,14.8Zm-2.2.8a.4.4,0,0,1-.7,0,.3.3,0,0,1,.3-.3C385.2,15.3,385.4,15.4,385.4,15.6Z"/><path class="cls-3" d="M470.9,17.4a5.1,5.1,0,0,0-1.5.7c-.6.3-2.1.5-4.9.7s-5.2.5-5.6.9a6.5,6.5,0,0,1-3.3,1.4c-.4-.1-.6.1-.5.5a2.2,2.2,0,0,1-1.4,2.4l-1.1.5.8.4c.5.2.7.3.3.3a4,4,0,0,0-1.4.9c-.8.6-.8.8-.4.8s.7.6-.2.9-.8.6-.8.8a1.3,1.3,0,0,0,1.6,1.1c.3-.1.6-.1.4.1s.3.5.7.6,1,.3,1.2,0,.3-.3.3.1.6.9,3.2,1.1,4.3.3,4.4-.2,0-.4-.3-.2-.5.1-.4-.1-.5-.5-1.1-.7a3,3,0,0,1-1.3-.6c0-.1-.4-.4-.9-.7s-1.4-2.2-.7-2.2.3-.2.3-.4a17.1,17.1,0,0,1,3.8-3.8,2.8,2.8,0,0,0,1-.6c.7-.7,2.1-1.2,6.3-2s6.8-1.8,4.1-2.6A4.6,4.6,0,0,0,470.9,17.4Zm-16.6,7.1a.6.6,0,0,1-.6,0c-.3-.1-.2-.2.2-.2S454.4,24.4,454.3,24.5Z"/><path class="cls-3" d="M406.2,30.5a1.1,1.1,0,0,1-.8.1c-.2-.1-.8.1-1.3.5s-.7.6-.5.4-.1-.4-.9-.4-2.5.3-2.3.6-1.4.8-2.4.7-.7,0-.5.3.1.4-.2,0-2.9-.3-2.9.5,0,.5-1.2.6-1.8.5-1.6,1.1,0,.8-.2.9-.2,0-.1-.2.1-.4-.6-.2-.9.2-.5-.3,0-.6-1.7.2-1.4.8-1.3,1.2.1.4-.2.2-2.6.7-2.6,1.1.1.5,1.4-.1,1.2-.4,1.2-.3l.9-.2c.6-.2,1-.2,1,0s-.2.3-.5.3a.6.6,0,0,0-.5.6c0,.4-.6,1.1-1.6,1.8s-1.6,1.3-1.6,1.5-.3.3-.6.4a.9.9,0,0,0-.7,1,2.2,2.2,0,0,1-2.1,2.1c-.8,0-.8.1-.5.4s.5.4.1.5a11.7,11.7,0,0,0-1.7,1.4c-1.1,1.2-1.3,1.3-1.9.9s-.8-.3-1.1.1-.6.5-.8.4-.4,0-.3.3,0,.6-.7.7-1,.4-1,.5-.3.4-.8.5-.8.3-.8.5-.1.3-.3.2-.7.1-1.2.4-1,.7-1,3.1,0,2.3.4,2.2.7.4.2.7-.4,2.1,0,2.1.3.3.3.6.5,1,1.3,1.5a4.4,4.4,0,0,0,4.9,0l2.4-1.5c.8-.4,1.4-.9,1.4-1.2s.1-.5.2-.1a1.7,1.7,0,0,0,.6.8c.3.1.5.6.5,1.1a3.9,3.9,0,0,0,.6,1.7,2.4,2.4,0,0,1,.7,1.1,5.9,5.9,0,0,0,1.1,1.4c.6.7,1,1.2.8,1.3a.6.6,0,0,0-.3.6c0,.2-.1.4-.2.4a4.6,4.6,0,0,0-2.4.7c0,.3-1.9.8-2.2.5a1.2,1.2,0,0,1,.2-.7c.4-.6.4-.6.4,0s.2.4.3.3.3-.3.2-.4-.1-.4.1-.5a.6.6,0,0,0-.3-1.2.6.6,0,0,1-.3-1.1c.3-.2.3-2.1-.1-2.1s-.2.1-.2.3a.5.5,0,0,1-.5.4,1.5,1.5,0,0,0-.8.4,1.7,1.7,0,0,1-1.3.5c-1.8,0-3,3.5-1.7,4.8s.5.9.1,1.2-.2.4-.1.7.3.4.6.1.4-.3.4.1-.1.5-.3.5-.3.2,0,.5-.1,1.5-1.6,1.3a2.6,2.6,0,0,0-2,.2,2.5,2.5,0,0,1-1.7.4,2.7,2.7,0,0,0-3.2,1.9c-.3,1.8-2.4,3.7-4.9,4.5s-1.6.6-1.8,1.7-.5,1.2-1.6,1.5a3.5,3.5,0,0,0-1.7,1,1.5,1.5,0,0,1-2.2.2,2.3,2.3,0,0,0-1.3-.7c-.9-.2-1-.2-.7.5.7,2.2.6,2.4-.7,2.4a5.8,5.8,0,0,1-1.7-.3,8.2,8.2,0,0,0-3.6.5c-.6.3-.7,1.9-.1,1.9s.4.1.4.3.2.2.4.1,2.2.5,2,1,0,.5.2.5.3-.2.2-.3.8-.3,1.5.3.5.7.3.7-.3.1.1.5a1.2,1.2,0,0,1,.5.8c0,.1.2.3.5.3s.4.1.3.3-.1.3.1.3.3.2.3.4a1.7,1.7,0,0,0,.1.7,21.8,21.8,0,0,1-.7,5c-.4,1.1-1.3,1.8-2.2,1.5a74.8,74.8,0,0,0-9-.6,5.6,5.6,0,0,1-1.9-.3c-.4-.5-1.6-.2-2.2.4a1.7,1.7,0,0,1-1.1.7c-.9,0-1.4.7-1,1.7a24.4,24.4,0,0,1,.4,3c.1,2.3-.7,5-1.6,5.8s-.4.4-.3.4.1.4-.1,1-.2,1,0,1,.3.2.3.5.2.4.4.3.5,1.6.1,3-.1.8,1.2.8l2.1-.2c1.2-.4,2,.1,2.6,1.4s1.7,2,2.4,1.2,2.6-1.5,4.6-1.5h2.5a1.8,1.8,0,0,0,1.1-.9,1.9,1.9,0,0,1,1.4-1.2c.8-.1,1.1-.5,1.5-1.4s.7-1.3.9-1.3a1,1,0,0,0,.8-.5c.4-.4.4-.6,0-.9a1.4,1.4,0,0,1-.3-2.2c1.1-1.7,3.1-3.8,3.5-3.8a7.6,7.6,0,0,0,2.2-.9c1.7-.9,2.7-2.1,2.1-2.8a1.5,1.5,0,0,1-.4-1c0-1.6,3.5-2.2,5.4-.9s1.8.5,3-.5a4.8,4.8,0,0,1,2-1.2,2.4,2.4,0,0,0,1.3-.8,1.6,1.6,0,0,1,.7-.7c.7-.3,3.4,1,3.4,1.6a2.5,2.5,0,0,0,.5,1.1c.3.5.3.7-.2,1.1s-.5.5-.2.6.5.1.6-.2.3-.3.8,0a1.6,1.6,0,0,1,.5.9.6.6,0,0,0,.6.5c.4,0,.7.1.7.2s3.2,2.8,3.9,2.8a2.4,2.4,0,0,1,1.6.9,2.9,2.9,0,0,0,1.4.9.5.5,0,0,1,.5.5c0,.3.4.7,1,.9s1,.7,1.4,1.8.4,1.5.2,1.6-.3.4-.3.7-3,1.4-5.3,1.2-2.5,0-2.5.7,2.9,2.3,3.8,2.3a.8.8,0,0,1,.6.4,1.7,1.7,0,0,0,1,.6,1.1,1.1,0,0,0,1.2-1.5,2.8,2.8,0,0,1,0-1.3c.2-.7.3-.8.9-.6s2.2-1,2.2-1.9a1,1,0,0,1,.6-.8c.9-.2.9-1.4-.1-2s-.8-.6-.4-1.3.6-.8,1.3-.7,1.1.2,1.1.4a2.5,2.5,0,0,0,.7.8c.4.5.5.5.8-.2s-.6-1.9-3.4-3.2-2.1-1.2-1.9-1.7.2-.6.1-.6h-1.6a3.1,3.1,0,0,1-2.5-1.3,4.4,4.4,0,0,1-1.2-1.7c0-.8-.5-1.5-2-2.3s-1.8-1.8-1.2-2.5.3-.5,0-.6-.3-1,.8-1.4,2.2-.5,1.5-.1-.3.5-.1,1.1,1,1.4,1.4.8.3-.2.3.3.1.8.3.9.3-.1.3-.5a1,1,0,0,1,.4-.8c.3-.2.3-.1.2.3a.9.9,0,0,0,.3,1.1c.3.3.4.5.1.7s1.1,1.6,1.8,1.6a1.5,1.5,0,0,1,1,.7,2.2,2.2,0,0,0,1.4.6h.8l-.8.2c-.8.3-.8.3.2.3a1.5,1.5,0,0,1,1.2.4,1.5,1.5,0,0,0,.8.3,6,6,0,0,1,2.2,1.2l1.7,1.2-.2,2c-.2,1.9-.1,2,.7,2.6s.7.6.5.7-.1,1.3.5,1.3a2,2,0,0,1,.9.5c.5.5.5,1.1,0,2.2s-.1.7.1.8a1.6,1.6,0,0,1,.5.8c.3.6.9.8.9.2s1.2.8,1.4,1.9.3,1.1,1,.9.8,0,.8.3.2.5.3.5a.4.4,0,0,0,.4-.3.3.3,0,0,1,.3-.3c.2,0,.3.3.3.8s.2.8.3.8.5-1.7-.2-3.1-.3-.8-.1-.6a2.1,2.1,0,0,0,1.1.4c.4,0,.5-.1.4-.6s-.1-.7.5-.6.7,0,.7-.5-.1-.6.3-.2.6.3.6.2.2-.1.4.1a1.6,1.6,0,0,1,.5,1.1c0,.5.1.5.5.1s.5-.6-.1-1.2-.7-.6-.7-.5-1-.6-1.3-1.3a1.1,1.1,0,0,0-1-.8c-.4,0-.7-.3-1-.9s-.4-1-.6-1-1.3-1.9-1.2-2.3.6,0,1.1.5,1.6,1.1,1.3.5,0-.2.3-.1.5.1.3-.4-.1-.5.2-.2,1.1.4.3-.4-.7-.8-.1-1.1.8-.3.9,0,.1.3-.1.2-.4-.1-.4,0,.9.4,1.1-.2.2-.6,1.2-.2l1.8.7a2.1,2.1,0,0,0,2.8-.4,1.9,1.9,0,0,1,1.7-.7,2.1,2.1,0,0,0,1.5-.3c.4-.5.4-.5-.8-1s-2.3-3-1.9-3.4a1.8,1.8,0,0,0,.4-1.1.8.8,0,0,1,.6-.8c.5-.2.6-.5.7-1.7s.2-1.7,1-2a1.4,1.4,0,0,0,.9-1.3,3.3,3.3,0,0,1,1-1.8,3.6,3.6,0,0,0,.9-1.5c0-.2.4-.4.8-.4s.8.2.8.5,1.7,1,3.5.9,1,.1.9.3a.7.7,0,0,1-.5.3c-.4,0-1.8,1.3-1.4,1.3l1.7.5c.6.2.7.4.6,1.1s0,.8.9.9a1.1,1.1,0,0,0,1.2-.4c.1-.3.6-.5,1-.5a1.7,1.7,0,0,0,1-.3,1.8,1.8,0,0,1,1.3-.4c.8,0,1.1-.1,1.1-.4s.2-.5,1.7.8a1.6,1.6,0,0,0,1,.6,2.5,2.5,0,0,1,1.1.5,1.9,1.9,0,0,0,1,.5,1.8,1.8,0,0,1,1.1.5c.5.4.7.4,1.6.2a1.9,1.9,0,0,1,2,.2,7.3,7.3,0,0,0,2.2.9,9.1,9.1,0,0,1,2.6,1.1,3.7,3.7,0,0,0,3.2.8l1.7-.2,2.1,1.8c3.6,3.1,12.1,7,11.6,5.2a.8.8,0,0,0-.7-.4c-.3,0-1.9-1.5-3.6-3.3s-3.1-3.5-3.1-4.4a3.6,3.6,0,0,0-2-2.9c-.3-.1-.3-.2-.1-.4a3.1,3.1,0,0,0,.7-1.2c.3-1,1.9-2.1,2.7-1.9s.3,0,.3-.3.8-1.3,2.9-2.4l2-1c.1-.1-.3-.5-.8-.9a1.7,1.7,0,0,1-.9-1.9c.1-.9-.2-1.4-1-2.3a6.4,6.4,0,0,1-2-3.9c-.2-1.4-.2-1.4,1-1.7a12.9,12.9,0,0,1,2.9-.3,4,4,0,0,0,2-.4c.6-.6,4.6-.4,6.7.3a6.1,6.1,0,0,0,3.4.5c1.1-.1,1.6-.1,1.6.2s.3.3.6.3a2.2,2.2,0,0,1,1.1.5c.6.6,1.4.6,1.6,0s.6-.4,1.4-.2c2.3.2,2.8-1.6.7-2.4s-2.3-1.1-1.8-1.5.2-.5-1.7-1.9-.7-.5-.3-2,.3-1.6-.2-2.4-1.8-1.4-3.1.1-2.4,1.5-3.5,0a11.6,11.6,0,0,0-1.6-2.1c-.7-1-.7-1-.2-1.6a2.4,2.4,0,0,1,1.6-.7c2.1,0,2.9-2.6,1.2-4.1a5,5,0,0,1-1.6-4.2A29.1,29.1,0,0,0,474,47.9c-1.3-2.8-1.7-4.2-1.5-4.4a6.2,6.2,0,0,1,1.9-1c3.2-1.2,6.7-3.7,6.8-4.8a5,5,0,0,0-1.4-1.7c-1.5-1.5-3.5-2.2-7.3-2.5s-3.6-.4-5.5-1.2-1.7-.6-2-.3-.2.5.3,1,.9.6,1,.5,2.9,1,3.5,1.6.5.8-.4.8-.7.1-.6.5.1.4-.3.3-.5-.3-.5-.4a1.9,1.9,0,0,0-1-1.8c-.7-.2-.9.3-.2.5s-.2.3-.9.4l-1.6.5-1.9.2c-.9.1-1.8.2-2,.5a2.2,2.2,0,0,1-1.2.2c-.9-.1-1.2-1.1-.4-1.3s0-.2-.7-.2a5.4,5.4,0,0,0-2,.4,2.9,2.9,0,0,1-1.7.6,6.2,6.2,0,0,0-2.4.8,5.6,5.6,0,0,1-1.9.7c-1,.1-2,.8-2,1.5a1.1,1.1,0,0,1-.5.9,3.2,3.2,0,0,1-2.9-.3,1.5,1.5,0,0,0-.8-.4c-.9,0-.2-.8,1-1.1l1.2-.4-1.1-.8c-.8-.7-1.6-.9-3.4-1s-3.5.1-1.7.5,1,.3,1,1.6.1,1.4.8,1.7,1,.9.5,1.7-.4.3-1,0l-1.3-.3c-.4,0-.7-.2-.7-.5s-.3-.2-1,.5a5.3,5.3,0,0,1-1.5,1,3.8,3.8,0,0,0-1.5.7l-.9.7.8.8c1.1,1.1.4,1.4-1.8.9l-2.5-.9a1.2,1.2,0,0,0-1.4,0c-.8.4-.7,1.3,0,1.3s.5.1.5.3.4.4.9.4a1.5,1.5,0,0,1,1.2.4c.2.9-1.7.7-3.4-.2a5.8,5.8,0,0,0-1.7-.6c-.3,0-.6-.2-.6-.4a2.2,2.2,0,0,0-.6-1c-.5-.5-.6-.7-.3-1.2s-.3-1.4-1.7-1.7a1.6,1.6,0,0,1-1-.6c-.1-.3.4-.3,2.5.1,6.7,1.4,8.6,1.4,10.6,0a1.5,1.5,0,0,0,.3-2.5c-.6-.7-3-1.8-3.2-1.6s-.7,0-1.2-.3l-1.2-.5a12.1,12.1,0,0,1-2.5-1,20.9,20.9,0,0,0-4.5-.9c-1.9-.3-3-.5-3-.8s-2.2-.9-2.7-.5a5.1,5.1,0,0,1-1.8,0h-1.4l1-.4c.6-.2,1-.5.9-.7s-4-1.4-4.4-1.2-.3,0-.3-.1-.5-.4-1.1-.4a1.9,1.9,0,0,0-1.6.7c-.3.5-.5.6-.5.3s-.4-.7-.9-.9S406.4,30,406.2,30.5Zm1.4.6a.3.3,0,0,1-.3.3c-.2,0-.3-.2-.2-.3s.3-.4.4-.4S407.6,30.9,407.6,31.1Zm3.6-.2c0,.3-1,.4-1.2.2s.1-.4.5-.4S411.2,30.8,411.2,30.9ZM396.3,34c0,.1-.2.2-.5.1l-.4-.3.4-.2A.5.5,0,0,1,396.3,34Zm-3.2.6c0,.2-.3.3-.5.3s-.6,0-.1-.3S393.1,34.2,393.1,34.6Zm-3.4,2.1c.1.3,0,.4-.1.3a.7.7,0,0,1-.4-.5C389.2,36.1,389.5,36.2,389.7,36.7Zm2.5-.2h-.8c-.2-.1,0-.2.4-.2S392.4,36.4,392.2,36.5Zm14.4,7c.7.2,1,.4,1,.8s-.1.5-.7.4-.6,0-.5.3-1.8,2.5-2.5,2.5-.5.2-.5.3-1.8,1.3-2.3,1.1a.6.6,0,0,0-.7.2.4.4,0,0,0,.3.6c.4.1.4.2,0,.6a.8.8,0,0,0-.2,1.1l.6,1.2a6.2,6.2,0,0,1,.2,2.2c-.1,1.4,0,1.7.5,1.6s.5.2.4.4.5.4,1.1.5,1.1.4,1.2.6.9.1,2.4-.3a9,9,0,0,1,2.9-.5.6.6,0,0,0,.7-.2,8,8,0,0,1,2.4-.5c1.9-.1,2.4,0,3.1.5s.8.9-.4,1-.9.3-.9.5-1.6.4-4.8,0c-1.5-.2-5.3,1.5-4.3,1.9s.5.8-.1.6a.9.9,0,0,1-.5-.7.4.4,0,0,0-.3-.4c-.7.1-1.8.6-1.3.6s.4.7-.2.7-.4.2-.3.8.6,1.4.8.9a.8.8,0,0,1,.7-.4c.4,0,.6-.2.6-.3s1.3-.7,1.5-.3l.7.2c1.1,0,.8,3.2-.3,3.3l-1.3-1.1c-1.1-1-1.4-1.1-2.2-.8s-2,2.5-1.8,4.5-.4,2.5-1.5,2.5a.5.5,0,0,0-.5.5c0,.3-.4.7-.8.9s-2,.1-1.7-.4-4-.5-4.8.5a9.1,9.1,0,0,1-2.3.8c-2.1.4-3,.2-3-.8s-.9-.8-4,.6a3.1,3.1,0,0,1-1.5.4c-.2-.3,1.3-1.5,1.6-1.3s.3-.1.5-.4.4-.4.6-.4a.4.4,0,0,0,.4-.4.5.5,0,0,0-.6-.1q-.5.3,0-.3c.2-.2.3-.5.2-.6s-.1-.3.1-.3.4-.2.4-.5.2-.3.3.2.4.8,1.6.8,1.5-.1,1.6-.6,1-1.4,2.4-1.5,1.2-.1,1.2-.6.1-.4.3,0,.4.4.5.3a10,10,0,0,0,1-2.9c-.2-.1-.3,0-.4.2s-.8.5-.6-.3a14.3,14.3,0,0,0,.5-2.8c0-.2.3-.4.7-.5l.9-.3.9-.3a.8.8,0,0,0,.7-.7,1.6,1.6,0,0,1,.5-.9c.4-.3.4-.5.1-1.1s-.7-1-2.3-1.8a1.5,1.5,0,0,1-1-2.1,5.2,5.2,0,0,0,.2-1.4,1.7,1.7,0,0,1,.9-1.4c.6-.3,1-.8,1-1s2.2-1.4,2.9-1.4a3.9,3.9,0,0,0,1.5-1.2c.9-.8,1.1-1.2.8-1.4s-.3-.4.3-1.2.8-1,1-.9a.2.2,0,0,0,.3-.1C402.5,43.3,405,43.2,406.6,43.5Zm-25.1,3.1c0,.5-1.6,1.9-2,1.9s-.2-.2,0-.5.3-.5.2-.5.1-.3.5-.6S381.5,46.1,381.5,46.6Zm-5.9,3.7a.6.6,0,0,1-.6,0c-.3-.1-.2-.2.2-.2S375.7,50.2,375.6,50.3Zm6.9,20.1c0,.2-.3.4-.6.5s-.4.1-.3-.1.1-.4-.1-.4a.3.3,0,0,1-.3-.3c0-.1.3-.2.6-.1S382.5,70.3,382.5,70.4Zm19.4.1c-.2.2-.4.3-.4.1s.4-.9.6-.6S402.1,70.3,401.9,70.5Zm-21.1.5c0-.1.2-.1.5.1s-.3,1.1-1.3.7-1-1.1,0-.7S380.8,71.3,380.8,71Zm-11.1,5.9a.9.9,0,0,1-.5.3c-.2,0-.1-.2.1-.4S370.1,76.3,369.7,76.9Zm71.8,15.4c-.6.4-1.2.6-1.3.5s-.3.1-.3.3a.8.8,0,0,0,.7.7c.6.2.7.3.2.5a2,2,0,0,0-.7,1.2c-.2.8-.3.8-2.1.7a5.9,5.9,0,0,0-2.2.1c-.2.2-.6,0-1-.5l-.7-.9.9-.9a3.5,3.5,0,0,1,1.8-1.1,5.3,5.3,0,0,0,1.6-.4,12.8,12.8,0,0,1,3.4-.7C442.5,91.7,442.5,91.8,441.5,92.3ZM405,116c.2,0,.3.2.2.4s-.4.5-.5.5h-.5c-.2,0-.3-.5-.4-1.1s0-1.1.5-.4S404.9,116.1,405,116Zm6.2-.7c.4.2.4.3-.1.3a.8.8,0,0,1-.7-.3C410.1,114.9,410.5,114.9,411.2,115.3Zm-2.1,1.2h-.6c-.2-.1-.1-.2.2-.2S409.3,116.4,409.1,116.5Zm.7,1.1c-.1.3-.2.2-.2-.2s.1-.5.2-.4S409.9,117.4,409.8,117.6Z"/><path class="cls-3" d="M318.1,41.6a2.6,2.6,0,0,1-1.2.5c-.3.1-.6.3-.6.5s-.1.4-.3.4l-.9.5c-.5.5-.4.5,1.5.4s2.8.6.3.9-2,.4-1.7.8a.9.9,0,0,0,.5.3c.2,0,.2-.1.2-.2s2.1-.1,2.4.3.3,1.2-.5,1.2-.9.2-.9.5.4.4,1.6.3a4.7,4.7,0,0,1,2.5.4,9.4,9.4,0,0,0,5.5.2l4.7-1.6c2-.5,4.1-1.9,4.1-2.7s-.3-.7-.9-1-.9-.5-.8-.6,0-.3-.3-.3-.1-.3.3-.6.5-.5-.6-.3a1.5,1.5,0,0,1-1.4-.1c-.3-.5-1.4-.4-1.4.2s-.3.4-.7.4h-2.8c-1.5,0-2,.2-2.3.6s-.3.5-.5,0-1.1-.7-1.1.1-.2.6-.5.5a.8.8,0,0,0-.7.1c-.3.6-.7.4-.6-.3s-.1-.7-1-1.3S318.7,40.9,318.1,41.6Z"/><path class="cls-3" d="M345.9,51.6c-.4.3-.3,1.2.1.9s.4,0,.5.2a.5.5,0,0,1-.2.6c-.2.2-.2.4.2.7s.6.4.4-.1-.1-.6.1-.7.2-.4.1-.5a.4.4,0,0,1,.2-.5,1.1,1.1,0,0,0,.3-.6c0-.2-.1-.2-.3.1s-.3.3-.5.1A.5.5,0,0,0,345.9,51.6Z"/><path class="cls-3" d="M352.8,59.6a1.3,1.3,0,0,0-.4.7c0,.5-1.3.9-2.4.7a1.1,1.1,0,0,0-1.3.6c-.8,1.3-1.7,2.1-2.1,1.9a.9.9,0,0,0-.8.2c-.4.3-.4.5-.1.9a.9.9,0,0,1,.4.6c-.1,0-.1.2-.1.3s.1.1.3-.2.3-.3.5-.1-.3.5-1,.7-1.1.5-1.1.7.3.2.6,0,.7-.3.7.1a.7.7,0,0,0,.6.6c.4.1.3.2-.4.5s-.9.5-.9.7.7.7,1.1.4.9-.2.9.4-.2.1-.3-.2-.4-.3-.4.1.2.6,1,.4.9-.1.8.3-.3.5-.5.5-.2.4.1.7.4.6.5.4,2.7-.4,2.5,0,.1.7.4,1a1.5,1.5,0,0,1-.1,2.2,3.1,3.1,0,0,1-1.5.1c-.7-.1-1.2,0-1.2.2s.1.2.3.1.3.1-.4.8l-.7.7h.8c1.4-.2,1.2.9-.4,1.5s-1.6,1.6.3,1.7,2.7.7,1.3.7-2.2,1.1-2.2,1.6l-1.1.9c-.6.3-1.1.6-1,.7a1.7,1.7,0,0,0,2-.2,2.5,2.5,0,0,1,1.7-.3,1.4,1.4,0,0,0,1.4-.4c.4-.5.9-.6,2.8-.5a6,6,0,0,0,2.3-.1c0-.2.6-.3,1.4-.2s4.1-.9,4.1-1.4-.3-.4-.5-.4a.5.5,0,0,1-.1-1c.9-.4,1.6-1.8,1.2-2.5A2.2,2.2,0,0,0,359,76c-.5.3-.6.3-.2-.1s.4-.7,0-1.5l-.4-1.2c0-.4-.9-1.3-1.7-1.8a1.9,1.9,0,0,1-.9-1.2c-.3-1.2-1.2-2.3-1.8-2.3s-.8-1.1.1-1.7a1.4,1.4,0,0,0,.6-.8,1.6,1.6,0,0,1,.5-.9q1.2-1.2-1.8-1.2c-1,0-2-.1-2.1-.3s0-.3.2-.3a3.1,3.1,0,0,0,1.2-.7c.4-.3.7-.6.5-.6s.1-.3.4-.7l.9-1.1C354.8,59.1,353.2,59.1,352.8,59.6ZM346.6,64a.3.3,0,0,1-.3.3c-.2,0-.2-.2-.1-.3a.3.3,0,0,1,.3-.3C346.6,63.7,346.6,63.8,346.6,64Z"/><path class="cls-3" d="M342.2,69.7c-.8.3-2.3,2-1.7,2s.3.2.2.3-.9.3-1.7.2-1.5,0-1.7.5-.2.6.1.7.3.3,0,.6-.5.9.4,1.1,1,.8-.5,1.9-1.8,2.1-1,2.1.3.2.1.4,0,.3.3.2.6-.1.6.1,2.5,0,4.1-.8a5.6,5.6,0,0,1,2.5-.8c.9,0,1.1-.1,1.4-1.3a10.9,10.9,0,0,0,.4-2.5c0-1.1.1-1.4.8-1.6s1-1.3.2-2.2S343.5,69.3,342.2,69.7Z"/><path class="cls-3" d="M377.8,103.1a1.5,1.5,0,0,1-1,.7,1.4,1.4,0,0,0-.9.8,3.5,3.5,0,0,0,.9,2.8c.6.3.5.4-.3,1s-.9.5-1.1.1-.3-.2-.4.2a2,2,0,0,0,.2,1.3,1.4,1.4,0,0,1,.3,1.2c-.5,2.6-.5,2.8.2,3.2s.8.2,1.1-.2.7-.5.9-.4.8-.4.9-3.1,0-2.3-.4-2.7-.6-.6-.3-1.6S378.3,102.2,377.8,103.1Z"/><path class="cls-3" d="M410.8,123.3a.8.8,0,0,0-.3.7c0,.4.4.6,1.4.8s1.4.3,1.5.5.9.2,2,.1,2.2-.7,1.3-1-.4,0-.2.3.1.3-.4-.1a4.9,4.9,0,0,0-2.2-.6c-.9,0-1.7-.2-1.7-.4h-.4a.4.4,0,0,1-.6-.1C411.1,123.2,410.9,123.1,410.8,123.3Z"/><path class="cls-3" d="M178.4,188.3c-.5.2-.9.6-.9.9s-.1.6-.4.6a3.3,3.3,0,0,0-1.3.7,3.1,3.1,0,0,1-1.9.6c-.8,0-1.3.2-1.4.5s-.4.4-.9.3-3.1,2.3-2.8,4.1a.3.3,0,0,1-.3.3c-.4,0-1.3.8-1.3,1.2a2.4,2.4,0,0,1-.9.8c-.7.4-.9.8-.8,1.1s-.4-.1-1.2-.9-3.3-2.5-4.2-2.5-.3.4-.3.9a1.3,1.3,0,0,0,.8,1.3,2.1,2.1,0,0,1,1,1.1.4.4,0,0,0,.6.3c.2-.1.2,0-.1.3a2.2,2.2,0,0,0,.5,2.6,2.5,2.5,0,0,1,.8,1.2c.5,1.1.7,6.7.3,6.9s-.2.5,0,.9-.2,2.9-.7,2.9-.3.1-.3.4-.5.6-1.1.8-1.2.7-1.2,1.2a1.1,1.1,0,0,1-.4.9c-.4.1-.5.4-.4.9s.1.9-1.2,1.4-1.5.6-1.5,1.8-.2,1.3-.5,1.4a1.2,1.2,0,0,0-.5,1,1.3,1.3,0,0,1-.6,1.1c-.4.2-.6.5-.5.7s.4,2.9.1,2.9.1.4.6.9a3.4,3.4,0,0,1,1.1,1.3c0,.2.1.4.3.4s.3-.2.3-.4.1-.3.2-.2-.2,1.2-.6,1.2a5,5,0,0,0-1.6,1.4c-1.1,1.2-1.2,1.5-1,2.6a2.7,2.7,0,0,0,.6,1.8c.5.6.6,1.3.2,1.3s-.2,1,1.1,1.6a5.9,5.9,0,0,1,2.3,2.4,24.7,24.7,0,0,0,1.6,2.6c.3.5,1.1,2.1,1.7,3.4s1.4,2.8,1.7,3.3a3.6,3.6,0,0,1,.6,1.3,3,3,0,0,0,.6,1.1,1.7,1.7,0,0,1,.7,1.1c0,.3.1.7.3.8a11.7,11.7,0,0,1,2.5,4.2c-.3.8.3,2,1.9,3.6a27.2,27.2,0,0,0,7.8,5c.6.2,1,.4,1,.5s.6.6,1.2.9,1.1.7,1.1.9.8,1.2,1.1,1.2,1.7,1.5,2,2.8c1,3.5,1.7,11.1,1,11.1s-.2.3-.2.8.1.8.2.8.9,13.2.4,14.3a2.1,2.1,0,0,0,.2,1.7,3.6,3.6,0,0,1,.3,2.6,4.9,4.9,0,0,0,.5,3.1,10.6,10.6,0,0,1,.6,2.2c0,.3.2.6.3.6s.4.6.4,1.4v2c0,.7-.2,4.4-.5,7.1-.1.9-.2,2-.2,2.4s-.1.7-.5.5-.5,0-.3.7a3.1,3.1,0,0,0,.7,1.4,1.4,1.4,0,0,1,.4,1,7,7,0,0,0,.9,1.8,2.8,2.8,0,0,1,.6,2.3,7.6,7.6,0,0,0,.9,4.9c.3.3.4.6.2.6s-.3.4-.2,1l.4,2c.4,1.9,1.4,2.5,2.1,1.2a.9.9,0,0,0,0-1.1c-.2-.3-.3-.5-.2-.5s.1-.2-.1-.5-.3-.5-.2-.5.1-.1-.1-.3-.5-1,.1-.8.5.1.4-.3-.1-.4.1-.3a.8.8,0,0,1,.3.7.4.4,0,0,0,.4.4c.1,0,.2.1.1.3a2.4,2.4,0,0,0,.2,1.3c.1.7.3,1.9.4,2.7a4.1,4.1,0,0,0,.6,1.9c.3.2.2.3-.2.5l-.9.3c-.1,0-.1-.3-.1-.8s-.3-1.4-1.1-1.4-.3.2-.1.4.4,1.3-.1,1.3a.9.9,0,0,0-.8.6c-.4.7-.4,1.3,0,.7s1.6.1,1.6,1.1-.1.8-.3.8-.3.3-.2,1a1.7,1.7,0,0,1-.3,1.4.9.9,0,0,0-.3.9.6.6,0,0,0,1.2.2c.1-.3.3-.3.8,0s.9.3,1,.2.3,0,.2.3-.1.5.1.5-.1,1.7-.8,2.1-.6.5-.5.6a1.1,1.1,0,0,1,.2.5c.1.6.6,1.6.9,1.6s.2.1.2.3a4.4,4.4,0,0,0,1.1,2.3,2.3,2.3,0,0,1,.7,1.3c.2.6.4,1,.6,1h.7c.2,0,.5.6.6,1.3s.2,1.2.2,1,.4.2.8.7.8,1.1,1.3.9a1.7,1.7,0,0,1,1.5.6c.4.4.9.7,1,.6a.3.3,0,0,1,.3.3c0,.4-.4.3-1.8-.2s-.3.1.5.8,1.1.9,1.3.6,1,0,.7.6,0,.4.1.4,1.4.4,1.4.9.4.4,1,.4.9-.1.8-.5a.7.7,0,0,0-.8-.4c-.4.1-.6.1-.6-.1s1.3-.2,1.6.4.4.8.3.9.2.3.5.5a3.9,3.9,0,0,1,1,.8c.6.5,1.1.5,1.1-.1s.1-.2.3.1.4.5.6.5l1.1.4a1.6,1.6,0,0,0,1.2.3c.2-.1.4-.1.5.1a.4.4,0,0,0,.5.2c.2-.1.3-.1.3.1s.6.3,1.5.3a4.1,4.1,0,0,1,1.9.4c.3.2.6.3.7.2s0-.5-.4-.7-.3-.4,1.3-.3,1.8,0,1.6-.3.1-.5.4-.5a.7.7,0,0,0,.6-.5.8.8,0,0,1,.5-.5c.2,0,.2.2,0,.5s-.4.5.1.5.5-.3.5-.7-.2-.6-1.1-.6-5.2-1.9-7.1-3.7-1.6-1.9-1.5-2.1-.3-.5-.8-.9-2.7-3.1-2.7-3.9a.8.8,0,0,1,.8-.9c1-.2,1.2-1,.8-2.2s-.2-1.3,1.5-2.9,1-1.1.9-1.3a2.3,2.3,0,0,1-.4-1c-.1-1-.7-1.4-1.7-1.4a5.5,5.5,0,0,1-3.5-1.9,2.4,2.4,0,0,1,2.1-3.3c.8,0,1.3-.5.7-.8s-.2-.3.1-.5.3-.5-.1-1.6l-.5-1.4.9-.9a3.6,3.6,0,0,1,1.5-.9c.5,0,.6-.8.1-1.7s-.6-.6-1.7-.4l-1.5.2-.7-1.7c-.5-1-.7-1.8-.5-1.9a5.4,5.4,0,0,1,1.5.4c1.6.6,2.6.7,3.7.2s1.1-1.4.5-1.8-.3-.6-.2-1.3a1.8,1.8,0,0,0-.3-1.8c-.6-.6-.6-.6,0-.4s.5.2.4-.1.2-.4,1.2-.4c3.5,0,7.9-1.6,7.9-2.8a2.4,2.4,0,0,1,.3-.9c1.2-1.3,1-4-.2-4s-1-.6-1-1.8-.8-1.6-2.4-2.4-1.1-.8-1.1-1.2-.1-.6.5-.1a2.3,2.3,0,0,0,1.6.6c.6,0,1,.2,1,.3s1.6.8,3.8.9,3.8-.6,4.2-2.4.3-1,.4-1,1.2-1.8,1.5-3a3.7,3.7,0,0,1,1.3-2.1c.8-.7,1-1.2.9-1.6s-.2-.5-.5.2-1.1,1.2-1.4.9.2-.6.7-1.2a4.5,4.5,0,0,0,.8-1.8c0-.4.2-.7.5-.7s.4.2.3.8.1.8.3.9.6-.3.8-1.2c.9-3.1,1.1-3.5,2-4.5a5.7,5.7,0,0,0,1.1-5.2c-.5-1.1-.6-4.8-.2-4.7a11.9,11.9,0,0,0,2.9-3c0-.1.5-.3,1-.5s.9-.3.9-.5.5-.3,1.2-.1,1.1.1,1.1-.2a.4.4,0,0,0-.4-.3c-.1,0-.2-.1-.1-.3s4.4-1.7,6.1-1.7,1.8,0,1.9-.9a3,3,0,0,1,1.2-1.4c.9-.4,1-.7.9-1.3s.4-2.1,2.2-5.7a4.6,4.6,0,0,0,.3-2.5c-.2-1.2-.1-1.7.4-2.1s.9-3.2.8-5.9c0-.5-.1-2.4-.1-4.2s.1-4,.9-4,1-1,1.7-2.6,1.4-2.9,2.2-3.7a23.7,23.7,0,0,0,3.9-5.4,10.2,10.2,0,0,0-.1-7.1,15.3,15.3,0,0,0-1-3,4.3,4.3,0,0,0-2.1-.5c-2-.2-2-.2-4.7-2.8a16.7,16.7,0,0,0-3.5-2.6c-1.6-1-1.9-1-3.2-.8a3,3,0,0,1-2.3-.1,1.5,1.5,0,0,0-1.2-.3c-.1.2-.6,0-1.1-.3s-2.8-1-2.5-.4,0,.2-.6.1-1.5-.9-1.3-1.3a.9.9,0,0,0-.4-.9,1.6,1.6,0,0,1-.5-.9.3.3,0,0,0-.3-.3.3.3,0,0,0-.3.3c0,.4-2.3-.6-2.7-1.1s-.2-.2-.2,0-.2.1-.5-.1a4.8,4.8,0,0,0-2.7-.9,2.5,2.5,0,0,0-2.3,1.7c-.6,1.4-.7.7-.2-.7s.6-2-.7-2.2a2.3,2.3,0,0,1-1.6-.9c-.3-.3-.6-.6-.9-.6s-.4-.5,0-2.3a2,2,0,0,0-.5-1.9,4.1,4.1,0,0,0-1.1-1c-.4,0-1.1-2.5-1.1-3.8s-1.3-2.9-1.3-2.3-.8-.5-1.9-1.5a8.3,8.3,0,0,0-2.2-1.7l-1.4-.6c-1.2-.5-4.9-.9-5.2-.4s-2.7-.4-4.1-1.7l-1.7-1.2c-.2,0-.3-.3-.3-.8a3.3,3.3,0,0,0-.6-1.4c-.9-1.1-3.6-2.6-4.2-2.4s-1.2-.5-.8-1,.3-1.3-.5-1.7a1,1,0,0,1-.7-.5c0-.2-.3-.3-.6-.3a1.5,1.5,0,0,1-.9-.4c-.4-.3-.5-.3-.8.1s-.3.3-.3.1a3.7,3.7,0,0,0-.2-.9c-.1-.3,0-.5.3-.5a2.5,2.5,0,0,0,1.1-.5c.5-.5.3-.5-2.5-.3l-3.3.2c-.1,0-.2.2-.2.4s-.4.6-.8.8-3.1,0-3.1-.8-.4-.5-2.7-.3l-2.8.2v-.8c0-.9-1.5-2.1-2.8-2.1s-.7-.2-.7-.8-.2-1.2-.9-.9a1.5,1.5,0,0,0-.4,1.2c0,.9-.1,1.2-.9,1.3a5.1,5.1,0,0,0-1.8.9c-.8.6-1,.6-.8.1s.1-.5-.1-.5-.3-.3-.3-.7.2-.6.5-.6a1.8,1.8,0,0,0,1.4-1.5C180.4,188.3,179.4,188,178.4,188.3Zm1.4,7.7c0,.7-.5,1.6-1,1.6a3,3,0,0,1-.6-1.3c-.4-1.1-.3-1.3.2-1.9l.6-.7.4.7A4.2,4.2,0,0,1,179.8,196Zm6,70.7c.5.5.7.9.5,1.2s-.4.4-.6-.1a.6.6,0,0,0-.6-.5c-.2,0-.5-.3-.6-.7S185,265.8,185.8,266.7Zm62.4,20.9a.4.4,0,0,1-.1.3.5.5,0,0,1-.4-.3c-.1-.2,0-.3.2-.3A.3.3,0,0,1,248.2,287.6Zm-12,21c-.1.3-.2.2-.2-.1s0-.6.1-.5A.6.6,0,0,1,236.2,308.6Zm-23.3,33.5c.1.2-.1.4-.5.4s-.6-.2-.6-.4.1-.3.4-.3A.8.8,0,0,1,212.9,342.1Zm-17.5,5.4c-.1.2-.3.4-.5.3s0-.8.4-.8S195.5,347.2,195.4,347.5Zm-.6,1.1c.3,1,0,1.1-.4.2s-.2-.9-.1-.9S194.7,348.2,194.8,348.6Zm1.5,1.1c0,.1-.3.2-.5.3s-.5,0-.5-.1.2-.3.5-.3Zm14.5,20.5c0,.8.5,1.1,1.8,1s.9,0,.2.4-.6.5-.5.7l-.4-.3c-.4-.5-.6-.6-.7-.2s-.3.1-.6-.5-.6-2.2-.1-1.9S210.8,369.9,210.8,370.2Zm-2.1,0c-.1.2-.5.3-.8.3s-.4,0,.2-.4S209,369.6,208.7,370.2Z"/><path class="cls-3" d="M230.6,365.3a1.4,1.4,0,0,1-1.1.1c-.4-.1-.4,0-.1.3s.5,1.3-.1,1.1-.4.5.5,1,1,.4,2-.7.9-1,.8-.6-.6,1.8,0,1.8a5.5,5.5,0,0,0,2.2-1c1.3-.8,1.4-.9,1-1.3a3.8,3.8,0,0,0-2.1-.5l-1.9-.2A2.4,2.4,0,0,0,230.6,365.3Z"/><path class="cls-3" d="M310.2,5.3l-8.7.4-5.4.4-1.7.2h-.8l.8.6c.6.5.7.7.2.7a1.9,1.9,0,0,1-.8-.3c-.1-.2-.4-.3-.8-.2a1.2,1.2,0,0,1-1-.3c-.6-.5-1-.6-.7-.2s-.3.4-1,.4-1.1.1-1,.5.1.5-.5.3-3-.5-3.4,0-.4.6-.4,0-.3-.6-3.6-.4l-5.8.4c-1.1.1-1.9.1-1.6-.1s.3-.7-.9-.7a2.8,2.8,0,0,1-1.6-.4c-.2-.3-3.5-.4-11.4-.4-11.3-.1-14.9.1-17.2.9a4.9,4.9,0,0,1-2.7.1,6.6,6.6,0,0,0-3.1.1l-4.2.5c-3.8.2-6,.5-6,.8s.3.3.7.3a.6.6,0,0,1,.6.5c0,.2.5.5,1.1.7s.8.4.4.4a1.8,1.8,0,0,0-1.1.4c-.4.4-.4.3-.3,0s-.3-.5-.7-.6a2.5,2.5,0,0,1-1.4-.8,2.9,2.9,0,0,0-2.2-.6c-.9,0-1.7.1-1.8.3s-.7.3-1.3.3-1.1.2-1.1.4-.3.3-.7.3a9.2,9.2,0,0,0-2.2.6c-1.1.5-1.4.7-1.4,1.4s.2.8.9.9.8.1.4.3-.5.2.1,1,.7.8,4.9.8,6.6.5,5.3,1-.7.1-.8-.1-2.5-.6-3.4-.2a.6.6,0,0,0-.2.8c.1.6,0,.7-.6.5a5.9,5.9,0,0,0-2.4.3l-1.9.2c-.3-.2-1.5.3-1.5.6s.1.2.4.1.2-.1.1.1-.4.3-.9-.1-.9-.5-2-.3-1.5.1-1.6-.1a1.5,1.5,0,0,0-1-.4c-.5,0-.9-.1-1-.3s-3.1,0-3.4.3l-.6.4c-.4.2-.4.2,0,.2s1.2,1.5.8,1.9a9.9,9.9,0,0,1-2.3.3h-2.2l.9-.8c.8-.8.8-.9.4-1.4s-.7-.4-1.2-.1-1,.5-.8.1-1.9-.4-3.9.2-1.7.6-1.7.9-.2.4-.4.3-.2-.3-.1-.5-1.4-1.3-2-1-1.8,1.3-1.3,1.3.2.1.1.3,1,1,2.2,1,1.4.1,1.3.6.3.6,2.4.5,2.5-.3,2.8-.6.5-.5,1-.3.4.3.2.4-.3.3.1.6.4.4.2.5-.5.6.1.6.5-.1.5-.3a2.6,2.6,0,0,1,1.5-.1c1.5.1,1.8,0,2.5-.7s.8-1,.4-1.2-.3-.4,0-.5a.8.8,0,0,0,.4-.6c0-.7,2.8-.6,3,0a1.2,1.2,0,0,1,.2.6,2.5,2.5,0,0,1-1,.4c-.7.4-1.5,1.7-1,1.8a62.3,62.3,0,0,0,7.6.5c4.1.1,5.9.1,6.2-.2s.5-.3.7,0,3.7.2,5.6-.3,1.9-1.1,1.9-1.6-4.4-1.3-8.8-.5a11.2,11.2,0,0,1-2.8.2l-1.8-.2c-1.4-.1-2.9-.9-1.5-.9a1.3,1.3,0,0,0,.9-.2,21.9,21.9,0,0,1,4.3-.3h8.6c.7,0,.7,0,0,.4s-.1.2,1.3.1,1.7-.1,1.2.1-.9.7.1.7.9-.2,1-.7a1,1,0,0,1,.9-.6c1.2,0,2.8-.7,2.8-1.2s-.3-.4-.9-.3-.7.1-.6-.1.5-.3.9-.3a6.4,6.4,0,0,0,1.7-.5,8.1,8.1,0,0,1,2.6-.7c2.2-.2,2.9-.4,2.4-.8s-.1-.2.5-.1,1.1,0,1.2-.2a1.1,1.1,0,0,1,.8-.3,2.3,2.3,0,0,0,1.3-.8c.8-.8,1.6-1,5.2-1.3a9.5,9.5,0,0,0,2.8-.7l1.5-.6c6.7-1.2,8.6-1.6,8.2-1.8s.2-.2.8-.1a2.5,2.5,0,0,0,1.6-.1c.5-.4,5.1-1.2,5.4-.9a1.7,1.7,0,0,1-.4.6c-.4.4-1.2.5-2.4.5s-9.1,1.4-9.3,1.9.3.4,1.3.4,1.5.1,1.5.3-1.5,1.1-4.5,1.3c-4.7.4-9.8,1.2-10.8,1.7l-.8.5.8.3,1.4.4c.4,0,.7.1.8.3s-.6.2-1.6.2-1.9,0-1.9.2.1.3.6.3.8.1.6.4,2.3,2.2,4.2,2.4,1.6,0,1.4-.2.1-.2.8-.1a2.3,2.3,0,0,0,1.3.2c.8-.5,5.5-.4,7.8.2s3.4.9,2.4.9-.4.9.5,1.1.7.3.1.7-.5.4,0,.6.5.2-.1.2-.7.2-.6.3.4.3.8.2.3,0-.3.5l-.8.7.7-.2c.8-.1.8-.1.2.5s-.5.7-.1.9.3.3-.2.3-1,.5-.3.8.1.4-.6.9-.8.9-.4,1.4.7.6,1.6.4,1.3-.1,1.4.1-.1.2-.3.1-.5,0-.5.2.2.3.6.3.6-.1.6-.5,0-.6.2-.6.3.2.2.4.3.4.7.4.8.2.8.7-.4.8-.7.3-4-.4-4.2,0,0,.3.2.4,0,.2-.5.1-.8-.1-.7.1-.1.6-.5,1.1l-.6.8,1,.6a3.7,3.7,0,0,0,2.8.1c2-.5,2.4-1,1.2-1.6s-.8-.4-.7-.5.4-.1.6.1a1.8,1.8,0,0,0,1.1.4c.9,0,.9,1,0,2.3s-.7.9-2.1.7-1.6-.1-2.4.8a4.1,4.1,0,0,1-1,1c-.4,0-1.8,1.8-1.8,2.2s.2.4.6.5.4,0-.2.2-1.5,1.5-1.1,1.8.2.5.1.9-.1.6.4.5.5-.1.4.2-.1.5.1.5.1.6-.1,1.2-.4,1.3,0,1.5.4.4.1.5.1,2,.7,2,.3.3.2,1-.1.9,0,.9.5.6.7,1.3a2.8,2.8,0,0,0,.8,1.4.9.9,0,0,1,.5.9q0,1.1,1.2.3c.8-.4,3.7.5,3.7,1.2a.7.7,0,0,0,.5.6l1.3.5a2.3,2.3,0,0,0,2.8-1c.2-.3.5-.7.7-.7s.5-.3.6-.6a6.9,6.9,0,0,1,1.3-1.7,6.7,6.7,0,0,0,1.3-2,1.4,1.4,0,0,1,1-1.1,7.7,7.7,0,0,0,1.7-1.2,7.6,7.6,0,0,1,1.4-1c.3-.1.6-.4.6-.6a2,2,0,0,1,.7-1.1,1.5,1.5,0,0,0,.5-1.3c-.1-.3-.1-.6,0-.6s2.3-.8,2.1-1.1.6-.2,1.4-.2,1.4-.1,1.2-.5-.1-.3.3,0,2.2.8,2.2.5a.5.5,0,0,1,.5-.4c.2,0,.4-.1.4-.3s.2-.3.4-.2.5.1.7,0a8.5,8.5,0,0,1,2.2-.9,10.1,10.1,0,0,0,3.4-2,8.8,8.8,0,0,1,2.4-1.6,2,2,0,0,0,1.3-.7c.2-.5.3-.5.6-.1s.7.4,1.7.2a65.4,65.4,0,0,0,10.8-2.4l1.6-.7,2.5-.9,2.2-.9-1.9-.2c-2.6-.3-4.9-.8-4-.9s.7-.1.6-.7.1-.7.8-.7,1,.1,1.1.5.1.8.3.8,3.6.7,4,.4a2.3,2.3,0,0,0,.5-1.6c0-1.3,0-1.4-1.1-2s-1-.5-.3-.3,2.2-.5,1.5-.9-.3-.3.1-.3.6-.2.4-.6.5-1,2.2-1,2.1-1.1,1-1.4-.4-.2.2-.3H329a7.6,7.6,0,0,0,3.3-1.5.8.8,0,0,1,.9-.3c.3.1.6.1.7-.1s0-.3-.3-.3-.5-.2-.4-.3-.2-.4-.7-.4-1.5.8-1.2,1.4-1.2.4-1.5,0,0-.4.4-.6a2,2,0,0,0-.3-3c-.9-.6-.5-.9,1.1-.7s1,.2.9.6-.1.4.1.3.3,0,.2.4.2.8.6-.3.6-1,.8-1,.4-.2.4-.5-.5-.6-1.3-.7l-1.5-.2c-.1-.2.1-.2.5-.1a1.4,1.4,0,0,0,1.1-.1c.3-.2.2-.3-.4-.6a2.6,2.6,0,0,1-1.1-.7c-.2-.2-.3-.2-.7.1s-.9,0-.1-.7,1-.6,2-.4,1.3.1,1.1-.4,0-.5.4-.5.4-.1-.1-.3-.4-.5,1.7-.8a2.9,2.9,0,0,0,1.6-.5,4.2,4.2,0,0,1,1.4-.5c.7-.1,1.2-.4,1.1-.5s.3-.3.9-.3,1.2-.1,1.3-.3a10.6,10.6,0,0,1,2.5-.6c3.2-.6,2.5-1.1-2.1-1.3-2.7-.1-3.9,0-4.2.2s-1.9.2-1.6-.3-.1-.3-.3-.3-.5.2-.4.4-.2.4-.6.5-.5-.1-.4-.3a.6.6,0,0,0-.6-.5c-.3-.1-.5-.1-.4.1s-.4.5-1.3.8-2,.8-1.2.2.5-.6.4-.8,0-.5.2-.6L333,7c.8-.3.4-.4-2-.6a12.6,12.6,0,0,1-3.4-.7C326,5.2,315.9,4.9,310.2,5.3ZM297.5,7.7c0,.5,0,.5-.8.2s-.5-.2.1-.4l.7-.3Zm31.1.1a2.4,2.4,0,0,1-1.2.3c-.5,0-.5,0,.2-.3S329.1,7.5,328.6,7.8ZM231,8.3a.6.6,0,0,1-.6.1c-.3-.1-.2-.2.2-.2S231.1,8.3,231,8.3Zm1.6,2.4a2,2,0,0,0-1.6.7c-.5.9-.8.8-.6-.1s1.1-1.2,2.6-.9S233.6,10.6,232.6,10.7Zm5.1-.3q.2.3-.3.3c-.5,0-.5.1,0,.5s.6.5-.2.2-.8-.5-.6-.9S237.5,10,237.7,10.4Zm-5.3,2.2c0,.3-.1.4-.2.2l-.6-.5c-.2-.1-.1-.3.3-.3A.6.6,0,0,1,232.4,12.6Zm-.6.5-.4.4a.2.2,0,0,1-.3-.1.4.4,0,0,1,.3-.4Zm-6.2,1.3a1,1,0,0,1-.7.5c-.2,0-.1-.2.3-.5S226.1,13.8,225.6,14.4Zm31.4,2a1.1,1.1,0,0,1-.8,0h.4C257.1,16.3,257.2,16.4,257,16.4Zm-4.8.4h-.8c-.2-.1-.1-.2.4-.2S252.4,16.7,252.2,16.8Zm-53.2,2c.4.6,0,.7-.5.2s-.2-.5,0-.5A.7.7,0,0,1,199,18.8Zm-5.1.5h-.6c-.3-.1-.2-.2.2-.2S194,19.2,193.9,19.3Zm127.7,5.6c.1.2.1.4-.1.4a.4.4,0,0,1-.4-.4c0-.2.1-.3.2-.3Zm-.7,1c-.9.4-1,1.2,0,1.5s.6.5-.3.2a.8.8,0,0,1-.7-.8,1.3,1.3,0,0,0-.6-.9c-.4-.2-.3-.3.9-.3S321.5,25.7,320.9,25.9Zm2.9-.1h-.9c-.4-.1-.2-.2.3-.2S324,25.7,323.8,25.8Zm.1.6c0,.1-.3.1-.6.1s-.1-.2.2-.2S324.1,26.3,323.9,26.4ZM263.2,46.8c-.1.1-.3,0-.6-.2s-.2-.4.2-.2S263.3,46.7,263.2,46.8Z"/><path class="cls-3" d="M200.8,12.6c-.8.1-1.5.4-1.5.6a2,2,0,0,1-.6.9c-.4.3-.6.5-.5.6l2.5.4a9.7,9.7,0,0,1,2.8.4,2.7,2.7,0,0,0,1.5.4c1,0,1.3-.2,1.7-1s.5-.9-.5-1.4l-1.9-.6-1.4-.3Z"/><path class="cls-3" d="M187.3,14.1c-2.5.4-3.4.8-1.7.8a3.8,3.8,0,0,1,1.5.3c.2.1-.6.2-1.8.2s-2.4.1-2.6.5.5,1.1,2.7.8,3.5-.9,2.7-1.2h.7c.8.1,1,.1.9-.2s0-.4.5-.4a2.1,2.1,0,0,0,1.2-.3c.4-.3.4-.3,0-.6S190.4,13.6,187.3,14.1Z"/><path class="cls-3" d="M173.7,16.5a32.8,32.8,0,0,0-7.3,1.7,6.7,6.7,0,0,1-1.8.3,6.8,6.8,0,0,0-1.9.3c-1.2.5-1.4,1.3-.1,1a1.2,1.2,0,0,1,1.1.3c.2.4.4.4.9-.1s.7-.5.7-.2.3.3,1,.2,1-.2.4.2-.6.5.3.5a4.5,4.5,0,0,0,1.6-.3c.5-.1.9-.2.9-.1l-.9.5c-.8.3-.8.4-.3.6a3.8,3.8,0,0,0,1.9.4c.8.1,1.3.3,1.3.5s1.6,1.1,5.5.4l6.8-.8a9.7,9.7,0,0,0,4.7-1c2-1.1,1.8-1.6-.5-1.5h-1.5l.5-.8c.5-.8.4-1.2-.2-1.2s-.2.2,0,.4.1.3-.2.1a3.5,3.5,0,0,0-1.6.2c-2.3.7-2.2.6-1.6.9s.3.3-.3.3-1,.6-.1.8-.3.2-1.4.2-1.8-.1-1.7-.3-1-1.3-3-1.5-2.1-.2-1.1-.6.8-.5.6-.5.1-.1.6-.3,1-.3,1-.5S176.8,16.3,173.7,16.5Zm-.7,3,1.5.2H173a5.3,5.3,0,0,0-2,.2q-.5.3.3.3c.3,0,.4.1.2.2a1.6,1.6,0,0,1-1.1-.2c-.5-.2-.6-.3-.2-.3s.6-.2.6-.4-.4-.2-1.1-.1-1,.2-.2-.3a1.4,1.4,0,0,1,1.4-.1A11.3,11.3,0,0,0,173,19.5Zm1.2-.7c-.1.2-.5.3-.9.3s-.5-.1-.4-.3.5-.3.8-.3S174.3,18.6,174.2,18.8Zm-.4,2.9c.2.2-.2.3-.8.3s-1.1,0-.3-.3l.9-.3Z"/><path class="cls-3" d="M154.2,22.9a1.9,1.9,0,0,0-1.2.9c-.2.5-.6.8-.8.8l-1.9.8a5.8,5.8,0,0,1-1.9.8,1.2,1.2,0,0,0-.8.5,10.4,10.4,0,0,1-2.1,1c-.8.3-1.4.7-1.3.8s.3.2.5.1,1.6.8,1.4,1.3.5.9,2.1.4a14.1,14.1,0,0,1,2.7-.5,4.7,4.7,0,0,0,2.1-.6c1.1-.8,4.8-2,5-1.7s-.3.4-.9.5l-1.6.6c-.6.5-.6.5-.1,1s.6.4-.4.8-1.2.4-.5,1.1,1,.5,3.5.3l4.5-.2c.5.1.9.2.8.3l-3.9.3c-4.8.1-6.4.4-6.4,1.2s.9,1.5,2.9,1.5,1.7.1,1.4.4a1.8,1.8,0,0,0-.4.9c0,.5.4.5,2.8.5a38.2,38.2,0,0,0,4.5-.5l3-.5h1.5l-1.3.3c-2.7.5-3.3.9-3.1,2.2s-.2.4-1.2.2-1.6-.4-1.3-.7a1.5,1.5,0,0,1,.8.2c.8.4,1.2.1.6-.5a1.2,1.2,0,0,0-1.4-.1c-1.8.7-5.8,1-7,.5s-.5-.2-.4.1-.2.4-1.2.3-1.4-.5.7-.8,2-.7,1.1-1.4a3.9,3.9,0,0,0-2.6-.6,8.8,8.8,0,0,1-3.3-.5l-2-.5a1.4,1.4,0,0,1-.9-.5c-.5-.6-3.1-.6-4.4,0a2.2,2.2,0,0,1-1.7.3c-.7-.2-.9-.8-.3-.8a.3.3,0,0,1,.3.3.4.4,0,0,0,.4.4.2.2,0,0,0,.1-.3c-.1-.2.1-.4.3-.5s.5-.3.5-.5-1.5-.1-2.3.4a7.7,7.7,0,0,1-2.4,1.2c-.1,0,0-.6.1-1.3s.1-1.3-.4-1.5a.8.8,0,0,0-.8.2A4.6,4.6,0,0,1,133,33c-.4,0-.6-.2-.4-.5s.1-.5-.4-.3l-1.3.3a35.3,35.3,0,0,0-6.5,1.5c-.5.2-.4.3.4.1s.9-.1.3.2-.7.3-1.4,0-3.9-.7-3.9-.3-.3.3-.6.3a2.6,2.6,0,0,0-1.2.5c-.9,1-4.5.4-4.2-.6s-.3-.4-1.5-.5-3.5-.3-3.5-.8a4.8,4.8,0,0,0-2.3-.2,32.9,32.9,0,0,1-4.5-.3l-4.8-.6c-2-.2-2.7-.3-2.7-.7s-.3-.4-1.7-.3-1.8,0-1.9-.3a.4.4,0,0,0-.6-.3.7.7,0,0,1-.8-.3c-.2-.4-.5-.3-2.1.2a18.6,18.6,0,0,1-4.1.8,27.6,27.6,0,0,0-4,.6,13.5,13.5,0,0,1-2.9.5,18.7,18.7,0,0,0-6.3,2.1,18.1,18.1,0,0,1-4.6,1.2,15.1,15.1,0,0,0-3.6.8,3.7,3.7,0,0,1-1.5.5c-.8,0-.8.5,0,.8s1.5,1.3,1,1.8-.4.9.3.9.6.2.4.6-1.4,1.7-2,1.6-2.5-.5-1.9-.6a1.2,1.2,0,0,0,.9-.5c.5-.6.2-.6-2.7.1l-6.6,1.4c-2,.4-2.7.8-1.9,1.1s.5.3-.1,1.1-.5,1.4,2.4,1.4a6.8,6.8,0,0,1,2.6.3c.3.2.8.1,1.6-.2s2.3-.7,1.5-.2-.4.4,0,.4-1.2,1.5-2.1,1.8a6,6,0,0,1-1.9,0c-.7-.2-1.2-.1-1.2.1s-2,1-3.1.8-2,0-3.7,1.2a3.9,3.9,0,0,1-1.4.6,8.5,8.5,0,0,0-3.1,1.3,2.5,2.5,0,0,1-1,.4c-.9.2-1.7,1.6-1.4,2.2s-.1.4-.6.6-.8.5-.7,1.4.1,1.2.8,1.2l2-.3c1.1-.3,1.2-.2.9.3a2.3,2.3,0,0,1-.9.8,2.3,2.3,0,0,0-1.1.9,1.8,1.8,0,0,1-1.1.9c-.4,0-.4.1-.2.3s.6.3,1.1,0,.6-.3.5-.1,0,.5,1.1-.1,2.7-.3,2.4.4.8.6,1.3-.1.5-.4,1.1-.2.8.3-.6,1.4A20.9,20.9,0,0,1,40.1,64l-2.1.9L34.9,66c-2.9,1-4.2,1.5-4.2,1.9s-.3.1-.6,0-1.6-.1-5.3,1.3A10.2,10.2,0,0,1,21,70.3c-1.6.2-4,1.4-3.6,1.8a.9.9,0,0,0,1,0,3.8,3.8,0,0,1,1.6-.4,4.1,4.1,0,0,0,1.8-.5,3.8,3.8,0,0,1,1.7-.3,1.8,1.8,0,0,0,1.2-.3.9.9,0,0,1,.9-.3c.1.1.3,0,.4-.2s1.8-.3,2,.3.5.8,1,.3.5-.3.9,0,.5.3.8-.2.3-.7-.1-.7a.5.5,0,0,1-.5-.5c0-.4.2-.5.8-.3a2,2,0,0,0,1.6-.4c.4-.2.9-.4,1.1-.3s2.5-.6,3.2-1.3.6-.4.7-.3.3.1.3-.1.4-.3,1-.2.9.1.8-.1.4-.4,1.1-.5a7.6,7.6,0,0,0,2-.8c.6-.5,1.5-.8,3.8-1.5l1.1-.4,1.5-.4,1.8-.8a5.9,5.9,0,0,1,2-.8c.9,0,1.7-.9,1-1.3s-.3-.3.2-.4h1c.2.1.5-.1.6-.4a1,1,0,0,1,1-.5c.4,0,.8-.2.8-.3s.3-.4.6-.4a2.1,2.1,0,0,0,1.2-.4c.9-.6,1.8-.9,1.8-.6s-.4.5-.9.7-.7.5-.6.7-.2.5-.8.7-1,.4-1,.6,1.7.3,4-.5a8.6,8.6,0,0,1,2.2-.6c0,.1.2,0,.4-.2a4.9,4.9,0,0,1,3.2-.2,4,4,0,0,0,2-.5c1.3-.6,1.9-1.3,1.1-1.3a.4.4,0,0,0-.3.4.3.3,0,0,1-.3.3c-.1,0-.2-.3-.2-.6s.4-.5.8-.5.7,0,.7-.2.3-.3.8-.3,1,.7,0,.9-.7.4-.7.6.1.3.9,0a3.7,3.7,0,0,1,2.1,0c.9.3.9.4.2.6a1,1,0,0,0-.7.5c0,.2.2.2.5.1a11.4,11.4,0,0,1,2.9-.4,6,6,0,0,1,3.3.4,3.6,3.6,0,0,0,1.9.4c.6-.2.8-.2.4.1s-.3.4.4,1a3.1,3.1,0,0,1,1,1.4,1.1,1.1,0,0,0,.5.8c.5,0,0,2.4-.7,3.2s-.6.7-.2.6.4.1.4.6,0,.7-.2.6-.2.1-.2.3.5.7,1.1-.2.5-.6.6-.5-.2.6-.8,1-1.2,1.2-.2,1.2h.7l-.7.3c-.6.3-.7.5-.6,1.4s.2,1,1.1,1.1a1.6,1.6,0,0,0,1.5-.5c.6-.7.6-.7,1-.1s.4.5.8-.3l.3-.8-.2.9c-.1.5,0,1,.2,1.1a.7.7,0,0,1,.3.5q0,.5-.3,0c-.2-.4-.3-.3-.6.1s-.4.6-.5.4-1.2.6-1,1a.4.4,0,0,1-.2.5c-.4.4-.3.8.4,1.5s.6.6.3.6-.3.3-.3.8.3.7.6.6.2.3-.2,1-.6,1.3-.4,1.4.2.3,0,.4-.2.5.5,1.2.8.8.3.6a3.1,3.1,0,0,0-2.3,0c-.5.1-.8.1-.8-.1s.3-.4.8-.5.6-.1-.1-.1-.9.2-.8.9-.1.9-.3.9,0,.2.4.5.8.5.8.8a1.5,1.5,0,0,1,.1.6c0,.2.4.5.7.6s.6.3.5.5,0,.4.3.5.4.3.3.4.1.3.3.3l1,.5c.6.4.6.5-.3.4s-1.1.1-1.9,2.6a24.1,24.1,0,0,1-3.2,6L82,98.5a19.8,19.8,0,0,1-2,2.5,10.6,10.6,0,0,0-3,4.8,9.6,9.6,0,0,1-1.7,3.1c-1.1,1.3-1.2,1.7-1,2.2s.3.8-.1,1.8-.6,1.3-.3,2a1.8,1.8,0,0,1,.2,1.4.6.6,0,0,0,.2.7,2.7,2.7,0,0,1,.1,1.4c-.1.8-.1,1.2.2,1.4s.4.4,0,.6-.4.6,0,2.2a13.3,13.3,0,0,1,.5,3c0,1.1.1,1.1,1.2,1.2s1.2.3,1.2.6.6.6,1.4.5.2.2.1.5,0,.4.3.4,1.4,1.2,1.4,2.6a44.2,44.2,0,0,0,.4,5.3,16.2,16.2,0,0,1,.1,1.8c.1,1.2.3,1.8.8,2.2a5,5,0,0,1,1.3,1.5c.7,1.1.7,1.2.2,2s-.8.9-1.9.8-.5,0-.5.2,2.6,3.3,2.9,3.1,2.5,2,2.5,2.6a5.1,5.1,0,0,1-.4,1.4,3.4,3.4,0,0,0-.5,1.4,1.4,1.4,0,0,0,1.2,1.3c.7,0,3,2.6,3,3.4s.1.8.4.6l1-.3c.5-.2.5-.5.4-1.4a16.2,16.2,0,0,1-.2-1.8.5.5,0,0,0-.4-.5c-.1,0-.2.2-.1.4l-.4-.4c-.6-.7-.7-.7-.8-.1s-.2.3-.2-.3.1-1,.3-1.1.4-.8-.2-.8-.9-1.9-.4-2.1a.9.9,0,0,0,.3-.5c0-.2-.2-.2-.4-.1s-.3-.2-.3-.6-1.2-3.5-1.7-3.7-.3-1.9.2-2.3a.5.5,0,0,0,.1-.6c-.1-.1-.4,0-.5.2s-.4.4-.4-.2-.1-.8-.3-.9a.9.9,0,0,1-.3-.6c0-.2.2,0,.5.3s.5.6.3-.3-.4-1.4-.8-.9-.4.2-.9-.6-.6-1.1-.2-2.9.6-2.4,1.3-2.1a1.8,1.8,0,0,0,.9.2c.4-.1,1.6,1.2,1.4,1.7a8.3,8.3,0,0,0,.1,2.1,5.3,5.3,0,0,1-.2,2.7c-.4.8-.3,1.2.2,1.2s.2-.3.1-.7.1-.3.4.4a7.6,7.6,0,0,0,1,1.5,2,2,0,0,1,.4.8c0,.1.3.3.6.4s.6.4.5,1,0,.9.5,1a.9.9,0,0,1,.7.8.8.8,0,0,0,.7.7c.6.2.6.2.1,1a3.3,3.3,0,0,0-.5,1.2,3,3,0,0,0,1.7,1.6c.1,0,.4.4.7.9a5.9,5.9,0,0,0,1.2,1.7,9.4,9.4,0,0,1,1.4,1.9,14.8,14.8,0,0,0,1.3,2.1c.7.9.8,1.7.8,4.4s0,2.2-.5,2.2-.6,1.4.3,2.7a5.8,5.8,0,0,0,1.8,1.7,3.6,3.6,0,0,1,1.4,1.3c.3.7,2.2,1.5,3.3,1.5a3.7,3.7,0,0,1,1.6,1.1,13,13,0,0,0,5.2,2.7l.8.4a7.7,7.7,0,0,0,3,1.5,3.6,3.6,0,0,1,1.3.5c1,.5,1.9.3,3.8-.6a4.7,4.7,0,0,1,1.6-.5,5.6,5.6,0,0,1,4.1,2.7c2,2.6,3,3.4,4.8,3.7a8.5,8.5,0,0,1,2.2.6,7.6,7.6,0,0,0,4.5,1.2c1.2,0,1.4,0,1,.3s-.3.6.7,1.7c3,3.4,3.5,4.5,2.9,5.5s.1,1.7,1.1,2.2,1,.4,1.2-.1.3-.5.4,0,.5.8,1.1,1.1,1.6,1.3,1.1,1.6,0,1.1.4,1.1a2.4,2.4,0,0,1,1.1.7c.7.6.8.7.8.1s.1-.5.5-.3l1.1.2a.8.8,0,0,1,.6,1.4c-.4.4-.3.8.2.8s.4-.2.3-.5.7-.2,1.3.7.5.8,1.6.2,1.4-.9.7-1.9-.6-.8.5-1.3.9-.7.9-.9.3-.5.5-.6.7-2.1.3-2.1l-2.3,1.1c-2.3,1.3-2.5,1.3-3.4.6s-.6-.4-.6-.1-.1.3-.4,0a.7.7,0,0,1-.3-.8c.1-.2-.3-.6-.7-.8s-.8-.6-.8-.8-.2-.5-.3-.5-.5-.4-.7-.9l-.7-1.6a1.5,1.5,0,0,1,0-1.3,4.2,4.2,0,0,0,.4-1.5c0-.5.2-.9.3-.9s.3-.7.3-1.7a6.1,6.1,0,0,1,.7-2.8,3.8,3.8,0,0,0,.4-1.9.7.7,0,0,1,.2-.8c.3-.2.1-.5-.5-1l-1.4-1.3c-.7-.6-4.5-1.1-5.1-.7a7.3,7.3,0,0,1-3.6.1.6.6,0,0,0-.8.1c-.4.4-.6.4-1,0a1,1,0,0,0-.9-.1c-.2.1,0-.2.5-.7a4.9,4.9,0,0,0,1.1-2.3,4.3,4.3,0,0,1,.5-1.6c.2-.2.3-.4.2-.4s.1-.4.5-.8a2.4,2.4,0,0,0,.8-1.3,5.1,5.1,0,0,1,.4-1.4,5.1,5.1,0,0,0,.4-1.4,3.4,3.4,0,0,1,.3-.8,1.5,1.5,0,0,0,.2-.8,1.6,1.6,0,0,1,.5-.9c.4-.4.5-.4.3.1s.3.6.8-.1.2-.7.1-.7-.3-.2,0-.7a2.2,2.2,0,0,0,.1-1.4c-.1-.7-.3-.7-2.1-.6a20.3,20.3,0,0,0-4.2.6c-1.7.4-2.2.7-2.5,1.3a5.4,5.4,0,0,0-.4,1.2,7,7,0,0,1-.8,2,5,5,0,0,1-4,3,18.9,18.9,0,0,0-4.9,1.1c-.5.3-.8.2-1.4-.5a4.7,4.7,0,0,0-1.7-.9c-.9-.2-1.4-1-1.9-3a3.5,3.5,0,0,0-.7-1.5,3.6,3.6,0,0,1-.6-2,10.5,10.5,0,0,0-.3-2.1,4.4,4.4,0,0,1-.3-1.5,25.1,25.1,0,0,1,2.7-8.2,4.9,4.9,0,0,0,.8-3c.2-2.9,1-3.8,5.2-6.3s6.4-3.4,7.2-2.6a5.3,5.3,0,0,0,2,.3c1.1.1,1.6.2,1.6.5s.2.5.4.5,2.4.1,2.6-.2,1.3-.6,1.1-.3a1.2,1.2,0,0,0,.1.8c.2.6.2.6.8.1s.7-.5-.1-1.1-.7-.5-.1-1.1a1.7,1.7,0,0,0,.8-.9c.2-.6,6.9-.7,7.9-.1a1.7,1.7,0,0,1,.7.9c0,.8,1.1.9,2,.2s1.9-.7,2.4.3a10.1,10.1,0,0,0,.9,1.3c.7.7.7,1.4,0,2.6a3.4,3.4,0,0,0-.3,1.7c.2,1.9.6,3.5.9,3.5s.3.2.3.5a1.6,1.6,0,0,0,.6,1,2,2,0,0,1,.6,1.4c0,.7.2.9.6.7a.7.7,0,0,1,.8.3c.2.4.3.4.5-.1a1.5,1.5,0,0,0,.4-.8,1.6,1.6,0,0,1,.5-.9,8.3,8.3,0,0,0,.8-5.3,7.5,7.5,0,0,1-.2-2.3,6,6,0,0,0-.3-2.3c-1.1-4.1.7-7.6,4.8-9.7a8.5,8.5,0,0,0,2.3-1.8c.9-.9,1.6-1.4,2.2-1.4s.9-.1,1-.3a8.4,8.4,0,0,1,3.6-1.9c.9,0,1.8-.9,1.1-1.3s0-.5.9-.9,1.3-.6,1-.1a1.1,1.1,0,0,1-.9.7c-.2,0-.3.1-.1.1a1.3,1.3,0,0,0,1-.2c.6-.2.7-.6.7-2.5a8.9,8.9,0,0,0-.3-2.5c-.3-.2-.3-.6,0-1.3l.5-1.5c.2-1.1.7-1.3.6-.2a2.2,2.2,0,0,1-.4,1.3,2.1,2.1,0,0,0-.4,1.1c0,.6.1.5.8-.3s.7-1.1.6-1.3,0-.2.1,0,.8-.2,1.3-.7a2,2,0,0,0,.6-2c0-.5,0-1.1.2-1.2s.3,0,.3.3.2.6,1.7-.6a5.8,5.8,0,0,0,1.8-2.2c.4-1,.6-1.2,2.2-1.5s4.1-1.2,3.1-1.3.1-.3.9-.5l2.2-.3a1,1,0,0,0,.8-.1,1,1,0,0,1,.8-.4.9.9,0,0,0,.7-1.4c-.3-.2-.4-.2-.4.2s-.6.7-.9-.2-.2-.8.2-1.1a1,1,0,0,0,.4-.8c0-1,2.1-2.4,4.9-3.3a18.4,18.4,0,0,0,3.4-1.4,4.2,4.2,0,0,1,1.7-.5c.9,0,1.4-.5.6-.6s.7-.5,1.9-.7l1.8-.5c.5-.2,1-.2,1,0s-.8.7-1.9,1.3-2.2,1.2-2.3,2,.1,1.2.4,1.4,1.4.6,1.4.1.3-.3.7-.3.6-.1.6-.3,2.5-2,2.9-1.8h.7a25.2,25.2,0,0,1,5.7-1.9c.1.1.4-.2.6-.5a1.5,1.5,0,0,1,1-.7c.7,0,2.3-1,2.3-1.5a.4.4,0,0,0-.4-.4c-.6,0-.6-.1-.1-1s.3-.7,0-1-.8.1-2.4,1.6-1.9,1.9-1.9,1.7-.3-.2-.7-.1-3.6-.1-3.3-.6,1.7-.3,1.7.1.3.3.7.3.6-.2.6-.4a1.8,1.8,0,0,1,.9-.7c.9-.5.9-.5-.9-.6s-2.6-.2-2.3-1.1,0-.5-.3-.4a.7.7,0,0,0-.4.5c.1.2-.1.3-.3.2s-.7.3,0,1,.6.8-.2.6-1-1.1-.9-2.2a6,6,0,0,1,1.2-1.7l1.1-1.1-.8.2c-1.4.3-1.1-.1.4-.7s1.8-2.9-1.1-2.8a25.8,25.8,0,0,0-8.2,2.5c-1.8,1.1-2,1.1-.7-.1s3.7-2.3,4.6-2.3a3.1,3.1,0,0,0,1.5-.9,4.1,4.1,0,0,1,1.7-1.3,40.3,40.3,0,0,1,7.7-.3c4.1,0,6.9-.1,7-.3a1.5,1.5,0,0,1,.9-.5l1.7-1a6.6,6.6,0,0,1,4-1.5h1l-1.4,1.4c-2.3,2.3-3.9,4-3.9,4.4s-.2.3-.5.3a.9.9,0,0,0-.7.5c-.1.3-.3.4-.4.3s-1.3.6-1.3,1,.3.2.7,0,.1.2-.6.7c-2.3,1.4-1.8,1.7,2.6,1.9,8.3.4,7.6.3,7.1.8s-.6,1.3-.1,1.3.3-.1.1-.3a.4.4,0,0,1,.2-.5c.2-.1.3-.1.3.1s.1,1.2.8,1.1,3.2-3.3,2.1-3.3a.3.3,0,0,0-.3.3.3.3,0,0,1-.3.3c-.1,0-.2-.2-.2-.4s.1-.4.2-.4.4,0,.6-.3.3-.5-.1-.5a1.7,1.7,0,0,0-1.1.7l-.8.6c-.2,0,0-.3.4-.8s.6-.8.3-.9,0-.1.5-.1,1-.1,1.1-.5-.1-.5-.6-.4-.9-.6-.2-1,.6-.8-.2-1.1-.5-.3-.3-.3.3-.2.2-.4-.4-.2-.7.2-.4.4-.4.2a.5.5,0,0,0-.5-.4c-.2,0-.5.1-.5.3s-.4.2-.9.2-.9,0-.8-.3a.7.7,0,0,1,.6-.5c.9,0,.5-.6-.6-.8l-1-.2,1.1-.9c.7-.6,1.2-.9,1.3-.6s.7-.2.5-.8-.1-.6.1-.6a.9.9,0,0,0,.5-.4c.1-.4-.1-.5-.7-.5s-.8.1-.5.3.1.2-.5.2h-1a5.4,5.4,0,0,1,1.4-.8c1.4-.6,1.6-.9,2-2.6s.4-2.5-.6-2.7-1.7-1.4-1-1.8-.4-1.4-1.6-1.3-.9,0-.8-.3-1.5-1-2.3-.7-.4,0-.2-.1.5-1.2-.3-1.9-.7-.8-.2-1,.8-1.6.3-1.9,0-.6.3-1,.4-.8-.2-1.1-.6-.7-.6-1.4a4.6,4.6,0,0,0-.5-2,4.5,4.5,0,0,1-.3-2.4c0-.7,0-1.3-.1-1.3s-1.2,1-1,1.3,0,.2-.2.1-1.3.6-2.3,1.7a12.9,12.9,0,0,1-2.3,1.7,5.9,5.9,0,0,0-1.7.7c-1.2.6-1.5.6-1.9.2s-1.8-1.6-1.8-2.1a5.6,5.6,0,0,1,1.4-3.1c.2-.2.2-.4.1-.5s-.1-.3.1-.3.3,0,.3-.2-.5-.3-1-.4l-1.7-.2c-.7-.2-.7-.3-.4-.7s.3-.6,0-.8a15.8,15.8,0,0,1-2.6-2c-.3-.3-.6-.6-.9-.6a.4.4,0,1,0,0,.7c.2,0,.2.1-.2.3s-1.1.3-4.9-.4c-1.9-.3-2-.3-2.7.4a2.5,2.5,0,0,0-.8,1.4,3,3,0,0,1-2,2.4c-1.3.5-1.4.8-.2.5s.8-.1.6.6a3,3,0,0,0-.3,1.1c0,.3-.1.4-.2.4L204.9,59a7.3,7.3,0,0,1-1.6,1.1,1.9,1.9,0,0,0-1.2,1.1c0,.1.1.2.3.2s1.9,1.4,1.9,2a9.9,9.9,0,0,1-1.8,3.9,19.9,19.9,0,0,1-6.9,3.2l-1.9.3v1.4c.1.9.1,1.5-.1,1.5s-.3.3-.3.7a1.7,1.7,0,0,1-.3,1,2.2,2.2,0,0,0-.3,1.2,2.3,2.3,0,0,1-1.1,1.8c-.5.5-.9.9-.8,1.1s.1.3-.1.3-.3-.2-.4-.4-.4-.2-1,.4-1.5.6-1.5-.3a1.7,1.7,0,0,0-.6-1.1,1.3,1.3,0,0,1-.6-.9,5.4,5.4,0,0,0-.3-1c-.2-.5-.1-.5.7-.3s1.9.6,1.9-.3-.1-.8-1-.8-1,0-.9-.5a1.2,1.2,0,0,1,.5-.8,1.7,1.7,0,0,0,.3-1c0-.4.1-.8.2-.8s1.4-1.8,1.1-2l-2.8-.4a6.8,6.8,0,0,1-3-.6l-1.9-.9c-.8-.2-1.4-.6-1.4-.8s-1.1-1.6-2-1.9l-1.8-.6a2.4,2.4,0,0,0-2.2-.2l-1.4.3c-.3,0,.1-1.6.6-3s.2-1.5-1.1-1.5-1.1-.1-1.1-.2a20.8,20.8,0,0,1,3.2-4,11.2,11.2,0,0,0,2.1-1.4,9.4,9.4,0,0,1,2.8-1.6c.5-.2,1-.4,1.1-.7a2.5,2.5,0,0,1,1.2-.7,1.5,1.5,0,0,0,1.2-.4c0-.2.2-.3.4-.3a.2.2,0,0,0,.3-.3c-.1-.4.2-.4,1.7.1s.5.1.2-.1-.1-.4.7-.7a2.8,2.8,0,0,0,1.5-1,2.2,2.2,0,0,1,1-.6,1.5,1.5,0,0,0,.9-.4,3.8,3.8,0,0,1,1.9-.4,14.6,14.6,0,0,0,6.4-3,10.8,10.8,0,0,1,3.2-2l-1.8,1.8a14.8,14.8,0,0,0-1.9,2.2c0,.2-.6.6-1.4.8s-1.8,1.2-.1,1.1,1.2-.1,1,.5.6.9,2.2,0l1.7-.6a2,2,0,0,0,1.1-.7c.6-.6,2-.5,1.8.2s2.2.9,3.5.5,1.1-.6.8-1a.6.6,0,0,0-.7-.4c-.3.1-.5-.2-.6-.6s-1.4-1.6-2.9-2.3-.5-.4-.4-1.1a10,10,0,0,1,.4-1.1c.2-.2.7.8.5,1.1s.1.3,1.3.4.4-.3.4-.7.1-1.9.8-1.1.6.8.8.2a1.1,1.1,0,0,1,.8-.5,3.4,3.4,0,0,0,1.4-.5l1.3-.5a2.2,2.2,0,0,0,1.2-.8c.6-.6.6-.9.4-1.2s.3-1.3,1.7-1.8a3,3,0,0,0,1.3-1.2c.3-.7.3-.8-.2-.8s-1-.6.2-.9a2.5,2.5,0,0,1,2.1.1,2.9,2.9,0,0,0,1.8.3c1.2-.2,1.7.4.6.7s-1.8,1.1-1.1,1.1.1.3-.3.7-.7.7-.6.9.4,0,.4-.2a.8.8,0,0,1,.6-.4c.5,0,.6-.4.5-1.1l.3-.2a7.9,7.9,0,0,0,2.9-2c0-.2-.2-.2-.5-.1s-1.7.5-1.7.2.3-.4.8-.4a1.1,1.1,0,0,0,1.1-.7q.3-.6.3-.3a.5.5,0,0,0,.5.4c.3,0,.4.2.3.5s-.1.5.1.3.4-.1.4.1a2.4,2.4,0,0,0,.9.8l.9.5h-.9c-.5,0-.9-.1-.7-.3s-.5-.7-1-.3-.4.5-.1.8a.8.8,0,0,1,.1.8c-.2.3,0,.4.9.2s1.1-.1,1.1.3-.3.5-1.3.5-4.6,1.5-3.9,2.6,4.7-.3,4.7-1.2a1,1,0,0,1,.4-.7c.4-.3.5-.3.4.1s.3.7,1.2.7,1.2,0,1.2-.4a.7.7,0,0,0-.7-.5,1.6,1.6,0,0,1-.9-.6c-.1-.4-.1-.4.4-.1s.5.3.6,0,.2-.3.2,0a.8.8,0,0,0,.7.4c.5,0,.6.2.5.7a6.2,6.2,0,0,0-.1,1.3c-.1.3-.3.6-.6.6a2.5,2.5,0,0,0-1.1.4,5.8,5.8,0,0,1-2.1,1c-2,.7-2.3,1-1.8,1.5s.5.9-.2.9l-1.8.3a6.6,6.6,0,0,1-2.8,0,4,4,0,0,0-2.9.3c-1.7.9-2.4,1.6-2,2.2a3.4,3.4,0,0,0,3.4.3,11.3,11.3,0,0,1,2.5-.3H221c.5,0,.7.2.6.4s0,.3.3.3.5.2.4.5a2.8,2.8,0,0,0,.6,1.4,2.6,2.6,0,0,1,.8,1.4c0,.8.5,1,1.4.5s.9-.2,1.7.4a4,4,0,0,0,1.6.6,8.3,8.3,0,0,1,2.4.7l1.6.5c0-.1.3.1.7.5s1.6.3,1.3-.7-1-.9-1-.3-.2.3-.4.2a.6.6,0,0,1-.3-.7,2.1,2.1,0,0,0-.8-1.4c-.4-.4-.8-.8-.8-1s-.3-.3-.6-.4a.9.9,0,0,1-.7-.8c0-.5.1-.5.7.1s.7.4.8.3.5.1.7.5.5.6,1,.2.4-.2.3,0,.1.4.5.5a1.5,1.5,0,0,1,1,.9.7.7,0,0,0,1.3.3.7.7,0,0,0-.2-.7q-.5-.3,0-.3c.2,0,.4-.3.4-.6s.1-.6.4-.5a.9.9,0,0,0,1-.4c.5-.4.5-.6.1-1.2a1.1,1.1,0,0,1-.2-1.3c.4-.6-.1-1.1-1-1.1s-1-.6-1.2-1.7.1-.6.4-.6.6-.3.1-.9-.3-.4,0-.3a.6.6,0,0,0,.8-.1c.5-.4,1.9.8,2.1,1.8s.7,1.5,1,1.3h.7a1.3,1.3,0,0,0,1.9-.7c.2-.6.5-.7,1.4-.6s1.2,0,1.2-.3a1.7,1.7,0,0,1,1.3-1.3,2.7,2.7,0,0,0,1.2-.6l.8-.6-.9-.6a2,2,0,0,0-1.4-.5c-.3.1-.4,0-.2-.2s0-.4-.3-.4a2.6,2.6,0,0,1-1.2-.8,1.4,1.4,0,0,0-1.5-.6c-.4.1-.8,0-.9-.2a2.9,2.9,0,0,0-1.3-.8,3.3,3.3,0,0,1-1.1-.7c0-.4,1.5-1.2,1.9-.9s1.1-.2.6-.7-.3-.6,0-.7-.3-2.1-2-2.6a3.2,3.2,0,0,0-1.5-.2q-.3.2-.3-.3c0-.3-.1-.5-.3-.4s-.3-.1-.4-.4-.5-.7-1.6-.7a4.1,4.1,0,0,0-1.9.4c-.4.4-.4.3,0-.1s.3-.6,0-.6-.2-.2-.1-.3-.1-.3-.3-.3a.6.6,0,0,1-.6-.5.7.7,0,0,0-.7-.6l-1.3-.3c-.5-.1-.4-.2.2-.2s.9-.2.9-.5-1.1-1.4-3.7-1.6-2.7-.1-3.2.3-.5.5-.5,0-1.6-.7-4.6,0-3,.6-1.9.1l.8-.4-.8-.3c-2.2-.8-8.4,1.1-11,3.4l-.8.6c-.3,0-1.6,1.6-1.4,1.7a6,6,0,0,0,1.9.4l1.8.4h-1.9c-2.2,0-2.6.4-1.5,1.4a1.5,1.5,0,0,0,1.4.5c.4-.1.5-.1.4.1s0,.5,1.9.5,1.1,0,.8.1a2.3,2.3,0,0,0-1.4,1.8.7.7,0,0,1-.6.7,10.2,10.2,0,0,0-1.6.9c-1.2,1-1.7,1.2-1.4.6s0-.3-.2-.3-1.8,1.2-1.4,1.5-.3.4-.9.6-1,.4-1.3.1-.1-1.4.8-1.8,1.2-3.1-.7-2.4-1,.3-.8-.3.1-.6-.5-.6-.9-1.2-.3-1.4.3-.3,0-.9-.3-.8,0-1.1.1-1.8-.6-1.8.1-.3.8-.6a4.9,4.9,0,0,0,1.7-.9,4.1,4.1,0,0,1,2-.5c2.2-.2,7.1-2.4,6.4-2.9a6.6,6.6,0,0,0-1.8-.3h-2.5c-1.6-.2-3.9.2-3.8.7s-.2.3-.5.2a1.7,1.7,0,0,0-1.2.4,3.4,3.4,0,0,1-1.3.9c-.4.1-.5.4-.4.8s-.7,1.7-2.3,2.3-1,.5-1,.6-.3.2-.7.3-2.2.9-2.2,1.5-.4.6-.8.8a1.2,1.2,0,0,0-.8,1.1c.1.5-.1.7-.8.8a1.9,1.9,0,0,1-1.5-.4c-.5-.4-.7-.5-1.5-.1a3.1,3.1,0,0,0-1.2.8,2.7,2.7,0,0,1-1.5.6c-1.4.2-1.8,1-.6,1.2a1.1,1.1,0,0,1,.9.5c.1.3-.1.4-.6.2a1.3,1.3,0,0,0-1.4.6c-.7.7-1,.7-4.4.8s-3.6,0-3.8-.5-.4-.3-.8-.2-1.5-.2-.7-.6.6-.2,0-.4a.6.6,0,0,0-.9.2c-.2.2-.3.2-.4-.4a.9.9,0,0,0-.5-.9c-.3-.1-.4,0-.3.2s-.2.2-.7.1h-1l.9-.4c.6-.4,1-.4,1.2-.2s.9.5.7,0,0-.2.3-.1a1.7,1.7,0,0,1,.6.6c.1.2.9.4,2.1.4a6.8,6.8,0,0,1,2.5.5c.4.3.6.2,1.2-.4a3,3,0,0,1,1.1-.6c.5,0,.5-.2.1-1s-.1-.5.3-.6.6.2.6.5.1.4.2.4,2.1-1.3,2.1-1.7-1.3-1.1-3-1.6-.7-.8.1-1.2a.9.9,0,0,0,.6-.8c0-1.1,1.5-2.6,3.1-3.4s1.8-.8,1.8-1-.9-.6-1.9-.6-3,.7-2.4.9.4.3.4.4-.2.2-.6,0a2.8,2.8,0,0,0-3.6.7,7.8,7.8,0,0,0-1.3,1.8c-.2.4-.4.7-.6.7s-.3-.6.1-1.2,0-.7-.3-1.1-2.1-.8-2.1-.1-.4.6-2.1,0a2.8,2.8,0,0,0-2.5-.2c-.8.3-.9.3-.6,0s.5-.9-.2-.9a1.5,1.5,0,0,1-1-.8c-.5-1-1.3-1.3-3.6-1.4l-4.8-.2Zm62.2,2.8a6.1,6.1,0,0,0-1.6,1.6l-.5,1-.4-.8a1.3,1.3,0,0,1,0-.9l1.4-.7,1.6-.6C217.2,25.3,217,25.5,216.4,25.7Zm9,.6c.2.6.4.6,1.6.5s1.2-.2.6.1a7.3,7.3,0,0,1-2.3.4c-1.4.1-1.4.1-.9-.5s.5-.7.4-.9,0-.3.1-.3S225.3,25.9,225.4,26.3Zm-11.9,1.8c-.3.1-.4.3-.1.7s-.1.9-.5.3,0-1.3.5-1.2S213.8,27.9,213.5,28.1Zm19.1.4a1.5,1.5,0,0,1-.8.3c-.4,0-.4-.1.1-.3S232.8,28.1,232.6,28.5Zm4.6,2.6a2.9,2.9,0,0,1-1.1.3c-.5-.1-.5-.1.2-.3S237.8,30.7,237.2,31.1Zm3.4,1.3c-.2.3-.1.3.4.2a.6.6,0,0,1,.8.1c.2.4-.3.6-1.9.9s-3,.3-.9-.2,1.4-.5,1.4-.7.1-.7.3-.7S240.7,32.2,240.6,32.4Zm-32.2.2c-.1,0-.4.1-.6,0s-.1-.2.2-.2S208.6,32.5,208.4,32.6Zm30.8.2c0,.1-.3.2-.7.3s-.5,0-.4-.1S239.2,32.6,239.2,32.8Zm-108.9.4h-.6c-.2-.1-.1-.2.2-.2S130.5,33.1,130.3,33.2Zm84,.1c0,.2-.3.3-.7.3s-.6,0-.2-.3S214.3,32.9,214.3,33.3Zm4.8-.1H218c-.3-.1-.1-.1.5-.1S219.4,33.1,219.1,33.2Zm-91.2.4a2.2,2.2,0,0,1-1,.3c-.3,0-.3-.1.1-.3S128.4,33.3,127.9,33.6Zm70.3,0c0,.2-.1.4-.3.4s-.3-.2-.3-.4a.3.3,0,1,1,.6,0Zm-5.5.8c0,.1-.3.4-.8.7s-1.1,1.3-.1,1,.6,0,.4.1a16,16,0,0,1-4.1,1.4,2,2,0,0,0-1.2,1c-.2.6-.4.8-.8.6s-.6-.2,0-.6a.7.7,0,0,0,.3-.8c-.1-.2-.1-.3,0-.2s1.5-.3,1.3-.7.5-.4,1.3-.6,1.4-.6,1.3-.7-.4-.2-.6-.1-.2-.1-.2-.4.4-.6.9-.5.7-.1.8-.3S192.7,34,192.7,34.4Zm-71.9.4c-1.5.6-2.4.6-1.3,0a4.2,4.2,0,0,1,1.6-.4C121.8,34.4,121.7,34.4,120.8,34.8Zm121-.2c0,.1-.6.1-1.2.1s-1.1-.2-1.1-.3h1.1C241.2,34.3,241.8,34.4,241.8,34.6Zm-42.5,1c-.2.7-.8,1.4-1,1.1s.7-1.8,1-1.8S199.4,35.3,199.3,35.6Zm25.2,0-.5.3c-.2,0-.2-.2-.1-.3s.3-.3.5-.3S224.6,35.4,224.5,35.6Zm-9.8.3c0,.2-.2.3-.4.3s-.2-.1-.1-.3l.3-.3C214.6,35.6,214.7,35.7,214.7,35.9Zm11.8-.1a.6.6,0,0,1-.6,0c-.3-.1-.2-.2.2-.2S226.6,35.7,226.5,35.8Zm-22.3,2a.8.8,0,0,1-.6.4c-.2,0-.2-.2.1-.5S204.5,37.3,204.2,37.8ZM184,38l-.5.3c-.2.1-.5,0-.5-.1s.3-.4.5-.4S184,37.9,184,38Zm43.2.1H226c-.3-.1,0-.2.6-.2S227.5,38,227.2,38.1Zm-63.9,1.6h-.6c-.4,0-.6-.1-.5-.3S163.3,39.4,163.3,39.7Zm22.5.3q-.2.2-.6,0c-.2-.1-.1-.2.2-.2S186,39.9,185.8,40Zm-44.9.4-1.7.7c-1.1.4-1.1.4-.3.7a5.5,5.5,0,0,0,2.3.1l1.7-.2-1.1.6a3.6,3.6,0,0,1-2.3.6c-1.5,0-2.7.4-2.5.8s-.5.4-1.2.3l-1.4.5c-.6.2-1.2.4-1.3.3s2.2-1.2,2.7-1a.5.5,0,0,0,.6-.2c.4-.6-2.4,0-3.5.8a1.4,1.4,0,0,1-1.6.3c-.6-.3-.6-.4-.1-.4s.5-.2.5-.3.3-.3.6-.3a2.6,2.6,0,0,0,1.2-.5,1.4,1.4,0,0,1,1-.5h1.2c1.2-.1-.1-1-1.4-.9h-.1c.6.1,1.1.3,1.1.5a.4.4,0,0,1-.1.3l-1.9-.5-1.7-.4,2.5-.4,4.7-.8C141.3,40.1,141.8,40,140.9,40.4Zm89.9,0c0,.2.4.4.8.5s.7.7-1,.9-1.4.1-1.2-.4S230.8,39.7,230.8,40.4Zm16.6.3c.1.2-.1.2-.5.1s-.8-.4-.2-.4A1.1,1.1,0,0,1,247.4,40.7Zm-182.6.6a.6.6,0,0,1-.6,0c-.2-.1-.1-.2.2-.2S65,41.2,64.8,41.3Zm138.1,1.1c0,.6,0,.9-.1.7a.9.9,0,0,0-.8-.4c-.4,0-.6-.1-.5-.2s.1-.4-.1-.7-.2-.4.6-.4S202.9,41.5,202.9,42.4Zm-7.8,1.1c.7.5.7.5-.1.4a1.5,1.5,0,0,1-.9-.5C193.9,42.9,194.4,42.9,195.1,43.5ZM58,45.6a1.1,1.1,0,0,1-.6.3c-.2,0-.2-.1.1-.3S58.2,45.2,58,45.6Zm161.8.3c0,.2-.2.3-.5.3s-.4-.2-.3-.5A.4.4,0,0,1,219.8,45.9Zm4.1,2.6a.7.7,0,0,1-.6.3.3.3,0,0,1-.3-.3c0-.2.3-.3.6-.3A.3.3,0,0,1,223.9,48.5Zm-83.7,3.8c.6.5,2.2.3,4.3-.4.3-.1-.1.2-1,.7a13.5,13.5,0,0,1-3.2,1.1,4.4,4.4,0,0,0-2,.7c-.4.6-5.2,1-5.9.5s-.5-.3,0-.3h1a2.4,2.4,0,0,0,1.5-.5,11.9,11.9,0,0,1,2-.8c1-.1,1.1-.3,1.2-1.2s.2-1,.8-.6Zm93.7,1.2a.6.6,0,0,1-.6.1c-.3-.1-.2-.2.2-.2S234,53.4,233.9,53.5ZM67.5,54.8c0,.1-.2.1-.5.1s-.5-.1-.5-.3.3-.2.5-.1Zm-2.7.3a.6.6,0,0,1-.6.1c-.2-.1-.1-.2.2-.2S65,55,64.8,55.1Zm-1.3.5c-.3.4-1.5,1-1.5.7s.8-.7,1.6-1A.8.8,0,0,1,63.5,55.6ZM53.1,58.7h-1c-.3-.1-.1-.1.4-.1S53.3,58.6,53.1,58.7Zm1.8-.1c0,.1-.3.2-.6.3s-.6,0-.5-.1S54.9,58.4,54.9,58.6Zm32.9,2.6c-.1.1-.3,0-.4-.3s-.2-.5.1-.2S87.9,61.1,87.8,61.2Zm.5.8c.1.2.1.4-.1.4a.7.7,0,0,1-.5-.4c-.1-.1-.1-.3.1-.3A.9.9,0,0,1,88.3,62Zm-1.6.7a.8.8,0,0,0,.1.8c.3.3.3.4-.1.4s-.4-.1-.3-.3,0-.3-.2-.5-.2-.2.1-.4S86.9,62.3,86.7,62.7ZM45.2,63c0,.2,0,.3-.1.3s-.2-.1-.3-.3-.1-.3.1-.3A.3.3,0,0,1,45.2,63Zm44.3,1.5c-.5.5-1.5.6-1.8.2s.1-.3.4-.2.7,0,.8-.2a.9.9,0,0,1,.6-.3C89.7,64,89.7,64.2,89.5,64.5ZM89,65.7c.1.2.1.2-.1.1a.6.6,0,0,0-.7.3c-.2.4-.3.4-.5.2s-.1-.4.1-.4.3-.1.2-.3,0-.3.3-.3S88.9,65.4,89,65.7Zm-2.1,1-.6.5c-.5.5-.5.4-.1-.1S86.9,66.4,86.9,66.7ZM88.2,68c0,.3-.1.5-.2.5a1.4,1.4,0,0,1-.3-.5c-.1-.2,0-.5.1-.5S88.2,67.8,88.2,68Zm2.1-.3a.6.6,0,0,1-.6.1c-.2-.1-.2-.2.2-.2S90.5,67.6,90.3,67.7Zm-3.8,2.5-.4.8c-.1,0-.1-.3-.1-.9s.1-.9.4-.7S86.8,69.7,86.5,70.2ZM154.2,74c.2.5-.5,5.1-.9,5.1s-.3,0-.3-.2a1.7,1.7,0,0,0-.3-.7c-.2-.3-.4-.4-.7-.1s-.5.3-.5,0a6.5,6.5,0,0,0-.2-1.1c-.2-.6-.1-.8.5-1l.7-.4h-.7c-.9,0-.9-.2.2-1.1S153.8,73.4,154.2,74Zm80.8-.2c0,.1-.5.3-1,.5s-1,.3-.5-.2S235,73.5,235,73.8ZM87.2,75v.3l-.4-.3c-.1-.2,0-.4.1-.4A.4.4,0,0,1,87.2,75Zm66.1,5.6a4.5,4.5,0,0,1-.9,1.1c-.6.6-1,.8-1,.5a2.9,2.9,0,0,1,.8-1.1C153.1,80.4,153.3,80.3,153.3,80.6ZM90.6,84.5c0,.4.4.7,1,.9s1,.5.7.8-.3.4,0,.4.4.3.4.7-.1.6-.3.3-.5-.4-.7-.2-.3.1-.2-.2a2.4,2.4,0,0,0-.7-1.3c-.9-.9-1.2-1.9-.5-1.9S90.6,84.2,90.6,84.5Zm79.9,2.9c.3.1.4.5.4.9a1.2,1.2,0,0,0,1.7,1.3c.5-.2.5-.2.2.3s-.3.5-.2.6a.8.8,0,0,1-.1.8,5.3,5.3,0,0,0-.4,1.6.4.4,0,0,1-.4.4c-.2,0-.3-.2-.2-.4s-.1-.5-1.3-.3a6.4,6.4,0,0,0-2.1.5c-.7.3-2.1,0-2.3-.6a.7.7,0,0,0-.7-.4c-.4,0-.3-.3.5-.7s1.1-1.2-.2-.8-.7.3-.6.6.1.2-.1.1a2.2,2.2,0,0,0-1.4.3,9,9,0,0,1-2.1.8l-1.7.5c-.8.2-.8.2-.2-.3s.6-.6-.7-.4h-1.4c0-.3,3.6-2,5-2.4a6,6,0,0,0,1.7-.7.9.9,0,0,1,.5-.3c.2,0,.1.3-.3.5s-.4.5-.2.5,2-.6,2-.9-.2-.3-.4-.2a.6.6,0,0,1-.7-.2c-.2-.3-.1-.3,0-.2a5.7,5.7,0,0,0,2.1-.4C168.7,87.2,169.7,87.1,170.5,87.4Zm-79,1.1c-.1.2-.6.3-1.2.3s-.8-.1-.4-.2l1-.4C91.2,87.8,91.8,88.1,91.5,88.5Zm124,1c.2.4-.2.4-.8,0s-.5-.3,0-.3S215.4,89.3,215.5,89.5Zm3.3,4.4h-.6c-.4,0-.6-.1-.5-.3S218.8,93.6,218.8,93.9Zm-42.4.6h-1.2a3.2,3.2,0,0,1-1.5-.2A5,5,0,0,1,176.4,94.5Zm-6,.3a10.9,10.9,0,0,1-2.4,2.4c-1.1.2-1.4.5-2.5,1.8a5.9,5.9,0,0,0-1.8,3.9c0,.6-.5,1.3-1.5,2.3s-2.4,1.8-2.4.6,1.3-4.5,4-7.5,1.7-2.4.5-1.3-.1,0,.3-.5,1-.9,1.4-.8a1.2,1.2,0,0,0,1.1-.3C168,94.9,170.4,94.4,170.4,94.8Zm5.5,1c1.1.5,1.2.5,1.7-.2s1.8-.8,2.2.4-.7,3.4-1.8,1.5-1.4-1.2-1.2-.1,0,1.1-.8,1.8a3.2,3.2,0,0,0-1.2,1.7,3.3,3.3,0,0,1-1.9,1.8c-.1,0-.1-.6-.1-1.4s0-1.3-.6-1.2a2.2,2.2,0,0,0-1.1.5,1.9,1.9,0,0,1-.8.5c-.1,0,.4-.7,1.2-1.5s1.5-1.6,1.4-1.7-.1-.4.1-.5.4-.8-.5-1.2-.8-.6-.8-.9.3-.4,1.6-.2A9.9,9.9,0,0,1,175.9,95.8Zm.8-.5a.5.5,0,0,1-.5.3.3.3,0,0,1-.3-.3l.5-.2C176.7,95.1,176.8,95.2,176.7,95.3Zm10.5,5c0,1.1-1.9,1.9-4,1.6a8.4,8.4,0,0,0-2.8.1c-1.6.4-1.6-.1,0-.8a7.7,7.7,0,0,1,3.4-.6c1.2,0,2.1-.1,2.1-.3s.3-.2.7-.2S187.2,100.2,187.2,100.3Zm-7.4,3.2a18.7,18.7,0,0,1-4.8,2.3c-3.2,1.2-4.5,1.5-5.2,1.1s-.8-1,0-1,.6.2.6.4.1.3.3.1a5.8,5.8,0,0,1,2.2-1.4,5,5,0,0,1,3.4-.8c1,.1,1.3.1,1-.1s-.3-.4.6-.5l1.5-.2Zm-8.2,1.8a1.6,1.6,0,0,1-.9.3c-.3,0-.6-.2-.6-.3s.4-.3.9-.3S171.7,105.1,171.6,105.3Zm9,11.6c.4.6,0,.7-.5.2s-.2-.5,0-.5A.5.5,0,0,1,180.6,116.9Zm0,5.5c.1.2,0,.2-.3.1s-.7-.4-.2-.4A.5.5,0,0,1,180.6,122.4Zm-38.1,16.1q.1.3-.3.3t-.3-.3l.3-.3Q142.4,138.2,142.5,138.5Zm3.7,52.4c.3.8.3.8-.8.8s-1-.2-.6-.5.5-.4.1-.6a.8.8,0,0,1-.6-.8c0-.6.1-.6.8-.1A3.2,3.2,0,0,1,146.2,190.9Z"/><path class="cls-3" d="M196.4,23.7l-2.9.4a10.1,10.1,0,0,0-2.5.5c-1,.3-1.2.5-.8.7s.3,1.2-.7,1.2-1-.1-1-.3-1.1-.4-2,0-.4,1.2,1.1,1.9,1.1.7,1,1.3.1.9,4,0a5.2,5.2,0,0,0,3.5-1.8,5,5,0,0,0,1.5-2c0-.4.2-.7.4-.7s.6-.2.3-.9S197.7,23.5,196.4,23.7Zm.5,2.2c.4.3.4.4-.1.2a.5.5,0,0,0-.6.2c-.1.2-.2.2-.4-.2S196.2,25.4,196.9,25.9Z"/><path class="cls-3" d="M53.4,61.5a7.3,7.3,0,0,0-1.9,1l-.9.2a1.7,1.7,0,0,0-1.2.5c-.2.2-.5.4-.6.3s-2.3.5-2.6,1.1.1,1.4,1.2,1.2l1.4-.4,1.1-.4,1.9-.8a1.7,1.7,0,0,0,1.3-1.8c0-.1.4-.2,1-.1s1.1.1,1.1-.7v-.8Z"/><path class="cls-3" d="M156.2,158.2l-2.3.7c-.8.2-1.8.6-2,1a2,2,0,0,1-1.1.6c-.5,0-.5,0,0,.3s.3.3-.3.5-.9.6.1.8a2.1,2.1,0,0,0,1.5-.4,3,3,0,0,1,1.3-.6,2.7,2.7,0,0,0,1.2-.6,2.5,2.5,0,0,1,2.1-.6c.7,0,1.1,0,.8.1s-.6.3-.6.5,2,.9,2.9.9a10,10,0,0,1,2.1.8,4.4,4.4,0,0,0,2.4.6c.5-.1.7,0,.7.7a2.5,2.5,0,0,0,.4,1.2,1,1,0,0,1,.5.8c0,.2.3.5.5.8s.5.6.4.8,6.6.4,8-.1l.9-.4-.9-.8a4,4,0,0,0-1.8-.8c-.6,0-.8-.2-.8-.5s-.4-.7-1.4-1-3.3-2-3.3-2.8-.1-.3-.2-.1-.4,0-.6-.3-1.5-.6-1.2-.1,0,.3-.3.2l-1.1-.3c-.2,0-.4-.1-.3-.3S158.2,157.6,156.2,158.2Zm11.8,7.4c.2.2-.2.4-.7.4s-1-.2-1-.4.3-.3.7-.3S167.9,165.4,168,165.6Z"/><path class="cls-3" d="M177.6,167.2c-1.1.6-1.1,1,0,1s.6.3.6.9a2.2,2.2,0,0,0,.4,1.3c.6.6-.6.8-2.6.5s-1.7-.3-2,.2-.1.7.7,1.1,1.7.7,1.4.3.7-.3,1.8-.3,2,.1,2.6.9l.7,1,.8-1.2c.7-1.1,1.2-1.4,1.4-.8s.5.1,1-.2,2.9-.4,3.1.2.3.3.6.3.4-.1.3-.2.1-.4.4-.6.4-.6-.7-1.6a4.1,4.1,0,0,0-1.8-1.1c-.4,0-.7-.2-.7-.5s-2.6-1.3-4.4-1-1.6.1-2-.3S178.5,166.8,177.6,167.2Z"/><g class="cls-4"><path class="cls-5" d="M0,84,35.4,73l.5-.3L52.6,61.3c.2-.2.4-.2.6-.3L71,56.9a1.4,1.4,0,0,1,.9,0l11.4,3.7a1.7,1.7,0,0,1,1.2,1.5l1.4,19.8v.3l1.9,6.6a2.3,2.3,0,0,1-.2,1.4l-7,10.3c-.1.1-.1.1-.1.2L75.7,111a1.5,1.5,0,0,0-.2.9L77,124.7a1.1,1.1,0,0,0,.3.8l7.1,9.9,9.4,13.4v.2l8.2,16.9h0l8.4,13.8.2.4,3.1,10.2v.3l1,9.8a4.3,4.3,0,0,0,.1.5l2.8,6.1a.3.3,0,0,1,.1.2l4,13.5a1.7,1.7,0,0,1-.2,1.4l-2.9,4.7a1.4,1.4,0,0,0-.2.6l-3.4,19.6h0l-.9,9.6a.4.4,0,0,0-.1.3l-4.6,13.8a.3.3,0,0,0-.1.2l-5.6,11.5-.2.2-3.5,4.7a1.8,1.8,0,0,0-.4,1v1.9a1.8,1.8,0,0,0,1,1.5l4.3,2.1a1.6,1.6,0,0,1,.9,1.2l1.8,12.5v.6l-.6,2.5a2.2,2.2,0,0,0,.2,1.4l1.4,1.9a1.6,1.6,0,0,0,1.4.7h.4a1.7,1.7,0,0,1,1.6,1.5l2.9,21.8a.5.5,0,0,1,0,.5l-2,14.6a1.6,1.6,0,0,1-2,1.4l-2-.5a2,2,0,0,0-1.8.7l-3.3,4.9a1.6,1.6,0,0,0-.3.9v2a1.1,1.1,0,0,0,.3,1.1l.5.7a1.7,1.7,0,0,1,.1,1.7l-.3.6a1.6,1.6,0,0,1-2.2.9l-1-.5a2,2,0,0,0-1.5,0l-4.2,2.1-.7.2H85.9l-16.7-4.1h-.1l-6-1.1a1.5,1.5,0,0,0-1.1.2l-1,.5a2,2,0,0,0-.9,1.3l-.4,4.4c-.1.3-.1.5-.3.7l-.7,1.2a1.5,1.5,0,0,1-1.8.8l-2.6-.7-.5-.2-4-2.7-1-.2H47.7a1.5,1.5,0,0,0-1.2.5L41,375.6h-.1L38,378.2l-.3.2-3.9,2-.4.2L25,388h-.3l-2.2,1.3-.8.2H16.4l-4.1-1.6a1,1,0,0,0-.9-.1h-1a2.1,2.1,0,0,0-1.1.7l-.8,1.1a1.7,1.7,0,0,1-1.4.7H4.5L0,389.2"/><path class="cls-5" d="M85.5,77,80,78.8a1.8,1.8,0,0,0-1.1,1.4L78,87.3a2.8,2.8,0,0,0,.1.9l.8,1.9a1.7,1.7,0,0,1-1.3,2.3h0a1.7,1.7,0,0,0-1.4,1.9l.5,2.7a1.6,1.6,0,0,0,2,1.4l4-1.1"/><path class="cls-5" d="M106.9,173.1l11.7,5.9a1.7,1.7,0,0,0,1,.1l4.6-.8a1.9,1.9,0,0,1,1.4.5l5.1,4.8.7.3,6.1,2a1.3,1.3,0,0,1,.9.7l5.8,8.5.3.4,6.2,5,.7.3,9,2.2a1.7,1.7,0,0,1,1.1.9l2.2,4.5a1.7,1.7,0,0,1,.1,1l-.7,4.5a2,2,0,0,1-.4.8l-2.4,2.6a1,1,0,0,1-.8.5l-5.1,1.4-.6.4-1.5,1.2a1.6,1.6,0,0,1-1.1.5l-18.3-.7h-.2l-10.6,1"/><path class="cls-5" d="M161.6,215.6l-5,7.3a1.4,1.4,0,0,0-.2.7l-.9,6.2h0l-.5,8.8a1.5,1.5,0,0,0,.2.9l6.3,12.6v.2l8.2,12,.5.4,10.5,6.9.5.5,3.5,5.8a3.1,3.1,0,0,1,.2.8l.4,15.1.4,10.6a.3.3,0,0,0,.1.2l2,11.5v.5L186.5,327a.6.6,0,0,0-.1.4l1.5,11.1a1.1,1.1,0,0,0,.1.5l3.7,7.3a1.9,1.9,0,0,1,.2.8l-.3,5.7a1.9,1.9,0,0,0,.2.8l2.9,5.6,4,7.1.3.4,3.2,3.3.4.3,8.9,4.8a.5.5,0,0,0,.4.2l6.6,1.6h.4l5.7.2h27.1l10.3,2.9h.1l13.3,2.6h.3l5.9,2.7a1.7,1.7,0,0,1,.9,1.1l1.4,4.6v.9l-1.1,3.6c0,.2-.1.3-.1.4l-1.5,2.5"/><path class="cls-5" d="M103.9,282.7h3.9a1.7,1.7,0,0,1,1.2.5l1.7,1.7.2.3,1,1.5a1.9,1.9,0,0,1,.2,1.3l-.5,2a1.6,1.6,0,0,1-.4.7l-1.7,2.1a1.6,1.6,0,0,1-.8.6l-2.8,1"/><path class="cls-5" d="M107.9,308l2.8-1.3h3.2a1.4,1.4,0,0,1,.9.3l1.8,1.1a1.8,1.8,0,0,1,.8,1.1l.2,1.4a1.6,1.6,0,0,1-.2,1.2l-.7,1a1.9,1.9,0,0,1-.8.7l-3.9,1.4"/><path class="cls-5" d="M114.6,313.9l5.1,2.4.2.2,5.8,4.1.2.2,6.7,3.2h.3l8.5,6c.2.2.4.3.5.6l1.8,3.1c.1.3.3.4.5.6l3.9,2.9a1.7,1.7,0,0,0,1,.3h8.8l.6.2,4.6,1.8a.5.5,0,0,1,.4.2l3,2.1c.2.2.4.3.5.6l1.3,2.2a1.5,1.5,0,0,0,1.1.8l6,1.4h5.8l.8-.2,2.8-1.5a1.7,1.7,0,0,1,2.3.7l.4.9a1.6,1.6,0,0,0,.7.7l4.2,2.3"/><path class="cls-5" d="M209.7,374.7l5.7,4.6h.2l4.8,3.2h.1l5.1,3.9h.2l3.8,3.7.2.2,2.5,3.7a1,1,0,0,0,.4.5l3.2,2.2.5.2,4.3,1.2h.7l6.4-1.2h.3l39.6,1.6h.6l7-2a1.6,1.6,0,0,0,.8-.6l3.2-3.9a1.9,1.9,0,0,1,1.2-.7l18.2-1h.6l9.1-3.9h.2l5.8-3.3h.3l6.8-2.2a1.4,1.4,0,0,1,.9-.1l4.8,1.2h5.7a1,1,0,0,0,.7-.2l7-3.5h.1l6-2.3h.4l6.4-.9h.8l7.6,2.4h.3l6.2.9h.5l7.1-.9.6-.3,9.4-6,.5-.4,6-8.1,5.3-6.7a.9.9,0,0,1,.6-.4l10.3-5.3h.2l8-5.1a.8.8,0,0,0,.4-.4l5.5-6.7.3-.2,6.6-5.4.3-.2,8.2-4.1h.1l15.5-6.1.6-.3,8.6-8.4.4-.3,3.2-1.8a1.6,1.6,0,0,1,.9-.3h4.7a1.8,1.8,0,0,1,1,.4l5,3.7.5.7,2.8,6.9a.4.4,0,0,1,.1.3l3.2,14.6h.1l1,10.5a.4.4,0,0,1,.1.3l2.1,5.8.9,2.3a1.6,1.6,0,0,0,1.7,1.1l3-.3a1.4,1.4,0,0,1,1.2.4l4.2,3.5a2.1,2.1,0,0,0,1.1.4h1.2a1.6,1.6,0,0,0,1.1-.5l2.4-2.2a1.6,1.6,0,0,1,1.6-.3l3.6,1h.4l21.7,1.7a1.7,1.7,0,0,1,1.4.9l1,2.2a1.9,1.9,0,0,1,.2.7v3.4a1.7,1.7,0,0,0,.3,1l.9,1.4a1.9,1.9,0,0,0,1.2.7l30,3a1,1,0,0,0,.9-.2l2.7-1.4a1.7,1.7,0,0,1,1.9.3l.6.5a1.7,1.7,0,0,0,2.1.1l1.8-1.2a1.7,1.7,0,0,1,2.4.5v.2a1.7,1.7,0,0,0,2.1.7l2.7-1.2a1.7,1.7,0,0,1,1.8.3l1.4,1.3a1.9,1.9,0,0,0,2.3,0l1.1-1.1a1.7,1.7,0,0,1,2.1-.1l1.7,1.3a2,2,0,0,0,1.1.3l31.3-1.4a1.8,1.8,0,0,1,1.5.8l3.4,5.5a1.7,1.7,0,0,0,1.4.9h5.6l.7-.2,2.2-1.2a2.2,2.2,0,0,1,1.6,0l2.1,1.2.8.2h2.8a1.9,1.9,0,0,1,1,.3l3.3,2.5.3.2,7.8,3.7.4.2,2.1,1.9a1.5,1.5,0,0,0,1.1.4h2.4l2.6-.9a1.8,1.8,0,0,1,1.9.6l1.9,2.4.3.4,2.4,1.6a1.6,1.6,0,0,0,1.5.2l2.8-.9a1.7,1.7,0,0,1,1.4.1l2.9,1.8a2,2,0,0,0,1.5.1l3.7-1.6a1.9,1.9,0,0,1,1.5.1l6.4,3.8.6.2,6,.6a1.7,1.7,0,0,0,1-.1l1.6-.8a1.2,1.2,0,0,1,1.3-.1l2.1.8h2.4l.9-.2,3.8-2.4c.2-.2.5-.2.7-.3l4.5-.4"/><path class="cls-5" d="M138.1,186.1l9.3-8.4.6-.3,16.2-5.6c.2,0,.4-.1.6,0l11.2.7h.2l8.1-.6h.2l8.3-1.4h.9l8.9,3.3.8.5,3.7,4.4a1.7,1.7,0,0,1,.3,1l.5,5.7a1.2,1.2,0,0,1-.2,1l-2.1,3.5a1.2,1.2,0,0,1-.7.7l-4.5,2-.6.2-6.5.5a1.4,1.4,0,0,1-1.1-.2l-5.7-3.8-.3-.2-3.4-3.2a1.9,1.9,0,0,0-2.5.2l-5.1,6.2-.8.5-4.3,1.4a1.3,1.3,0,0,0-.7.6l-3.6,4.2a2,2,0,0,0-.4.8l-1.5,9"/><path class="cls-5" d="M207.5,181.1h5.7a1.7,1.7,0,0,0,1-.3l2.3-1.9a1.7,1.7,0,0,1,2.5.5l2.6,4.2.4.5,6.9,5.6,8.4,7.2a1.4,1.4,0,0,0,1,.4l4.2.2a1.7,1.7,0,0,1,1.5,1.2l1.1,3.7a1.8,1.8,0,0,0,1,1.1l5.7,2.4h.2l5.9,1.6a1.9,1.9,0,0,1,1.2,1.1l1.5,5.2a1.6,1.6,0,0,0,1.2,1.1l1.6.4a2.2,2.2,0,0,1,1.2,1.1l1.4,4.6a1.6,1.6,0,0,0,.6.8l3.1,2.4a1.4,1.4,0,0,0,1,.4h2.7a1.9,1.9,0,0,1,1,.3l2.7,2.1a1.7,1.7,0,0,0,1,.3h3.7l4-1.4a1.5,1.5,0,0,1,1.7.4l.7.6a1.7,1.7,0,0,0,1.2.5h1.3a1.8,1.8,0,0,1,1.7,2l-.5,2.8a1.8,1.8,0,0,0,.2,1l1.3,2.7a1.5,1.5,0,0,1-.2,1.8l-2.6,3.3a.9.9,0,0,0-.3.7l-.4,1.5a2,2,0,0,0,.3,1.5l.9,1.1a2,2,0,0,1,.4.8l.3,1.7a1.8,1.8,0,0,1-1.1,1.9l-1.2.5a2,2,0,0,0-1.1,1.1l-.2.7a2,2,0,0,0,0,1.1l.6,1.5a.9.9,0,0,0,.3.5l1.3,1.5.3.5.7,2a1,1,0,0,1,.1.9l-.5,2.2a.8.8,0,0,1-.2.5l-1.6,2.7-.2.3-.3.9a1.7,1.7,0,0,0,.4,1.9l1,.9.4.5,1.6,2.9a2.2,2.2,0,0,1,.1.8v2.5a1.5,1.5,0,0,1-.2.9l-1.2,2-.5.5-1.3.9a1.6,1.6,0,0,0-.8,1.7l.7,3.4v.2l.2,15.4a1.3,1.3,0,0,1-.1.6l-1.9,5.6-.3.4-2.7,3.8c-.1.1-.2.2-.2.3l-2.6,2.4-.5.2-1.3.6a2.7,2.7,0,0,0-.8.7l-.7,1.3a1.5,1.5,0,0,0,0,1.6l.4.8.4.5,1.6,1.4a2.1,2.1,0,0,1,.4.6l2.3,5.3a.7.7,0,0,1,.1.5l.8,5.8v.2l1.9,7.7c0,.2.1.3.2.5l1.2,2a1.8,1.8,0,0,0,1.5.8h1.3a1.6,1.6,0,0,1,1.6,1.3l1,3.3.7,2.1a1.6,1.6,0,0,0,2.2,1l2.9-1.2a1.8,1.8,0,0,1,2.2.9l2.7,6.3a1.6,1.6,0,0,0,1.5,1h2.5a1.6,1.6,0,0,1,1.6,1.2l1.2,4a1.6,1.6,0,0,0,2.2,1l1.2-.4a1.7,1.7,0,0,1,2.1.7l3.4,5.9c.1.1.1.1.1.2l5,6.5c0,.1,0,.1.1.2l4.2,7.2"/><path class="cls-5" d="M240.6,197.6l-4.7-7.7-.2-.4-2.5-8.7v-.6l.9-9.7h0l.8-4.6a1.2,1.2,0,0,0-.2-1l-2.3-4.8a2.8,2.8,0,0,1-.1-.9l.4-4.3a.9.9,0,0,1,.1-.5l3.7-8.3.3-.4,7-8.7c.1-.1.2-.1.2-.2l7.5-6.2h.2l8.2-4.8.4-.3,5.8-6.2c.2-.3.4-.5.4-.8l1.5-6.6v-.2l2.6-7.9c.1-.1.1-.3.2-.4l2.8-3.9a1.7,1.7,0,0,0,.3-1v-6a2.1,2.1,0,0,0-.4-1l-4.1-5.4a.1.1,0,0,1-.1-.1l-3-4.4a1.9,1.9,0,0,1-.1-1.9l2.9-4.6a1.3,1.3,0,0,1,.7-.6l7.1-3.8h.3l12-3.4,19-6,.7-.4,8.1-7.7h.1L330.9,38a1,1,0,0,1,.5-.4l9.9-4.8.6-.2,9.2-1,.8-.2,5.2-3.6a1.6,1.6,0,0,0,.8-1.4V23.5a2.1,2.1,0,0,0-.5-1.2L355.2,20a2.1,2.1,0,0,1-.4-.6L353.6,16a1.4,1.4,0,0,1,.1-1.4l2.1-4.1a1.2,1.2,0,0,1,.6-.6l3.8-2.3a1.9,1.9,0,0,0,.8-1l.6-2.1a1.7,1.7,0,0,0-.8-1.9L356.3,0"/><path class="cls-5" d="M266.4,118.7l7.9-.2a1.5,1.5,0,0,1,1.1.4l5,3.8a1.7,1.7,0,0,0,1,.3l6.7.2h.3l8.1-1.1,1.1.2,3.3,1.9a1.7,1.7,0,0,0,1.8-.1l1.3-.9a1.7,1.7,0,0,1,2.1.1l1.3,1.2a1.6,1.6,0,0,0,2.1.2l.8-.5a1.7,1.7,0,0,1,2.4.5l3.2,5.4a1.7,1.7,0,0,0,1.4.9h2.4a1.7,1.7,0,0,0,1-.3l2.9-2,.4-.2,6.5-2h.2l5.2-1h.1l10.5-3.1h.2l6.6-1,8.3-.9h.4l6.9-2.5h.4l9.3-.7a2,2,0,0,1,1.1.3l3.8,2.5.4.3,1.9,2.4a2.7,2.7,0,0,0,1.2.6h3a1.6,1.6,0,0,0,1.4-.8l2.5-3.5c.1-.1.2-.2.2-.3l2.1-2.1a1.7,1.7,0,0,1,2-.3l2,1,.6.4,2.9,3.5a.1.1,0,0,1,.1.1l2.6,3.8a2.7,2.7,0,0,0,.8.7l6.3,2.4h.7l6.4-.7,9-1h.1l9.5-1.7"/><path class="cls-5" d="M515.5,154.1l.2.6a1.6,1.6,0,0,1-.6,1.8l-1.7,1.5h-.3l-5.2,2.6-.4.2-3.2.7-.5.2-2.8,1.7-.5.5-1.7,2.6-.2.3-1.5,4H497l-2.6,5.5v.2l-2.6,4.4-.2.3-1.2,1.2a1.9,1.9,0,0,1-1.3.5h-1.9l-1.3-.6h-.3l-2.4-.4h-.6l-4.4,1-.5.2-3.9,2.1h-.1l-4.3,2h-.2l-3.6,1.2H463a1.6,1.6,0,0,1-1.2-.6l-2-2.1-.2-.3-1.1-2.2-2.6-5-4.7-8.5-2.6-5.1-3-6.3h-.1l-4.9-7.3-3.7-5.4h-.1l-3.7-4.7a1.6,1.6,0,0,1-.4-.7l-.3-2a1.6,1.6,0,0,1,.9-1.8l1.3-.6a1.8,1.8,0,0,0,.7-.5l1.8-2.3.3-.6.5-2.1h.1l1.1-3.1a.9.9,0,0,0,.1-.7l-.3-3.4v-.3l.3-1.9a1.8,1.8,0,0,1,.4-1l3.9-3.8a1.4,1.4,0,0,1,.8-.5l4.4-.8a1.7,1.7,0,0,1,1.2.2l4.7,2.8.3.2,5.9,5.1a1,1,0,0,1,.4.5l3.2,6.1.2.4,4.1,4.3h.1l5.8,5.4.2.2,3.9,5.1.6.5,6.8,3.3h.6l4.6.3.7.2,4,2.2.5.5,1.5,1.9a1.6,1.6,0,0,0,1.7.6l2.7-.6h.2l3.4-1.3h.7l7.3.4A1.9,1.9,0,0,1,515.5,154.1Z"/><path class="cls-5" d="M0,336l.8-.4.8-.2H7.8l.8-.2,5.3-2.6a2.3,2.3,0,0,0,.7-.7l3.9-6.3a1.6,1.6,0,0,0,.3-.9v-5.2a1.1,1.1,0,0,1,.2-.8l4.8-7.8c.1-.1.1-.2.2-.4l2.9-9.1v-.3l1.1-10v-5.6a2.4,2.4,0,0,1,.2-.8l4.6-9.2a.5.5,0,0,0,.2-.4l1.5-8.1a1.1,1.1,0,0,0-.1-.8L33,261.4a1.7,1.7,0,0,0-1.6-1.1H22.5a1.6,1.6,0,0,0-1.2.4l-3.7,3.4-.2.2-6.1,3.8-.6.2-5.2,1a1.5,1.5,0,0,0-1.3,1.6V278a3,3,0,0,1-.2,1l-2.8,4.2L0,282.8"/><path class="cls-5" d="M743.5,251.8l-6.2-1.1h-.5l-6.8-3.5-.4-.4-5.7-6.4a1.9,1.9,0,0,0-1-.5l-5.2-.9a1.3,1.3,0,0,1-.9-.5l-6-6a2.4,2.4,0,0,0-1.4-.5l-3.9.4h-.4l-2.4-.3a1.7,1.7,0,0,1-1-.6l-4.4-5.3a1.4,1.4,0,0,0-1-.5l-6.8-1.2h-.2l-6.9-1.9h-.3l-7.2-.5"/><path class="cls-5" d="M744.1,389.2l-5.8-4.5-5.6-4.4a2,2,0,0,1-.6-.7l-1.3-3.2a3.8,3.8,0,0,1-.1-1l1.4-6.2a.6.6,0,0,1,.1-.4l2-4.2c.2-.2.3-.5.6-.6l4.9-3.6,3.8-3"/><path class="cls-5" d="M515.1,153l2.4-7.1a1.1,1.1,0,0,0,.1-.5v-1.8a1.6,1.6,0,0,1,1.7-1.6h1.9a1.1,1.1,0,0,1,1.1.7h0a1.1,1.1,0,0,0,1.7.5l.9-.6a1.8,1.8,0,0,0,.7-1.7l-.6-3.8c0-.2-.1-.3-.2-.5l-.9-1.8a1.6,1.6,0,0,1,.5-2.1l.3-.3a1.7,1.7,0,0,1,2,.1h.1a1.7,1.7,0,0,0,1.7.2l2.2-.9.8-.5.4-.7a1.6,1.6,0,0,1,2.8.2l.2.4.5.5,3.1,2.5a2.2,2.2,0,0,1,.5.8l1,2.8a.7.7,0,0,1,.1.5v2.7a1.9,1.9,0,0,0,.9,1.5l7.8,4.2.5.2,9.8,2h.4l8.3-.3h.5l6.8-2.4.6-.3,3.7-3.5.7-.4,3.3-1a2.1,2.1,0,0,1,1.5.3l2,1.6a1.7,1.7,0,0,1,.6,1.6l-.6,3.7-.6,4.6v.5l1.4,11.9v.2l2.2,8.3a.8.8,0,0,0,.2.4l2.3,4.1.2.3,1.8,5.8c0,.2.1.3.1.4l.5,5.1a.4.4,0,0,1,0,.5l-.9,4.9v.2l-1,3.1-.9,3.6a.4.4,0,0,1-.1.3l-1.5,3.1-1.3,2.6a1.5,1.5,0,0,0-.1,1.3l.7,2a1.2,1.2,0,0,0,.6.8l4.5,3.5h.2l2.5,2.4.4.6,3,7.2,2.3,5.5.3.4,5.5,6.7.5.4,7.6,4.7.6.2,7.6,1.4,9.2,1.9,16.5,3.2h.1l6,.8h.4l8.2-.7.4-.2,8.4-3.3.3-.2,6.4-4.4a2.1,2.1,0,0,0,.7-1.5v-1.3a1.6,1.6,0,0,0-1-1.5l-4.4-1.9-5.8-2.5"/><path class="cls-5" d="M609.1,0l13.2,8.8.4.4,9.1,11.3,8.8,10.3h.2l8.5,8,.3.2,11.3,6.7.3.3,6.5,6.7.3.3,1.3,2.2a1.7,1.7,0,0,1-.3,2.1l-2,2a1.8,1.8,0,0,1-1,.4l-5,.6h-.6l-4.5-1.2a1.8,1.8,0,0,0-1.9.7L651.8,63a1.4,1.4,0,0,0-.2,1.1l.3,4.5c0,.1.1.3.1.4l2.4,6.1.3.5,6.3,7.3a1.8,1.8,0,0,1,.4,1l.5,7.9V92l-.6,7.7a.7.7,0,0,0,.1.5l3.4,12.5,2,6.3.3.6,2.7,3.3a2.1,2.1,0,0,1,.4,1.1v4.6a2.1,2.1,0,0,1-.4,1.2l-5.5,6a1.4,1.4,0,0,1-1.2.6h-9.3a2.2,2.2,0,0,0-1.1.5l-8.4,7.5-.4.6-1.6,3.6c-.1.2-.2.3-.2.5l-.5,5.9a1.8,1.8,0,0,0,.6,1.4l3.2,2.9a2.5,2.5,0,0,0,1.2.4h1.8a1.6,1.6,0,0,1,1.3.6l5.4,6.3.3.5,5.1,13c0,.3.2.4.3.6l6.4,6.6a1.5,1.5,0,0,1,.4,1l1.1,11.4a1.9,1.9,0,0,1-.2.8l-4.2,8.6a1.2,1.2,0,0,1-.5.5l-4.7,4a1.6,1.6,0,0,0-.5,1.1l-1.4,9.7v.6l1.3,6.1a1.7,1.7,0,0,0,.7,1l4.5,3.3a1.8,1.8,0,0,0,1,.4h4.5a1.7,1.7,0,0,0,1.4-.8l2.8-4.2.2-.2,1.1-2.6a1.9,1.9,0,0,0,.2-.7v-9l1.2-7.6a.7.7,0,0,1,.1-.5l2.8-5.4a1,1,0,0,1,.5-.6l2.3-1.7a1.7,1.7,0,0,1,1-.3h4.3a1.6,1.6,0,0,0,1.5-.9l1.5-3.1a1.5,1.5,0,0,0,.1-.7v-3.3L689,189a2.1,2.1,0,0,1,0-.8l.9-3a1.6,1.6,0,0,1,1.5-1.2h2.4a1.3,1.3,0,0,0,.9-.4l3.8-2.8a1.5,1.5,0,0,0,.5-.6l1.8-4.1a.6.6,0,0,0,.1-.4l.9-7.5v-.5l-.8-4.3-.3-.7-3.3-4.6-.2-.2-4.6-4.4c-.1-.2-.2-.3-.4-.3l-6.4-3.3-.5-.4-4.1-4.6a.8.8,0,0,1-.2-.5l-2.1-4.7c-.1,0-.1-.1-.1-.2l-2.7-9.6"/><path class="cls-5" d="M670.2,129.3l2.8.3,5.3.2a1.6,1.6,0,0,0,1.2-.4l2.6-2.3.4-.4,1.9-3.6a2.4,2.4,0,0,0,.2-.8v-5.2a1.7,1.7,0,0,0-.1-.7l-2-4.2a1.9,1.9,0,0,1-.2-.7v-5.6a1.4,1.4,0,0,1,.2-.7l4.1-8.7h.1l3-4.6a1,1,0,0,1,.4-.5l3.2-2.2h.2l3.7-3.4.3-.2,5.9-3.3.6-.2,3.7-.3a1.8,1.8,0,0,0,1.4-1.1l1.5-3.9a1.8,1.8,0,0,1,.7-.8l.9-.6a1.7,1.7,0,0,1,1.9.1l1.2,1,4.1,3.2.4.2,5.6,2.3h.3l6.7,1.4h.2l5.5.5h3.6"/><path class="cls-5" d="M710.8,76.1l-2.1-1.4a2,2,0,0,1-.8-1.2l-.5-4.2a2.9,2.9,0,0,1,.2-.9l1.2-2.3a2.4,2.4,0,0,1,.9-.8l5.8-1.9h4.6a2.1,2.1,0,0,0,1.1-.4l3.3-3.1.2-.2.4-.5a1.6,1.6,0,0,0-.6-2.5l-1-.5a1,1,0,0,0-.7-.2H702.3l-11-1.1-9-1.3H682l-7.1-2.3h-.2l-5.9-2.6h-.2l-7.5-2.4"/><path class="cls-5" d="M492.8,310.7l5.8-21.6a1.4,1.4,0,0,0-.1-1.1l-5.6-12.4-.3-.5-4.8-5.4a1.8,1.8,0,0,1,.3-2.6l3.3-2a1.8,1.8,0,0,0,.7-2.1l-3.9-9.6a2,2,0,0,1-.1-1.3l4.5-11.8h0l7.4-16.1a1.7,1.7,0,0,0,.1-.7V202.1l-1.4-9.5a1.8,1.8,0,0,0-.4-.9l-8.5-8.6"/></g></g></g></svg>