<svg id="Layer_1" data-name="Layer 1" xmlns="http://www.w3.org/2000/svg" viewBox="0 0 667 400"><defs><style>.cls-1,.cls-2{fill:none;}.cls-2{stroke:#212121;stroke-width:2px;stroke-dasharray:10;}.cls-3{fill:#212121;}</style></defs><title>full-mag-field</title><g id="Ellipse_29" data-name="Ellipse 29"><ellipse class="cls-1" cx="177.4" cy="200.1" rx="177.4" ry="199"/><ellipse class="cls-2" cx="177.4" cy="200.1" rx="176.2" ry="197.8"/></g><g id="Ellipse_28" data-name="Ellipse 28"><ellipse class="cls-1" cx="211" cy="200.1" rx="143.7" ry="177.4"/><ellipse class="cls-2" cx="211" cy="200.1" rx="142.5" ry="176.2"/></g><g id="Ellipse_26" data-name="Ellipse 26"><ellipse class="cls-1" cx="248.9" cy="200.1" rx="111.8" ry="142.5"/><ellipse class="cls-2" cx="248.9" cy="200.1" rx="110.6" ry="141.3"/></g><g id="Ellipse_25" data-name="Ellipse 25"><ellipse class="cls-1" cx="282" cy="200.1" rx="83.6" ry="116"/><ellipse class="cls-2" cx="282" cy="200.1" rx="82.4" ry="114.8"/></g><g id="Ellipse_29-2" data-name="Ellipse 29"><ellipse class="cls-1" cx="489.6" cy="200.1" rx="177.4" ry="199"/><ellipse class="cls-2" cx="489.6" cy="200.1" rx="176.2" ry="197.8"/></g><g id="Ellipse_28-2" data-name="Ellipse 28"><ellipse class="cls-1" cx="456" cy="200.1" rx="143.7" ry="177.4"/><ellipse class="cls-2" cx="456" cy="200.1" rx="142.5" ry="176.2"/></g><g id="Ellipse_26-2" data-name="Ellipse 26"><ellipse class="cls-1" cx="418.1" cy="200.1" rx="111.8" ry="142.5"/><ellipse class="cls-2" cx="418.1" cy="200.1" rx="110.6" ry="141.3"/></g><g id="Ellipse_25-2" data-name="Ellipse 25"><ellipse class="cls-1" cx="385" cy="200.1" rx="83.6" ry="116"/><ellipse class="cls-2" cx="385" cy="200.1" rx="82.4" ry="114.8"/></g><ellipse id="Ellipse_275" data-name="Ellipse 275" class="cls-3" cx="333.5" cy="200.1" rx="93.9" ry="93.3"/></svg>