<svg id="Layer_1" data-name="Layer 1" xmlns="http://www.w3.org/2000/svg" viewBox="0 0 667 400"><defs><style>.cls-1,.cls-4,.cls-5{fill:none;}.cls-1{stroke:#212121;stroke-dasharray:10;}.cls-1,.cls-4{stroke-width:2px;}.cls-2{fill:#212121;}.cls-3{opacity:0.5;isolation:isolate;}.cls-4,.cls-5{stroke:#f1f4f8;}.cls-5{stroke-width:2px;}</style></defs><title>full-mag-field</title><g id="Ellipse_29" data-name="Ellipse 29"><path class="cls-1" d="M344,264.3C320.3,342,254.6,397.9,177.4,397.9,80.1,397.9,1.2,309.4,1.2,200.1S80.1,2.3,177.4,2.3c76.2,0,141.1,54.4,165.7,130.5"/></g><g id="Ellipse_28" data-name="Ellipse 28"><path class="cls-1" d="M343.4,265.4c-21,65-72.3,110.9-132.4,110.9-78.7,0-142.5-78.9-142.5-176.2S132.3,24,211,24c58.9,0,109.4,44,131.1,106.9"/></g><g id="Ellipse_26" data-name="Ellipse 26"><path class="cls-1" d="M346.9,265.7c-18.5,45-55.4,75.7-98,75.7-61.1,0-110.6-63.3-110.6-141.3S187.8,58.8,248.9,58.8c41.4,0,77.5,29.1,96.4,72"/></g><g id="Ellipse_25" data-name="Ellipse 25"><path class="cls-1" d="M349.7,265.4c-14.8,29.9-39.6,49.5-67.7,49.5-45.5,0-82.4-51.4-82.4-114.8S236.5,85.3,282,85.3c26.8,0,50.6,17.9,65.7,45.5"/></g><g id="Ellipse_29-2" data-name="Ellipse 29"><path class="cls-1" d="M324.2,264.3c23.7,77.7,89.3,133.6,166.6,133.6,97.3,0,176.2-88.5,176.2-197.8S588.1,2.3,490.8,2.3c-76.2,0-141.1,54.4-165.7,130.5"/></g><g id="Ellipse_28-2" data-name="Ellipse 28"><path class="cls-1" d="M324.8,265.4c21,65,72.3,110.9,132.4,110.9,78.7,0,142.5-78.9,142.5-176.2S535.9,24,457.2,24c-58.9,0-109.4,44-131.1,106.9"/></g><g id="Ellipse_26-2" data-name="Ellipse 26"><path class="cls-1" d="M321.3,265.7c18.5,45,55.4,75.7,98,75.7,61.1,0,110.6-63.3,110.6-141.3S480.4,58.8,419.3,58.8c-41.4,0-77.5,29.1-96.5,72"/></g><g id="Ellipse_25-2" data-name="Ellipse 25"><path class="cls-1" d="M318.5,265.4c14.8,29.9,39.6,49.5,67.7,49.5,45.5,0,82.4-51.4,82.4-114.8S431.7,85.3,386.2,85.3c-26.8,0-50.6,17.9-65.7,45.5"/></g><path class="cls-2" d="M333.5,106.8c-51.9,0-93.9,41.8-93.9,93.3s42,93.3,93.9,93.3,93.9-41.7,93.9-93.3S385.4,106.8,333.5,106.8Zm30.2,123.4a43.2,43.2,0,0,1-60.4,0A42.3,42.3,0,0,1,290.7,200h0a42.3,42.3,0,0,1,12.6-30.2,43.1,43.1,0,0,1,30.2-12.3h0a43.1,43.1,0,0,1,30.2,12.3,42.5,42.5,0,0,1,0,60.4Z"/><g class="cls-3"><line class="cls-4" x1="303.3" y1="169.8" x2="299.8" y2="166.3"/><line class="cls-4" x1="292.9" y1="159.4" x2="289.3" y2="155.9"/></g><g class="cls-3"><line class="cls-4" x1="377.6" y1="244.1" x2="374.1" y2="240.6"/><line class="cls-4" x1="367.2" y1="233.7" x2="363.7" y2="230.2"/></g><g class="cls-3"><line class="cls-5" x1="333.5" y1="157.5" x2="333.5" y2="152.5"/><line class="cls-5" x1="333.5" y1="142.6" x2="333.5" y2="137.6"/></g><g class="cls-3"><line class="cls-5" x1="333.5" y1="262.4" x2="333.5" y2="257.4"/><line class="cls-5" x1="333.5" y1="247.5" x2="333.5" y2="242.5"/></g><g class="cls-3"><line class="cls-4" x1="377.6" y1="155.9" x2="374.1" y2="159.4"/><line class="cls-4" x1="367.2" y1="166.3" x2="363.7" y2="169.8"/></g><g class="cls-3"><line class="cls-4" x1="303.3" y1="230.2" x2="299.8" y2="233.7"/><line class="cls-4" x1="292.9" y1="240.6" x2="289.4" y2="244.1"/></g><g class="cls-3"><line class="cls-5" x1="395.9" y1="200" x2="390.9" y2="200"/><line class="cls-5" x1="381.3" y1="200" x2="376.3" y2="200"/></g><g class="cls-3"><line class="cls-5" x1="290.7" y1="200" x2="285.7" y2="200"/><line class="cls-5" x1="276.1" y1="200" x2="271.1" y2="200"/></g></svg>