<svg id="Layer_1" data-name="Layer 1" xmlns="http://www.w3.org/2000/svg" viewBox="0 0 558.9 782.9"><defs><style>.cls-1{fill:#212121;}</style></defs><title>ink-blot</title><g id="dYbDzb"><path class="cls-1" d="M108.9,293.8c4.2-4.6,9.7-3.1,14.6-2.7,3,.3,6.6.4,9.1,3.1a2.7,2.7,0,0,0,2.2.5c3-.3,5.4,1,7.9,2.2s4.4,2.4,4.7,5.7.9,2.9,4.5,2.9c1.3,0,3.1.7,3.6-.6s-1.1-2.4-2.4-3.2a21.9,21.9,0,0,1-6.9-7.3c-.2-.3-.5-.5-.6-.8-1.8-3.6-1.8-3.6-6-4.6h-1c-1.7.1-1.7-2.5-3.2-2.2s-2.2,1.2-3.4,1.9-1.2-.1-1.8-.3c-3.1-.7-4.4-3.2-5.4-5.8s-.1-3.2,1.8-4.5,6.4-1.5,9.3-.7c6.6,1.7,10.5-1.6,14.1-6a18.1,18.1,0,0,0,1.9-2.9c2.6-5.1,7.4-6.5,12.2-3.5,1.9,1.2,3.7,2.6,6.2,2.5s3,.3,3.6,1.1c2.6,3.4,6.3,2.9,9.6,3.2s7.5,2.2,11.4,1.5c2.1,1.9,4.5,1.1,6.8.9s4.9.1,6.6,1.3c4.2,3,8.1.8,12.2.2a10,10,0,0,0,4.9-2c4-3,8.9-3.6,13.4-5.4.6-.2,1.5-.3.4-.9a6.3,6.3,0,0,1-2.4-3c-1.9-3.1-1.3-8.6,1.7-10.2,4.5-2.3,3.1-6.2,3.4-9.6.2-1.8-.8-3.7-1.5-5.5-1.7-4.6-1.5-8.9,2-12.7a2.5,2.5,0,0,0,.8-2.2c-.6-3.2,1.3-5.1,3.7-6.8s3-2.9-.2-5.2-6.1-3.3-8.7-5.7a16,16,0,0,1-4.2-5.8c-1.8-4.8-3.6-9.5-1.4-14.6a1.7,1.7,0,0,0,0-1c-1.2-2.3,0-4.7,0-7.1s.7-4.6-2.2-5.8c-.4-.1-.6-.8-.8-1.2a18.5,18.5,0,0,1-2.1-6.9c-.3-2.3-2.9-3.8-3.5-6.2s.8-6.4,2.3-9.3a18.6,18.6,0,0,1,1.9-2.2c.6-.9.2-1.6-.8-1.6s-3.6-.1-5.4-.2c-3.9-.2-7.7-.7-10.3-4.3-1.1-1.4-3-1.9-4.7-2.4-4.1-1.3-6.4-4.9-9.9-6.9-.5-2.7-2.4-5.3-1.1-8.3l1.1-2.2c1.8-3.7.7-6.1-3.4-7.2-.9-.2-2.1-.1-2.6-1-2.8-5-7.9-4.2-12.3-4.8-2.3-.4-4.3-.7-6-2.6s-2.5-1.9-5.1-.4l-10.8,6.4a10,10,0,0,1-5.6,1.4c-4.7-.4-9.4.5-14.1-.9a24.3,24.3,0,0,1-8-4.1c-2.3-1.7-4.3-3.9-7-5.1-1.9-4.2-6.3-4.6-9.7-6.4-1-.6-1.8-1.4-2.8-2-3.1-1.9-5.8-4.6-10-4.2-2.2.2-4.1-1-5.6-2.6A53.3,53.3,0,0,0,79.5,75.4a7,7,0,0,1-4-6.6c-.2-3.1-1.1-3.8-4.3-3.1s-6.1.4-8.7-1.8-5.7-4.7-8.3-7.4a10.2,10.2,0,0,0-5.7-3.2,9.9,9.9,0,0,1-7.8-6c-1.4-3.2-3.8-6.1-3.5-10a1.5,1.5,0,0,0-1.3-1.8,13.9,13.9,0,0,1-7.1-3.7,4.6,4.6,0,0,0-2.7-1.1A3.4,3.4,0,0,1,23,28.8a6.4,6.4,0,0,0-2.7-2.7c-5.5-2.5-4.5-8.7-2.6-13S24.1,7.5,28.4,7s6.8,0,10.3,0h1c1.7.1,3.2,2.4,4.8,1.5s2.5-2,3.8-3,1.8-.4,2.7,0c3.4,1.5,6.7,1.3,10.4.7,7.2-1,14.7-1.3,21.7,1.6,1.9.8,3.7.3,5.6,0,5.1-.9,9.9-2.9,15.3-1a9.3,9.3,0,0,0,7.6-.7c3.2-1.8,6.7-1.4,10-.8a45,45,0,0,0,6.3.7A24.6,24.6,0,0,1,139,9.1a33.8,33.8,0,0,1,9.8,7c5,5.5,10.7,10.2,16.2,14.9s9.5,9.8,15.3,13.7a12.9,12.9,0,0,1,5.4,7.3c.9,3.7,3.4,6.3,5.4,9.2s2.7,3.2,4,4.9,3.8,3.5,6.5,1.4,8.2-2.6,12.4-3.5c1.3-.2,2.6-.2,3.5-1.3,3.2-4.1,8-4,12.4-4.6s8.6,1,13,1.4l4.3.5a13.4,13.4,0,0,1,8.5,3c3.4,2.4,7.5,3.8,10.9,6.2.9.7,2,1.2,2.9,1.9a11.1,11.1,0,0,0,5.9,1.8c6.3.4,11.7-.7,16.8-4.8s8.7-5.6,13.3-8c2.3-1.1,4.7-.9,7.1-1.4a73.8,73.8,0,0,1,19.3-1.6c3.3.1,5.4,2.2,7.7,3.9s3.1,2.2,5.2,2c4-.5,7.3.7,10.7,2.7s3.4,1.7,6.3-1.1a37.4,37.4,0,0,0,9.3-14.1c1.5-4,4.3-7.1,7.7-9.8s5.3-5,7.9-7.6,7.2-8.3,11.7-11.5a50.5,50.5,0,0,0,7.1-5.9,54.6,54.6,0,0,1,21-13A69.9,69.9,0,0,1,437.7.2a12.7,12.7,0,0,1,7.2.9,12.1,12.1,0,0,0,8.6.4c4.7-1.4,9.2.7,13.7,1.8,1.8.5,3,1.5,5.3.2s5.3-1.4,8-1.4c6.2.1,12.4-.9,18.5.8,1.2.3,2.2-.4,3.2-.9,3-1.4,5.9-1.7,8.4,1.1a1.8,1.8,0,0,0,2.6.3c3.6-2.1,7.8-1.8,11.6-3.2a3.8,3.8,0,0,1,2.9.4A7.9,7.9,0,0,0,530.8,2c4.5.4,7,3.5,8.7,6.9s1.8,4.8.1,7.2c-3,4.1-5.9,8.1-11.1,9.5a3.2,3.2,0,0,0-2.2,1.7,3.3,3.3,0,0,1-2.8,1.8c-3.1.1-3.8,2-4.3,4.6s-2.8,6.6-4.4,9.8a8.1,8.1,0,0,1-6,4.6c-3.3.6-5.5,2.5-7.8,4.7s-4.4,4.7-7.1,6.6a8.5,8.5,0,0,1-5.9,1.7h-3.4c-2.8.1-3,.1-3,3.1s-1,5.5-4.1,6.9-5.1,3.6-7.9,4.9a2.9,2.9,0,0,0-1.7,1.7c-.7,1.7-2.3,2.7-3.5,4a8,8,0,0,1-6.9,3c-2.4-.1-4.3.9-6.3,2.3s-6.7,6.2-11.6,6.6a1.6,1.6,0,0,0-1.3,1.3c-.7,2.6-3.1,3.7-5,5.1a18.2,18.2,0,0,0-3.5,2.7c-3.9,4.5-9.2,6.2-14.9,6.5s-9.2.9-13.6-.9c-1-.5-2.4-.7-3-1.5-2.1-2.9-5.6-3.1-8.3-4.9a3.8,3.8,0,0,0-5.3.8,6.8,6.8,0,0,1-6.5,2.7c-2.4-.2-4.6,1.5-7.1,1a.8.8,0,0,0-.9.4c-1.7,3-4.5,4.1-7.6,5.4s-3.1,3.1-1.3,5.8,1.8,5.9,1.4,9c-.1,1-.5,2.5-1.7,2.7s-3.6,2.7-5.4,4.1-1.5,1.7-2.7,1.9a11.8,11.8,0,0,0-6.8,4.2c-1.8,2.1-5,2.8-8,2.8a48.7,48.7,0,0,0-5.4.1c-1.7.2-2,1.1-1.2,2.7s2.8,3.3,3.5,5.7a10,10,0,0,1-1.3,8.8,9.3,9.3,0,0,0-1.3,3.5c-.7,3.1-1.4,6.3-4.2,8.5s-2,2.6-1,4.3.4,2.6.4,3.9a38.6,38.6,0,0,0,.8,8.2c.7,2.5,1.4,5.2-.7,7.7a4.3,4.3,0,0,0-1,2.7c.1,2.3-1.3,3.5-2.7,4.9a51.7,51.7,0,0,1-9.5,7.4c-3.8,2.4-4.9,2.4-.1,5.8,2.2,1.6,3.4,3.4,3.4,6a3.7,3.7,0,0,0,1.3,3c3.2,2.9,3.2,6.6,2,10.2a30.9,30.9,0,0,0-1.4,12.8,3.9,3.9,0,0,0,1.7,3.2c5.7,4.3,6.2,7.9,1.7,13.3-1.5,1.9-.5,1.4.9,2.1,4,1.8,8.3,2.4,12.2,4.6s6.7,2.4,10.2,3a8.2,8.2,0,0,0,6.1-1,11.3,11.3,0,0,1,6.9-1.9c2.4.1,4.9.5,6.9-1.6a2.9,2.9,0,0,1,1.4-.3c4,.3,7.7-1.4,11.5-1.6s6.1-1.9,9.1-3.1,7.9-3.5,11.9-5.2,7.3-.2,9.4,3.3c.7,1.1,1.4,2.2,2.2,3.3,4.5,6.8,8.6,7,14.9,5.7,3-.6,5.9-1.2,8.9.9a3.9,3.9,0,0,1,1.7,4.6c-1.3,4.6-4.6,6.3-9.3,4.9-1.2-.4-2.4-1-3.4.5a3.3,3.3,0,0,1-1.9,1.4c-1.8.3-3.6.3-5.3.5.6,1.9-.4,3.3-1.3,4.9a24.7,24.7,0,0,1-7,7.4c-.6.4-1.4.7-1.8,1.5a1.5,1.5,0,0,0,1.3,2.4,18.6,18.6,0,0,0,5.2-1.1c1.6-.7,2-2.4,2-4.1a2.2,2.2,0,0,1,1.1-2.1c2.8-1.2,4.9-3.9,8.3-3.5a7.9,7.9,0,0,0,5.1-1.5c5-4,11.1-3.1,16.7-3.7a6,6,0,0,1,5.5,2.7c.3.6,1.2.7,1-.4a3.6,3.6,0,0,1,.2-2.3c.6-1.4,0-3.2,2.1-4a6.3,6.3,0,0,1,6.1.4c1.8,1,3.2,2.2,2.9,4.6a6.1,6.1,0,0,1-4.2,4.9c-1.7.4-3.1-.6-4.6-1.1s-1.3-.4-1.2,1.1c.2,3,2.4,5.3,2.5,8.4,0,.7.9.7,1.4.1s1.4-1.8,2.1-2.7a7,7,0,0,1,5.2-2.5,16,16,0,0,0,5.2-1c4.2-1.3,7.5.4,9.6,4.3a4.2,4.2,0,0,1,0,4.2,28.5,28.5,0,0,1-6.8,8.3c-3.5,2.7-7.4,2.6-11.5,1-.4-.2-.8-1.2-1.4-.2s.3.9.6,1.2c5.2,5.1,2.8,11.3,2.8,17.2,0,.4-.5.8-.8,1.1s-.5,1.8,1,2.2c4.2,1.1,6.3,4,6.1,7.6a3.9,3.9,0,0,1-.7,2.3c-2.3,2.6-2.7,6.3-5.5,8.6a1.7,1.7,0,0,0-.2,2.2c.4.9.5,1.9.9,2.7s.4,3.1-1.3,4.1a10.4,10.4,0,0,0-5.3,5.4c-.6,1.6-2.3,1.6-3.8,1.5a1.5,1.5,0,0,0-1.7,1.8,9.7,9.7,0,0,1-3.7,8.2,12.5,12.5,0,0,0-1.6,2.4c-2.9,5-8,7.6-13.5,6-2.6-.8-4.5.1-6.6.7s-2.8,1.6-4.5,1.5-1.3.8-1.8,1.4c-2.7,3.3-5.6,6.4-9.9,7.7a3.9,3.9,0,0,0-2.1,1.9c-2.9,5.5-8.1,5.8-12.7,4.2s-7.5-.2-11.2-1.2a1,1,0,0,0-.9.2c-2.3,2.4-5,2.3-8,1.6a4.1,4.1,0,0,0-2.9.1c-2.8,1.4-5.5.9-8-.3a11.7,11.7,0,0,1-5.8-5.8c-2.1-4.7-6.1-7.5-9.7-10.6-.9-.8-2-1.2-2.1-2.5-.5-4.4-4-6.1-7.4-7.4s-6.7-3.9-10.2-5.5c-.4-.2-.7-.7-1.1-1s-1.9-4.1-3.7-5a46.5,46.5,0,0,1-5.2-3.4c-2-1.3-1.2-3.7-2.2-5-2.5-3.3-1.7-6.9-1.5-10.4a39.9,39.9,0,0,1,1.5-7.5c.8-3.1,2-6.2,2.2-9.4.1-.5,0-1.2.3-1.5,2.7-2.9.7-6.1.6-9.2,0-.8-.6-1.1-1.4-.8-5,2-8.7,0-12.1-3.6a30.4,30.4,0,0,0-6-4.1c-1.2-.7-2.6-1.1-3.1-2.3s-2.7-1.9-4.8-1.4-3.4,1.6-5.6.5-3-1.2-3.8-2.7a9.3,9.3,0,0,0-2.1-2.7c-1.2-1.1-2.2-.9-3.1.5s-.6,1.2-1,1.7c-2.3,3.8-5.4,4.9-9.5,3-2-.8-3.1-.7-4.7.8s-6.8,4.5-9.5,7.4a15.2,15.2,0,0,1-6.9,4.2c-2,.6-3.9.7-5.5-.9s-1-.7-1.3-.5.1,1.1.2,1.6.1.4,0,.5c-.8,3.7-.7,7,1.6,10.5,1.3,1.8.5,5,1.3,7.5s1.7,6.8,2.5,10.2,1.3,5.4-.9,7.8c-.3,4.9-2.9,8-7.1,10-.7.4-1,1.3-1.4,2a31.4,31.4,0,0,1-5.3,5c-4,3.6-9.1,5.5-12.9,9.2-.8.9-1.9,1.7-2,2.7-.2,4.7-4.3,6.5-7.1,9.2s-3.7,3.1-5,5.2c-3,5-7.4,7-13.2,5.5a9.1,9.1,0,0,0-6.1,0,6.2,6.2,0,0,1-3.8.2c-2-.7-3.7-.3-5.6-.2a24,24,0,0,0-9.1,3.1,9.3,9.3,0,0,1-11.2-2.9,11.9,11.9,0,0,0-4-3.4c-3.2-1.8-6.6-3.6-8.3-7.2a2.7,2.7,0,0,0-1.4-1.4c-4.3-1.6-8.3-4.8-13.3-3.5s-6.6-.7-9.7-2.2c-.2-.2-.6-.4-.7-.6-1.8-4.7-7.4-7-7.8-12.5-.1-1-.7-1.4-1.6-1.6a8.8,8.8,0,0,1-5.4-3.9,11.3,11.3,0,0,0-3.8-2.9c-1.7-.9-2.4-2-1.4-3.9a21.7,21.7,0,0,1,.7-2.4c.6-1.1.5-1.7-.5-2.8a44.7,44.7,0,0,1-5.1-7.7A7.4,7.4,0,0,1,98.5,339c1.1-.4,1.7-.7,1.1-2-2-4.3-1.3-9-1.4-13.5,0-1.8,1.4-3.3,2.5-4.7s.1-.6,0-.8-.6-.5-.8-.4a13.1,13.1,0,0,1-3.8.9,10.2,10.2,0,0,1-8.5-3,35.3,35.3,0,0,1-5.1-5.8c-2.6-3.9.7-9.8,5.4-10.1s7.3,1.1,11,1.6,3.8,2.3,5,4.3-.1,1.5.7,1.4.8-1,.9-1.6.2-2.7.6-3.9,1.9-5.1,2.8-7.6Z" transform="translate(-1.1 0)"/><path class="cls-1" d="M142.2,211.3h-5.4c-2.1-.1-4.4-.4-5.8-2s-5.5-3.5-8.4-4.7a43.2,43.2,0,0,1-7.7-4c-2.9-1.6-3.9-4.3-4.9-7s-.1-5,2.5-6.7a15.1,15.1,0,0,0,5.6-5.9,8,8,0,0,1,1.8-2.3,76.8,76.8,0,0,0,5.5-5.9c6.9-8,18.6-12.7,30.3-7.5,3.6,1.6,7.6,2.7,10.4,5.8s6.2,7.5,7,12.2c.6,3,1,6.7-3.2,9s-5.4,5.1-6.8,8.6c-2.8,7.4-9.1,9.5-16,10.4a40,40,0,0,1-4.9,0Z" transform="translate(-1.1 0)"/><path class="cls-1" d="M415.4,207.4c-2.3,0-5.4.2-8.3-1s-8.3-3.6-9.9-8.6-4.1-6.2-7.3-8.3c-1.4-1-3.6-2.2-3.3-3.9s-.6-4.8.7-7.4,3.7-7.9,7.1-10.7a32.3,32.3,0,0,1,16.1-7.2,64.6,64.6,0,0,1,8.8-.1,3.2,3.2,0,0,1,1.4.1c5.3,2.5,10.9,4.5,14.6,9.4s6.5,6.1,8.7,10.2c.6,1.1,2.3,1.7,3.5,2.6s3.4,4,2.4,6.7-2.4,5.4-5,7a35.3,35.3,0,0,1-8.1,4.4,15.7,15.7,0,0,0-7.1,4.2c-2.5,2.5-6,2-9.1,2.6A44.3,44.3,0,0,1,415.4,207.4Z" transform="translate(-1.1 0)"/><path class="cls-1" d="M125.9,273.3c-3.4.4-5.9-2.2-8.7-4.2-.4-.3-.6-1.4-1.1-1.5-4.7-.9-6.4-5.6-10.2-7.6s-3-3.2-3-5.7.9-6.4,3.6-8.7a10.3,10.3,0,0,0,2.6-4c2.5-5.2,6.4-9.4,10.7-13.1.9-.7,2.5-.6,3.7-1,3.5-1.2,7.1-2.4,10.5-3.8a7.2,7.2,0,0,1,8.7,2.1,32.5,32.5,0,0,0,3.9,3.5c3.7,3.1,3.5,7.5,4.1,11.5.3,1.8-1.2,4-2.8,5.6a5.7,5.7,0,0,0-1.8,4.3c.1,3-.8,5.4-4.3,6.1-.7.1-1.2,1-1.9,1.4s-1.5.9-.3,1.9,2.4,3.5-.8,5.2a2.9,2.9,0,0,0-1.5,1.6C135.1,271.5,131.2,273.3,125.9,273.3Z" transform="translate(-1.1 0)"/><path class="cls-1" d="M435.5,268.7c-4.3,0-7.2-2-10.1-4.2a2.4,2.4,0,0,1-.8-2.2c0-1.1-.4-1.9-1.7-1.8s-2.4-.9-2.2-2.5,1-2.4,3.4-2.3c.4,0,.9.7,1.2,0s-.4-1.1-1.1-1.1c-2.9-.1-4.8-2.5-7.3-3.6s-1.8-3-1.7-4.3a3.3,3.3,0,0,0-1.2-3.3l-.7-.7c-4.8-5.5-2.8-11.9.1-16.5a21,21,0,0,1,5.1-5.2c2.3-1.5,4.9-2.5,7.8-1.6s8.2,2.1,12,3.8,7,3.4,9.1,7c.8,1.4,2.3,2.3,3.2,3.7a77.9,77.9,0,0,0,7,10.3c2.8,3.6,1.7,7.4-2.1,10.3a27.6,27.6,0,0,0-5.5,5.3c-.1.1-.1.2-.2.4-1.3,1.9-4.6.5-5.4,3.6s-3.6,2.5-5.3,3.9S436.4,268.5,435.5,268.7Z" transform="translate(-1.1 0)"/><path class="cls-1" d="M35.3,55.2c5.4-1.1,9.2,1.4,12.4,5.1.5.6.7,1.4,1.6,1.7s1.4,1,1.9-.3a1.9,1.9,0,0,1,.9-1.1c.8-.7,1.8-.9,2.5,0s.5,2.1-.7,2.3-2,2.1-1.5,3.7.8,1.5,1,2.2c2.2,5.6.8,9.1-3.6,13.1s-8.7,4.1-13.7,5-10.1-1.2-14.8-3a8.4,8.4,0,0,1-5.6-8.3,3.4,3.4,0,0,0-.1-1c-2.3-6.5,2.1-10.7,5.4-15.2,1.5-2.1,4.7-2.5,7.3-3.3S33,54.7,35.3,55.2Z" transform="translate(-1.1 0)"/><path class="cls-1" d="M522.3,80.6c-3.3.8-6.3-.4-9.2-1.1-4.5-1-7.5-4.6-9.7-8.3a7.5,7.5,0,0,1,.4-7.5c1.5-2,0-5.4,2.5-6.4s3.8-3,5.5-4.6a11.6,11.6,0,0,1,8.2-3.5,36.9,36.9,0,0,1,10.5,1.4c7.3,1.8,10,7.6,11.5,13.7a13.5,13.5,0,0,1-1.9,10.5c-2.2,3-5.2,4.2-8.5,4.9S525.5,81.9,522.3,80.6Z" transform="translate(-1.1 0)"/><path class="cls-1" d="M453.1,121.1a8,8,0,0,1-8.6,8.3,13.5,13.5,0,0,0-2.8.4c-3.2.2-6.2,0-8.5-2.7-.7-.9-1.7-1.3-1.6.5.3,3.4-2.3,4.8-4.1,6.8s-4.6,2.3-7,3.2c-.9.2-1.6-.5-2.3-.7-3.2-.8-4.9-3.8-7.6-5.3a2.6,2.6,0,0,1-.6-1.3c-.8-3.2,1.2-7.8,4.2-9.5l.9-.5c4.6-3.3,9.1-2.6,13.5.3,1.3.9,1.8,1.3,2.1-.6s1.2-2.4,1.6-3.6a4,4,0,0,1,3.6-2.9c3.6-.2,7.1-1.8,10.9-.6S453.1,115.6,453.1,121.1Z" transform="translate(-1.1 0)"/><path class="cls-1" d="M117,117h1c6.4,0,8.6,1.9,9.6,8.3a2.9,2.9,0,0,0,.2.9l.9-.9c2.2-2.4,5.3-3,8.1-4.1.7-.3,1.3.1,1.9.4l3.2,1.1c4.3,1,6.2,3.6,6.6,8.2.1,1.9,0,3-1.2,4.2l-2.8,2.8c-4.1,3.7-9.4,3.7-13.5-.2-2-1.8-4-3.7-4.5-6.7-.2-1-.8-1-1.3-.3-3.6,5-9,3.3-13.5,2.7s-8.6-8.2-5.3-13c1.4-2.1,4-3.1,6.7-3.4Z" transform="translate(-1.1 0)"/><path class="cls-1" d="M338.9,174.9c5,.1,6.6,2.3,5.3,6a14.7,14.7,0,0,1-1,2.2c-1.2,1.9-2.9,3.6-5,3.3s-4.4-2-5.5-4.3a4.2,4.2,0,0,1,1.7-5.5A12.8,12.8,0,0,1,338.9,174.9Z" transform="translate(-1.1 0)"/><path class="cls-1" d="M220.5,176.9a6.9,6.9,0,0,1,4.9,1.4c2.5,1.7,2.9,4.6,1,6.7a11.4,11.4,0,0,1-3.6,2.6,4.1,4.1,0,0,1-5-1.7,17.3,17.3,0,0,1-1.9-2.8c-2-3.5-.6-6,3.5-6.2Z" transform="translate(-1.1 0)"/><path class="cls-1" d="M108.9,293.8c-2,.9-3,3.4-5.8,3.1s-4-.6-4.7-2.7-.9-4.1.7-5.9,3.1-2.9,5.5-2.3,3.1,1.9,3.6,4.1.8,2.4.7,3.7Z" transform="translate(-1.1 0)"/><path class="cls-1" d="M457.6,237.9c-2.6.1-3.6-.9-3.6-3.4a4.2,4.2,0,0,1,4.6-4.6c2.3,0,3.2.9,3.3,3.2A4.2,4.2,0,0,1,457.6,237.9Z" transform="translate(-1.1 0)"/><path class="cls-1" d="M107,239.2c0,2.6-1,3.6-3.5,3.6a4.3,4.3,0,0,1-4.5-4.1c-.1-2.6.9-3.8,3.3-3.9A4.2,4.2,0,0,1,107,239.2Z" transform="translate(-1.1 0)"/><path class="cls-1" d="M447.9,144.5c-1.7-.1-3.7-1.9-3.5-3.3a4.2,4.2,0,0,1,4-3.6c1.7.1,3.7,2.4,3.5,4S449.6,144.6,447.9,144.5Z" transform="translate(-1.1 0)"/><path class="cls-1" d="M110.4,148.5a3.4,3.4,0,0,1-3.3-2.9c-.1-1.6,2.4-4,4.2-4s3.2,2.1,3.3,3.8S112.5,148.5,110.4,148.5Z" transform="translate(-1.1 0)"/></g><g id="pn9Ti9"><path class="cls-1" d="M274.8,782.9h-2.5l-1.6-1.4a11,11,0,0,0-5.5-3.2,29.5,29.5,0,0,1-5-1.7,4.2,4.2,0,0,1-2.5-3c-.5-1.9-.7-3.8-1.1-5.6a4.6,4.6,0,0,1,2-5.1l4.4-3.2c.4-.4.6-.6.4-1.2a18.4,18.4,0,0,1-.9-2.5,30.6,30.6,0,0,1-1.7-7.4,3.9,3.9,0,0,0-3.1-3.7,6.3,6.3,0,0,0-1.9-.3,15.3,15.3,0,0,1-4.3-.4,23.3,23.3,0,0,1-10.6-4.8c-2.3-1.8-4.1-4-6.4-5.8a46.3,46.3,0,0,0-6.8-4.8,54.1,54.1,0,0,1-6.1-3.6c-1.9-1.4-3.1-3.1-2.9-5.6a14.6,14.6,0,0,1,.3-2.2,2.9,2.9,0,0,0-1.4-3.3,23.9,23.9,0,0,0-7.7-3.3,3.5,3.5,0,0,0-2.5.4,4.7,4.7,0,0,1-2.8.7c-1.7-.1-2.1-.5-2.6-2.1s-.5-3.7-.9-5.5l-.3-1.8c-.2-.4-.3-1-.8-1s-.7.5-.9.9a26.8,26.8,0,0,0-.7,2.7,13.9,13.9,0,0,1-.6,1.9c-.4,1-1.1,1.2-2.1.7a4.4,4.4,0,0,1-2-1.8,27.1,27.1,0,0,0-6.4-6.7,7.8,7.8,0,0,1-3.6-4.9,7.8,7.8,0,0,0-.5-1.4,8.5,8.5,0,0,0-3.3-4.4,12.7,12.7,0,0,0-5.7-2.3,10.3,10.3,0,0,1-5.9-3.1l-1.7-1.6c-.9-.9-.9-.9-1.9-.2l-1.1.9a29,29,0,0,1-5.8,4.1,5.6,5.6,0,0,1-6,0,26.9,26.9,0,0,0-3.8-1.9c-2.5-1.1-5-1.4-7.3.3s-6,1.3-6.6-2.9v-.3a6.2,6.2,0,0,0-1.8-4c-1-1.2-1-1.2-1.7.2a23.3,23.3,0,0,1-4,6,7.6,7.6,0,0,0-1.6,3.1c-1.2,3.4-3.4,6-7.3,6.7a11.4,11.4,0,0,1-2.6-.2,2.8,2.8,0,0,1-2-1,5,5,0,0,1-1.3-1.9c-1.4-2.5-2.7-5-4-7.5a9.6,9.6,0,0,1-1-3.4c-.3-2.2.8-3.9,2.2-5.5l3.3-4a35.6,35.6,0,0,0,3.7-5.8,2.9,2.9,0,0,0,.2-1.6c-1-3.4-2.9-4.3-5.7-3.8a15.6,15.6,0,0,1-8.5-1,5.5,5.5,0,0,0-3.4-.4l-4.5.8a20.9,20.9,0,0,1-4.9.5,4.1,4.1,0,0,1-4-3.3l-.3-1c-.1-1.9-.3-3.8,1.1-5.4a2.4,2.4,0,0,0,.5-1c.4-1.3.1-2.1-1.3-2.4a3.6,3.6,0,0,1-2.7-2.5c0-.2-.1-.5-.1-.7a22,22,0,0,1-.6-5c-.1-4.1-.1-8.1-.1-12.1,0-1.5.1-3,0-4.5a1.4,1.4,0,0,1,.9-1.4l3.8-1.9a5.6,5.6,0,0,0,3.2-3.5c.3-.9.7-1.7,1.1-2.6a2.5,2.5,0,0,1,2.8-1.9l4.3.4c1.3.2,1.8,0,1.9-1.3s.2-2.4.3-3.6a15.1,15.1,0,0,0-.2-3.7,22.5,22.5,0,0,0-1.9-5.7c-1.1-2.3-2.2-4.6-3.1-6.9a4.5,4.5,0,0,1,.5-4.7,2.2,2.2,0,0,1,3.3-.7,16.2,16.2,0,0,1,1.9,1.8,1.4,1.4,0,0,0,2.3-.3l.9-1.6a31.8,31.8,0,0,0,1.6-3.2,15.7,15.7,0,0,1,3.4-4.7,24.4,24.4,0,0,1,5.5-3.5,5.9,5.9,0,0,1,5.2,0l.9.5a1.8,1.8,0,0,0,2.4-1.4,3.1,3.1,0,0,0,.1-1.9c-.6-2.2.3-3.7,2-4.9a10.6,10.6,0,0,0,1.7-2c.7-1.2.3-2.2-1.1-2.3a6.1,6.1,0,0,1-2.9-1.1,21.8,21.8,0,0,1-3.1-2.2,28.5,28.5,0,0,0-3.8-3.1,4,4,0,0,0-3.8-.5l-2.6,1a5.6,5.6,0,0,1-5.6-.1l-2.4-1.3a20.8,20.8,0,0,0-4.7-2.4,3.4,3.4,0,0,0-2.8.1,37,37,0,0,0-4.3,2.5,15.7,15.7,0,0,1-5.9,2.6c-2.1.4-3.9,1.5-5.8,2.3a26.6,26.6,0,0,1-3.9,1.6,6.9,6.9,0,0,1-4.5,0,16.6,16.6,0,0,1-3.1-1.2,16.9,16.9,0,0,0-6.5-2,7.3,7.3,0,0,1-4.1-1.8,7.4,7.4,0,0,0-5.1-1.9,11.5,11.5,0,0,0-5.3,1.3,6.5,6.5,0,0,1-5.6-.1l-1.6-.9L33.8,550a1.5,1.5,0,0,0-1.8,0,50.8,50.8,0,0,1-4.3,2.7c-2.1,1.2-4.2,2.3-6.7,2.1a12.6,12.6,0,0,1-5-1.5,8.8,8.8,0,0,0-6.4-.7,21.3,21.3,0,0,1-4.4.7c-2,0-3.4-.7-4.1-2.6v-1.5a9.9,9.9,0,0,1,3.7-4.4,9.5,9.5,0,0,0,1.6-1.2,2.9,2.9,0,0,0,1.4-1.9,11.5,11.5,0,0,0,.3-2.6,6.2,6.2,0,0,1,1.2-3.5,12.1,12.1,0,0,1,2.1-2.4l3.8-3.5a42.4,42.4,0,0,1,4-3.1,4.6,4.6,0,0,1,3.6-.8,6.6,6.6,0,0,0,4.4-.2l2.8-1.4c3.2-1.7,6.4-3.5,9.7-5.1s5-2.7,7.6-3.8a14.9,14.9,0,0,1,3.9-1.3,8.1,8.1,0,0,0,2.2-.7,28.5,28.5,0,0,0,3.7-2.3l4.5-3.3a8.2,8.2,0,0,1,3.3-1.5,41.8,41.8,0,0,0,7.2-1.5c2.5-.7,4.5-2.5,7.2-2.8l.9-.5,2.3-1.6a8.7,8.7,0,0,1,4.5-2.2c2.7-.3,5.3-.5,8-.6l6-.5a13.9,13.9,0,0,0,4.4-.7,3,3,0,0,0,2.3-2.7,4.3,4.3,0,0,0,0-1.6,24.2,24.2,0,0,1-.3-4.7,8.2,8.2,0,0,1,1.7-5c1.1-1.6,2.8-2.7,4.1-4s2.1-1.8,2.2-3.2a7.5,7.5,0,0,1,3-5,16.3,16.3,0,0,1,4.5-2.4c4.4-1.5,7.5-4.6,10.1-8.3,1-1.4.6-2.6-.7-3.5l-2.7-1.5a9.8,9.8,0,0,1-4.6-5.2,12,12,0,0,1-.9-5,4.7,4.7,0,0,0-2.4-4.5l-1.3-1c-3.1-2.5-4.4-5.7-3.6-9.5s3.9-5.9,7.1-6.6c1.3-.2,2.6-.2,3.5,1.1a2.6,2.6,0,0,0,1,.7l12.2,6.9a10.5,10.5,0,0,0,3.8,1.2l4.5.2a20,20,0,0,1,5.9,1.2,15.6,15.6,0,0,0,4.3.8,19.9,19.9,0,0,1,5.9,1.1,24.1,24.1,0,0,0,5.8,1.7,8.8,8.8,0,0,1,2.3.7c1.8.7,2.1,1.6,1.7,3.4a6.1,6.1,0,0,1-.5,1.2l-.9,1.8a2.3,2.3,0,0,0,.3,2.7c1,1.2,2,2.5,3.1,3.6a55.9,55.9,0,0,1,4.8,6.1,22.7,22.7,0,0,1,3.6,9.9c.1,1.5.1,3.1.2,4.7.3,3.2,1.3,5.1,4.9,5.7l1.7.4c4.2,1,7.4,3.3,8.9,7.5a15.5,15.5,0,0,0,1.4,3.2,55.4,55.4,0,0,1,4.4,9.2c1.4,3.1,2.4,6.3,4,9.2a18,18,0,0,0,6.9,7.3,5.9,5.9,0,0,0,2.6,1,5.7,5.7,0,0,0,3.3-1.1,4.7,4.7,0,0,1,5.7-.2,9.8,9.8,0,0,0,5,1.3,3.4,3.4,0,0,0,3.6-2.1c.7-1.6,1.5-3.2,2.3-4.7a55.7,55.7,0,0,1,3.9-6.7,16.4,16.4,0,0,1,4.1-4.2,3.6,3.6,0,0,1,4,0c1.1.8,2,3.4.7,4.8a4,4,0,0,0-.7,3.8A22.5,22.5,0,0,0,254,510c1.2,2.5.8,4.2-1.5,5.8l-1.3,1.2a3.3,3.3,0,0,0-.6,3.5,2.8,2.8,0,0,0,2.7,1.8h3.4a3.3,3.3,0,0,0,2.2-.9,30.1,30.1,0,0,0,2.2-2.8,51.9,51.9,0,0,1,3.6-4.6,5.8,5.8,0,0,1,7.1-.7c3.1,2.4,6.1,4.9,6.4,9.2l.3.7a1.9,1.9,0,0,0,2.7,1,3.2,3.2,0,0,0,1.4-1.4l1.2-2.7c.9-2.3,2.1-4.5,4.4-5.8L291,513a4.3,4.3,0,0,1,4-.2,5,5,0,0,1,2.3,2,28.7,28.7,0,0,1,2.6,4.9,13.9,13.9,0,0,0,1.6,3.5,2.4,2.4,0,0,0,1.7,1.2,12.4,12.4,0,0,0,4.3,0,8.5,8.5,0,0,0,3.6-1.7c1.4-1.4,1.4-2.6.1-4a8.4,8.4,0,0,0-2.4-1.8c-2-1.1-2.4-2.2-1.8-4.4a13.6,13.6,0,0,1,1.4-3.3,2.7,2.7,0,0,0-.2-3,11.1,11.1,0,0,1-1.4-3.4,3.3,3.3,0,0,1-.1-1.7c.4-1.7,1.7-2.4,3.1-3s1.9.4,2.8,1a.8.8,0,0,1,.4.4,44.2,44.2,0,0,1,7,8c1.3,1.9,2.6,3.9,3.7,5.9a1.2,1.2,0,0,0,1.4.8c4.8,0,9.6.5,14.4.4.2,0,.4-.1.6,0,2,.7,3.5-.4,5-1.5a20.4,20.4,0,0,0,6.7-6.7,21.5,21.5,0,0,1,1.4-2.6l5.8-10.2a13.1,13.1,0,0,0,1.7-5.9,4.1,4.1,0,0,1,1.1-2.5,12.2,12.2,0,0,1,1.7-1.5c2.8-2.1,5.7-4,8.4-6.3a17.6,17.6,0,0,0,5.9-8.1c.6-2.2,1.1-4.3,1.5-6.5a12.9,12.9,0,0,1,4.6-8.3l3.7-2.7c1.3-1,2.7-1.9,2.9-3.8s.6-3.6-.9-5.2a2.2,2.2,0,0,1-.4-1.6,5.9,5.9,0,0,1,3-4.3,14.3,14.3,0,0,1,4.6-1.8,76.7,76.7,0,0,0,7.8-2.3,73.6,73.6,0,0,1,9.2-2.5,16.9,16.9,0,0,1,6.7-.4,5.9,5.9,0,0,0,3.5-.3l1.8-.8a58.5,58.5,0,0,1,6.8-3,23,23,0,0,1,8.6-1.6c2.3.2,3.4.9,3.9,3.2s.5,2,.7,3c.3,2.5-.1,4.8-2.2,6.5s-1.8,1.8-2.7,2.6a20.9,20.9,0,0,0-2.4,2.8c-1.3,1.8-2.6,3.6-2.6,6a6.5,6.5,0,0,1-.4,1.3,34.4,34.4,0,0,1-4.2,7.5l-1.5,1.6a2.8,2.8,0,0,0,.4,4.2A9.1,9.1,0,0,1,432,465a9.6,9.6,0,0,0,1.7,1.8,15.3,15.3,0,0,0,4.2,2.2,13.8,13.8,0,0,1,5.8,3.7,15,15,0,0,1,2.8,4.7,8.4,8.4,0,0,0,3.5,4.8,15.4,15.4,0,0,1,5,4.5,2.6,2.6,0,0,1,.3,2.4l-.6,1.2a9,9,0,0,0-.8,4.5c0,1,.3,1.2,1.2,1.5a6.1,6.1,0,0,0,2.3.3,27.4,27.4,0,0,1,7,.9,17.8,17.8,0,0,0,6.9.2,4.5,4.5,0,0,1,3.9,1.3c.9.9,1.8,1.7,2.6,2.6a13,13,0,0,0,4.4,2.9l5.2,1.9a24.2,24.2,0,0,1,5.2,2.3c1.9,1.2,3.8,2.2,5.8,3.3a70.8,70.8,0,0,1,8.9,5.1c2,1.3,3.8,2.7,5.7,4a6,6,0,0,0,3.6,1.2,52.4,52.4,0,0,1,5.6.2,9.1,9.1,0,0,1,4,1.4l2.7,2.1a7.9,7.9,0,0,0,5.3,1.8,12.7,12.7,0,0,1,6,1.8,57,57,0,0,0,5.4,3,59.5,59.5,0,0,1,8.2,5.2c.4.2.5.5.4,1s-.3,2.6-.5,3.8a4.1,4.1,0,0,0,1,3.7c.8,1,1.7,1.8,2.5,2.8a12.5,12.5,0,0,1,2.6,4.1c.5,1.7.2,2.4-1.3,3.2a23.4,23.4,0,0,1-6.8,2.6,12.3,12.3,0,0,1-3.3.3l-5.1-.4a80.8,80.8,0,0,1-9.8-1.9c-2.3-.6-4.7-.9-7.1-1.3s-3.5-.3-5.2-.5a8.7,8.7,0,0,0-6.1,1,7.1,7.1,0,0,1-3.7,1c-2.5,0-5,.5-7.6.4a5.4,5.4,0,0,0-1.8,0,9.2,9.2,0,0,0-3.3.6,12.7,12.7,0,0,1-5.7,1.2c-2.2.1-4.3,0-6.5,0h-1.8c-1.4-.1-2.5-.8-3.8-1.1a109.7,109.7,0,0,0-11.5-1.6l-3.7-.3c-2-.3-4-.3-6-.5s-3.3,0-4.9-.3a2.4,2.4,0,0,0-1.2,0,14.5,14.5,0,0,1-3.6.2,4.6,4.6,0,0,1-3-.9l-1.5-.8a1.4,1.4,0,0,0-2.1.7,20,20,0,0,0-1,2.1c-.6,1.6-1.3,3.2-2,4.7a3.3,3.3,0,0,1-2.3,2.1,2.1,2.1,0,0,0-1.8,2.3,52.3,52.3,0,0,0,0,5.6c0,.8.2.9.9.8a46.3,46.3,0,0,1,8.3-.2,6,6,0,0,1,5,2.7c.3.6.8,1.2,1.1,1.8,1.1,2.1,2.1,4.2,2,6.6a8.5,8.5,0,0,0,.4,2.3,3.3,3.3,0,0,0,3.8,2.6,3.7,3.7,0,0,0,2.5-1A3.7,3.7,0,0,1,464,586a3.1,3.1,0,0,1,2.4,4.6,5.6,5.6,0,0,1-2.2,2.1,8.9,8.9,0,0,0-4.5,6.6,34.7,34.7,0,0,0-.1,9.1,3.5,3.5,0,0,0,2.5,3l2,.8a9.5,9.5,0,0,1,4.9,3.9,14.1,14.1,0,0,0,5.3,5,11.4,11.4,0,0,1,4.6,4.9,8,8,0,0,1,.7,5.7,21.1,21.1,0,0,1-1.9,4.7,11.3,11.3,0,0,0-1.6,5.1,6.5,6.5,0,0,1-2.1,4.9,11.4,11.4,0,0,0-1.5,1.6,2.8,2.8,0,0,0-.4,3.9,4.9,4.9,0,0,1,.5,3.9,15,15,0,0,1-2.9,5.6,1.7,1.7,0,0,1-2.2.8,33.5,33.5,0,0,0-7.7-.7c-4.7-.2-9.5,0-14.2,0h-1a.5.5,0,0,0-.6.6v1.3a24.7,24.7,0,0,1-.7,6.6c-.2,1.2-.7,2.3-.9,3.5s0,2,1.3,2.4l2.8.7c2.2.3,4.2,1.1,4.9,3.5a8.2,8.2,0,0,1,.6,2.6c.1,2.5,0,4.9,0,7.4a1.3,1.3,0,0,1-.5,1.2,50.3,50.3,0,0,1-7.1,4.1,6.3,6.3,0,0,1-6.6-.6,12.9,12.9,0,0,1-5.3-7.2,13,13,0,0,0-1.3-3,4.9,4.9,0,0,0-1.1-1.4,1.3,1.3,0,0,0-1.6-.1,4.3,4.3,0,0,0-2,2,11.4,11.4,0,0,1-2.9,4c-1.8,1.3-3.6,2.2-5.8.9l-1.2-.4a22.6,22.6,0,0,0-7.3-.6c-.7,0-1.6-.3-1.8.3s.5,1.2.9,1.7a6.2,6.2,0,0,1,1.5,2.1,1.6,1.6,0,0,1-.7,2.2,3.3,3.3,0,0,1-1.5.5c-2,.2-3.6-.8-5.2-2a60.9,60.9,0,0,0-5.5-4.6,15,15,0,0,0-2.3-1.5c-1.8-1.1-2-2.7-.6-4.1a6,6,0,0,0,.9-1.3,2.1,2.1,0,0,0,.1-2.3c-.4-.5-1.3-.3-2.4.3a11.1,11.1,0,0,0-2.9,3.2c-1.2,1.6-2,3.4-3,5a4.4,4.4,0,0,1-4.5,2.6,10.6,10.6,0,0,0-3.1.4c-2.6.8-5,1.9-5.5,5.2a5.5,5.5,0,0,1-3.4,4.3,7.6,7.6,0,0,0-1.7,1.3,10.8,10.8,0,0,0-2.4,3.6c-.8,2-2.1,2.9-4.3,2.6s-1.4-.3-1.5-1.5l-.3-4.1a5.7,5.7,0,0,0-.8-2.5c-.1-.2-.2-.5-.5-.5a.8.8,0,0,0-.5.5,1.4,1.4,0,0,0-.2.6,57.1,57.1,0,0,0-2,10.8,7.4,7.4,0,0,1-.5,2.5c-.5,1.4-1.4,2-2.9,1.1a9.6,9.6,0,0,1-1.7-1.3,8.7,8.7,0,0,0-2.3-2,3.7,3.7,0,0,0-3.1-.6,7.4,7.4,0,0,0-5.6,6.2,25.6,25.6,0,0,1-.9,5.3,4.8,4.8,0,0,1-1.9,2.9l-5.2,3.8a65.4,65.4,0,0,0-11.6,9.4,4.9,4.9,0,0,1-3.6,1.5,14.7,14.7,0,0,0-10.1,4.1,7.6,7.6,0,0,1-5.4,2.1h-3.6a13.8,13.8,0,0,0-2,.3,1.4,1.4,0,0,0-1,.8,11.1,11.1,0,0,0-1.6,3.5,30.7,30.7,0,0,0-.7,6c.1,1.5,0,3.1,0,4.6a11.4,11.4,0,0,1-1.9,6.7,6.2,6.2,0,0,0-1.2,3.5,33.7,33.7,0,0,0,.2,5.5,6.5,6.5,0,0,1-.4,3.1,1.7,1.7,0,0,1-1.6,1.3,13.5,13.5,0,0,1-4.9-.6A8.5,8.5,0,0,0,274.8,782.9Zm52.6-166.3a3.6,3.6,0,0,0,3.6-2.1c1.8-4.5,3.7-9,5.1-13.7s3.4-8.6,5.2-12.8a76.2,76.2,0,0,0,4.8-13.9c.4-2.2.9-4.5.4-6.8s-1.6-2.6-3.3-1.3a16.8,16.8,0,0,0-2.1,1.8,5.7,5.7,0,0,1-3.5,1.8,54.2,54.2,0,0,1-5.8.6c-2,.1-3.9.5-5.9.7s-.9.4-1.1.9a10.8,10.8,0,0,0-.2,3.1c-.2,2.9-.8,5.7-2.9,7.9a37.9,37.9,0,0,1-5.1,4.7,11.6,11.6,0,0,1-5.3,2.4,8.8,8.8,0,0,0-4,2.2c-2.2,1.9-1.5,4.5,1.3,5.4a8.1,8.1,0,0,0,3.1.2c2.6-.5,4.4.6,5.9,2.7a19.5,19.5,0,0,1,1.9,3.5,52.8,52.8,0,0,0,2.7,5.3c1.3,2.2,2.9,4.1,3.7,6.5C326.1,616.4,326.7,616.6,327.4,616.6ZM328,684a4,4,0,0,0,3.7-1.9l1.2-1.8a10,10,0,0,1,4.1-3.2,14.5,14.5,0,0,0,8.9-9,32.7,32.7,0,0,1,2.4-5,29.5,29.5,0,0,1,2.5-2.5,37.5,37.5,0,0,0,4.2-6.2c1.3-2.3,2.7-4.6,4.1-6.8a8.8,8.8,0,0,1,5.2-4,3,3,0,0,0,2.5-2.6,3.6,3.6,0,0,0-.3-1.8,5.1,5.1,0,0,0-5.9-3.5,34.5,34.5,0,0,0-4.2,1.4,142.1,142.1,0,0,0-14.3,6.5,18.1,18.1,0,0,1-8.5,2.1,7.6,7.6,0,0,0-2.1.3,1.9,1.9,0,0,0-1.6,2,5,5,0,0,1-.3,1.3,49.8,49.8,0,0,1-1.6,5.5,70.5,70.5,0,0,0-1.6,12,38.7,38.7,0,0,1-.3,4.8c-.4,2.9-1.1,5.9-1.3,8.8s.6,3.5,2.9,3.6ZM233.6,573.3c.1-1.8-.4-2.5-1.8-3a5.2,5.2,0,0,0-2.1-.4,48.7,48.7,0,0,1-5.4-.2,5.3,5.3,0,0,1-3-1.4l-1.9-2c-.7-.6-1.3-1.3-2.1-1.9s-2.7-.8-3.4,1.1a12.4,12.4,0,0,0-.9,3.9,7.6,7.6,0,0,0-.3,2.1,17.3,17.3,0,0,0,1.4,4.4c1.3,2.5,2.5,5.1,3.8,7.6a13.7,13.7,0,0,0,1.9,3,10.4,10.4,0,0,1,1.7,2.4,55.7,55.7,0,0,1,4.2,8.9c.6,1.6,1.4,3.1,1.4,4.8a28,28,0,0,0,1.1,5.9,11.3,11.3,0,0,0,1.4,3.6,3.1,3.1,0,0,0,2.5,1.4,3.8,3.8,0,0,0,2.9-1,10.4,10.4,0,0,0,2.1-2.1c1.5-2.1,2.8-4.3,4.1-6.5a7.7,7.7,0,0,1,3.7-3.4l1.4-.7a19.2,19.2,0,0,0,4.1-1.9c1.2-.9,1.4-1.4.8-2.7a7.1,7.1,0,0,0-1-1.4,19.9,19.9,0,0,0-3.7-3.4,37.7,37.7,0,0,1-6.2-5,39.2,39.2,0,0,1-2.8-3.1,19.7,19.7,0,0,1-3.3-4.3,4.6,4.6,0,0,1-.7-3.8A3.9,3.9,0,0,0,233.6,573.3Zm-5.9,80.1c.2-2.2-.3-4.3-.3-6.5a1.8,1.8,0,0,0-1.5-2l-7.6-3c-3.9-1.5-7.8-3-11.8-4.1-2.5-.7-5.1-.9-7.6-1.4s-2.3-.5-3.5-.6-1.7.6-1.5,1.8a10.5,10.5,0,0,0,2.9,5,33.2,33.2,0,0,1,5,7.4,62.5,62.5,0,0,0,4.3,7,13.7,13.7,0,0,1,2.3,4.3,24,24,0,0,0,3.3,6.1c2,2.8,4,5.5,4.9,8.9a3,3,0,0,0,.4.8,2.3,2.3,0,0,0,2.8,1.1A26.2,26.2,0,0,0,225,676a4.1,4.1,0,0,0,2.4-4.1C227.5,665.7,227.3,659.5,227.7,653.4Z" transform="translate(-1.1 0)"/><path class="cls-1" d="M474.6,595.9c2.7-.5,4.6,1.1,6,3.4a4.7,4.7,0,0,1,.6.9c.5.9,1.2,1.8.6,2.9a4.9,4.9,0,0,1-3.2,2.9,4.8,4.8,0,0,1-3.1-.5,9.1,9.1,0,0,1-5-5.2,5,5,0,0,1-.6-2.4c0-1.1.3-1.4,1.3-1.7A9.2,9.2,0,0,1,474.6,595.9Z" transform="translate(-1.1 0)"/><path class="cls-1" d="M441.5,710.9v-.6a3.4,3.4,0,1,1,6.6,1.2,5.9,5.9,0,0,1-2.2,3.5,2.2,2.2,0,0,1-3.5-.7A6.7,6.7,0,0,1,441.5,710.9Z" transform="translate(-1.1 0)"/><path class="cls-1" d="M377.1,703.6a2.9,2.9,0,0,1,1.5-3,1.8,1.8,0,0,1,2.1.1,5.2,5.2,0,0,1,2.3,5.1,2.2,2.2,0,0,1-1.4,2.1,2.4,2.4,0,0,1-2.6-.3A4.5,4.5,0,0,1,377.1,703.6Z" transform="translate(-1.1 0)"/><path class="cls-1" d="M450.7,723.6c-1.3-.2-2.7-.4-3.2-1.7s.3-2.3,1.1-3.2l.9-.8c1-.8,1.8-.7,2.8.2a4.8,4.8,0,0,1,1.6,2.3,2.2,2.2,0,0,1-1.2,2.8A7.1,7.1,0,0,1,450.7,723.6Z" transform="translate(-1.1 0)"/><path class="cls-1" d="M80.2,598.1c0-2.2.8-3.8,2.9-4.6a5.4,5.4,0,0,1,4.5-.3,3,3,0,0,1,1.6,4.1,10.4,10.4,0,0,1-4,4.3c-2.4,1.5-4.3-.2-4.8-2A3.9,3.9,0,0,1,80.2,598.1Z" transform="translate(-1.1 0)"/><path class="cls-1" d="M182,702.9a6.1,6.1,0,0,1-.1,1.4,3.3,3.3,0,0,1-2.8,2.5,3.2,3.2,0,0,1-3.2-1.7,4.8,4.8,0,0,1,.6-5.6,2.6,2.6,0,0,1,2.4-.6A4.1,4.1,0,0,1,182,702.9Z" transform="translate(-1.1 0)"/><path class="cls-1" d="M117.1,706.1a5.4,5.4,0,0,1-2,4.4c-.7.8-1.2.7-2,0a2.3,2.3,0,0,1-.8-1.1,6.6,6.6,0,0,1-.3-4.6,1.9,1.9,0,0,1,.7-1.2c.6-.6,1.3-1.3,2.4-.9a2.8,2.8,0,0,1,2,2.3Z" transform="translate(-1.1 0)"/><path class="cls-1" d="M155.1,692.9a3.5,3.5,0,0,1-2.4,2.9,1.4,1.4,0,0,1-1.1-.3,4.4,4.4,0,0,1-1.8-3.5,3.3,3.3,0,0,1,1.9-2.4,1.1,1.1,0,0,1,.8,0A4.6,4.6,0,0,1,155.1,692.9Z" transform="translate(-1.1 0)"/><path class="cls-1" d="M110.9,715.7a4.1,4.1,0,0,1-.4,1.9,1.9,1.9,0,0,1-3.4.1,4.4,4.4,0,0,1-.8-3.2,1.9,1.9,0,0,1,1.6-1.9,2.7,2.7,0,0,1,2.5,1.2A2.2,2.2,0,0,1,110.9,715.7Z" transform="translate(-1.1 0)"/></g></svg>