<svg id="Layer_1" data-name="Layer 1" xmlns="http://www.w3.org/2000/svg" viewBox="0 0 400 400"><defs><style>.cls-1{fill:#212121;}</style></defs><title>layers-1</title><g id="Ellipse_272" data-name="Ellipse 272"><path class="cls-1" d="M399.2,189.7c0-1.7-.2-3.4-.3-5.1s-.4-5.1-.7-7.6l-.6-4.9c-.5-3.5-1.1-6.9-1.7-10.3A200.4,200.4,0,0,0,246.1,5.4h0l-6-1.4h0L234,2.9l-6.1-1-2.5-.3-5-.6-7-.5v2C316.1,9.4,397.5,95.3,397.5,200S316.1,390.6,213.4,397.5v2l7-.5,5-.6,2.5-.3,6.1-1,6.1-1.1h0l6-1.4h0A200.4,200.4,0,0,0,395.9,238.2c.6-3.4,1.2-6.8,1.7-10.3l.6-4.9c.3-2.5.5-5.1.7-7.6s.3-3.4.3-5.1c.2-3.4.3-6.8.3-10.3S399.4,193.1,399.2,189.7ZM174.6,1.6l-2.5.3-6.1,1L159.9,4h0l-6,1.4h0A200.4,200.4,0,0,0,4.1,161.8c-.6,3.4-1.2,6.8-1.7,10.3L1.8,177c-.3,2.5-.5,5.1-.7,7.6s-.3,3.4-.3,5.1C.6,193.1.5,196.5.5,200s.1,6.9.3,10.3c0,1.7.2,3.4.3,5.1s.4,5.1.7,7.6l.6,4.9c.5,3.5,1.1,6.9,1.7,10.3A200.4,200.4,0,0,0,153.9,394.6h0l6,1.4h0l6.1,1.1,6.1,1,2.5.3,5,.6,7,.5v-2C83.9,390.6,2.5,304.6,2.5,200S83.9,9.4,186.6,2.5V.5l-7,.5Z"/></g></svg>