<svg id="Layer_1" data-name="Layer 1" xmlns="http://www.w3.org/2000/svg" viewBox="0 0 400 400"><defs><style>.cls-1,.cls-3,.cls-4{fill:none;stroke:#212121;}.cls-1,.cls-3{stroke-width:2px;}.cls-2{fill:#212121;}.cls-3,.cls-4{stroke-dasharray:10;opacity:0.5;isolation:isolate;}.cls-4{stroke-width:2px;}.cls-5{fill:#87898b;}</style></defs><title>layers-1</title><line class="cls-1" y1="244.4" x2="400" y2="244.4"/><ellipse id="Ellipse_275" data-name="Ellipse 275" class="cls-2" cx="200" cy="130.2" rx="42.8" ry="42.5"/><path id="Path_179" data-name="Path 179" class="cls-3" d="M200,130.2,155.8,86.1"/><path id="Path_186" data-name="Path 186" class="cls-3" d="M200,130.2l44.2,44.1"/><path id="Path_180" data-name="Path 180" class="cls-4" d="M200,130.2V67.8"/><path id="Path_185" data-name="Path 185" class="cls-4" d="M200,130.2v62.4"/><path id="Path_181" data-name="Path 181" class="cls-3" d="M200,130.2l44.1-44.1"/><path id="Path_184" data-name="Path 184" class="cls-3" d="M200,130.2l-44.1,44.1"/><path id="Path_182" data-name="Path 182" class="cls-4" d="M200,130.2h62.4"/><path id="Path_183" data-name="Path 183" class="cls-4" d="M200,130.2H137.6"/><path class="cls-5" d="M184.8,127.7H183v5.7h-.9v-5.7h-1.8V127h4.5Z"/><path class="cls-5" d="M190.5,127v6.4h-.9v-2.8h-2.4v2.8h-.9V127h.9v2.9h2.4V127Z"/><path class="cls-5" d="M193.3,127.7v2H196v.7h-2.7v2.3h3v.7h-3.9V127h3.9v.7Z"/><path class="cls-5" d="M203.8,133.1v-.8a3.6,3.6,0,0,0,1.9.4c1,0,1.5-.4,1.5-1.1s-.2-.8-1.1-1l-.8-.3a1.6,1.6,0,0,1-1.5-1.7c0-1,.9-1.7,2.2-1.7a4.2,4.2,0,0,1,1.8.3v.8a4,4,0,0,0-1.7-.3c-.9,0-1.4.3-1.4.9s.3.8,1.1,1l.7.2c1.2.3,1.7.8,1.7,1.8s-.9,1.9-2.4,1.9A3.7,3.7,0,0,1,203.8,133.1Z"/><path class="cls-5" d="M209.6,131.3V127h.9v4.3c0,1,.5,1.5,1.2,1.5a1.3,1.3,0,0,0,1.4-1.5V127h.9v4.3a2.1,2.1,0,0,1-2.3,2.2A2,2,0,0,1,209.6,131.3Z"/><path class="cls-5" d="M219.7,127v6.4H219l-2.8-4.7v4.7h-.8V127h.7l2.8,4.7V127Z"/></svg>